<svg width="1280" height="1163" xmlns="http://www.w3.org/2000/svg" preserveAspectRatio="xMidYMid meet">

 <g>
  <title>background</title>
  <rect fill="none" id="canvas_background" height="402" width="582" y="-1" x="-1"/>
 </g>
 <g>
  <title>Layer 1</title>
  <g id="svg_1" fill="#ffffff" transform="translate(0,1163) scale(0.10000000149011612,-0.10000000149011612) ">
   <path fill="#000000" id="svg_2" d="m5650,11290l0,-40l168,-2l167,-3l-165,-61l-165,-61l-3,-51l-3,-52l250,0l251,0l0,40l0,40l-177,0l-178,1l175,62l175,63l3,52l3,52l-250,0l-251,0l0,-40z"/>
   <path fill="#000000" id="svg_3" d="m5713,10925c-70,-30 -96,-137 -50,-206c12,-19 44,-45 72,-59c45,-23 62,-25 175,-25c110,0 131,3 172,23c74,37 99,113 58,180c-16,26 -17,32 -5,32c10,0 15,11 15,35l0,35l-140,0l-140,0l0,-75l0,-75l35,0c32,0 35,2 35,30c0,30 1,30 53,30c63,0 90,-21 85,-67c-4,-38 -40,-54 -137,-60c-85,-6 -176,9 -203,34c-10,9 -18,29 -18,45c0,24 6,32 35,44c32,13 35,18 35,54c0,35 -3,40 -22,40c-13,-1 -38,-7 -55,-15z"/>
   <path fill="#000000" id="svg_4" d="m5650,10515l0,-45l250,0l250,0l0,45l0,45l-250,0l-250,0l0,-45z"/>
   <path fill="#000000" id="svg_5" d="m6370,10306l0,-196l40,0l39,0l3,73l3,72l47,5c84,10 124,76 99,161c-17,55 -46,70 -146,77l-85,5l0,-197zm138,112c13,-13 16,-47 6,-72c-4,-10 -18,-16 -35,-16c-28,0 -29,2 -29,43c0,24 3,47 7,50c10,11 38,8 51,-5z"/>
   <path fill="#000000" id="svg_6" d="m6650,10306l0,-196l45,0l45,0l0,80c0,63 3,80 14,80c32,0 46,-30 46,-96l0,-64l46,0l46,0l-4,74c-2,54 -8,80 -22,94c-17,20 -17,21 3,43c37,40 24,130 -22,158c-12,8 -61,16 -109,19l-88,5l0,-197zm138,112c19,-19 15,-66 -7,-78c-34,-18 -41,-12 -41,40c0,41 3,50 18,50c10,0 23,-5 30,-12z"/>
   <path fill="#000000" id="svg_7" d="m6981,10474c-38,-31 -51,-77 -51,-174c0,-135 30,-188 113,-197c94,-11 138,42 145,175c8,152 -32,222 -128,222c-37,0 -55,-6 -79,-26zm112,-84c12,-47 4,-185 -13,-204c-35,-43 -60,7 -60,120c0,91 12,127 42,122c15,-2 24,-13 31,-38z"/>
   <path fill="#000000" id="svg_8" d="m7247,10494c-4,-4 -7,-92 -7,-196l0,-188l40,0l40,0l1,128l2,127l16,-125l16,-125l37,-3c42,-4 37,-18 63,162c7,54 16,100 18,102c2,2 1,-57 -1,-131l-5,-135l47,0l46,0l-2,193l-3,192l-60,0l-59,0l-7,-35c-4,-19 -13,-69 -20,-110l-13,-75l-15,110l-16,110l-55,3c-31,2 -59,0 -63,-4z"/>
   <path fill="#000000" id="svg_9" d="m7665,10478c-41,-32 -55,-76 -55,-170c0,-143 29,-196 113,-205c93,-11 138,42 145,172c5,97 -10,158 -48,197c-37,37 -112,40 -155,6zm106,-90c14,-52 7,-181 -11,-203c-36,-44 -60,1 -60,115c0,93 11,130 39,130c15,0 23,-11 32,-42z"/>
   <path fill="#000000" id="svg_10" d="m7890,10460c0,-39 1,-40 35,-40l35,0l0,-155l0,-155l45,0l45,0l0,155l0,155l41,0l40,0l-3,38l-3,37l-117,3l-118,3l0,-41z"/>
   <path fill="#000000" id="svg_11" d="m8167,10494c-4,-4 -7,-92 -7,-196l0,-188l45,0l45,0l-2,193l-3,192l-35,3c-20,2 -39,0 -43,-4z"/>
   <path fill="#000000" id="svg_12" d="m8350,10472c-16,-16 -34,-49 -40,-73c-16,-57 -8,-195 14,-237c22,-43 68,-65 123,-59c84,9 113,61 113,199c0,147 -35,198 -136,198c-37,0 -51,-6 -74,-28zm110,-61c13,-25 13,-181 0,-215c-11,-29 -31,-34 -50,-12c-17,22 -24,154 -11,204c13,47 42,58 61,23z"/>
   <path fill="#000000" id="svg_13" d="m8617,10493c-4,-3 -7,-91 -7,-195l0,-188l40,0l39,0l3,118l3,117l34,-117l35,-118l48,0l48,0l0,196l0,195l-37,-3l-38,-3l0,-112c1,-62 0,-111 -1,-110c-1,1 -19,53 -39,115l-36,112l-43,0c-23,0 -46,-3 -49,-7z"/>
   <path fill="#000000" id="svg_14" d="m8974,10488c-4,-7 -24,-95 -44,-196l-36,-183l45,3c44,3 46,4 51,38c5,32 8,35 41,38c35,3 36,2 43,-37c6,-41 6,-41 51,-41c30,0 45,4 45,13c-1,6 -18,93 -38,192l-37,180l-57,3c-38,2 -59,-1 -64,-10zm75,-195c1,-17 -5,-23 -20,-23c-18,0 -20,4 -14,48c11,81 18,92 26,42c4,-25 8,-55 8,-67z"/>
   <path fill="#000000" id="svg_15" d="m9207,10493c-4,-3 -7,-91 -7,-195l0,-188l105,0l105,0l0,35l0,35l-60,0l-60,0l0,160l0,160l-38,0c-21,0 -42,-3 -45,-7z"/>
   <path fill="#000000" id="svg_16" d="m3990,10375l0,-115l230,0l230,0l0,115l0,115l-30,0l-30,0l0,-80l0,-80l-75,0l-75,0l0,75l0,75l-30,0l-30,0l0,-75l0,-75l-65,0l-65,0l0,80l0,80l-30,0l-30,0l0,-115z"/>
   <path fill="#000000" id="svg_17" d="m5925,10376c-121,-29 -232,-56 -247,-59c-27,-7 -28,-10 -28,-65l0,-58l228,-52c125,-29 237,-55 250,-58c20,-6 22,-3 22,39l0,45l-62,14l-63,13l-3,56l-3,57l66,12l65,12l0,49c0,27 -1,48 -2,48c-2,-1 -102,-25 -223,-53zm25,-126c0,-22 -2,-40 -4,-40c-12,0 -174,32 -186,37c-8,3 23,13 70,23c125,26 120,26 120,-20z"/>
   <path fill="#000000" id="svg_18" d="m4390,10140l0,-80l-200,0l-200,0l0,-35l0,-35l230,0l230,0l0,109c0,90 -3,110 -16,115c-40,15 -44,9 -44,-74z"/>
   <path fill="#000000" id="svg_19" d="m3125,10083c-37,-10 -63,-35 -80,-75c-38,-96 -27,-250 22,-308c21,-26 32,-30 73,-30c30,0 52,5 60,15c11,14 14,13 24,-1c7,-9 21,-14 32,-12c17,3 19,12 19,113l0,110l-63,3l-63,3l3,-28c2,-22 9,-29 31,-31c24,-3 27,-7 27,-40c0,-72 -54,-107 -95,-62c-15,16 -20,41 -23,108c-4,93 10,157 39,175c25,16 68,0 75,-28c5,-19 13,-25 35,-25c24,0 29,4 29,25c0,55 -82,105 -145,88z"/>
   <path fill="#000000" id="svg_20" d="m3662,10075c-40,-18 -66,-73 -57,-121c6,-34 24,-52 110,-107c41,-26 51,-38 53,-65c4,-43 -12,-62 -55,-62c-29,0 -36,5 -46,30c-10,25 -17,30 -45,30c-32,0 -34,-2 -28,-27c4,-16 20,-40 37,-55c24,-24 38,-28 84,-28c70,0 114,34 121,95c8,62 -19,101 -96,145c-60,33 -65,39 -68,73c-3,31 1,39 20,46c33,12 56,2 67,-30c7,-22 16,-29 36,-29c31,0 39,17 26,53c-20,53 -99,79 -159,52z"/>
   <path fill="#000000" id="svg_21" d="m5709,10067c-50,-33 -59,-60 -59,-169l0,-98l250,0l250,0l0,45l0,45l-99,0l-98,0l-7,55c-8,72 -23,101 -61,125c-46,29 -131,27 -176,-3zm145,-83c9,-9 16,-32 16,-55l0,-39l-75,0l-75,0l0,33c0,53 24,77 75,77c26,0 50,-6 59,-16z"/>
   <path fill="#000000" id="svg_22" d="m2490,9875l0,-205l30,0l30,0l0,85l0,85l41,0c86,0 132,45 131,129c-1,83 -41,111 -157,111l-75,0l0,-205zm150,135c11,-11 20,-33 20,-48c0,-43 -21,-64 -66,-66l-39,-1l-3,54c-2,29 -1,60 2,67c8,21 63,17 86,-6z"/>
   <path fill="#000000" id="svg_23" d="m2810,10073c0,-3 -20,-91 -45,-194c-25,-103 -45,-192 -45,-198c0,-6 13,-11 29,-11c31,0 35,5 47,73l6,37l54,0c45,0 54,-3 54,-17c0,-10 5,-35 11,-55c9,-33 14,-38 39,-38c17,0 30,5 30,13c0,6 -21,99 -46,205l-46,192l-44,0c-24,0 -44,-3 -44,-7zm74,-197c7,-36 7,-36 -29,-36c-19,0 -35,4 -35,10c0,5 8,44 17,87l17,78l12,-51c6,-29 14,-68 18,-88z"/>
   <path fill="#000000" id="svg_24" d="m3340,9875l0,-205l104,0c99,0 104,1 110,23c3,12 6,25 6,30c0,4 -34,7 -75,7l-75,0l0,65l0,65l65,0c63,0 65,1 65,25c0,24 -2,25 -65,25l-65,0l0,55l0,54l68,3c65,3 67,4 70,31l3,27l-105,0l-106,0l0,-205z"/>
   <path fill="#000000" id="svg_25" d="m6453,9929c-47,-14 -73,-52 -73,-110c0,-68 29,-100 98,-107c50,-4 53,-3 89,35c21,22 47,55 58,73c27,46 47,56 82,44c42,-14 44,-59 4,-82c-25,-13 -31,-24 -31,-49c0,-22 5,-33 14,-33c79,0 131,102 91,180c-22,42 -53,60 -106,60c-58,0 -99,-30 -134,-101c-25,-49 -50,-65 -86,-54c-30,10 -23,69 9,73c18,3 22,10 22,43c0,21 -1,39 -2,38c-2,0 -17,-5 -35,-10z"/>
   <path fill="#000000" id="svg_26" d="m3990,9875l0,-35l230,0l230,0l0,35l0,35l-230,0l-230,0l0,-35z"/>
   <path fill="#000000" id="svg_27" d="m7059,9896c-34,-19 -53,-67 -46,-112c8,-45 20,-60 71,-86c56,-28 86,-57 86,-84c0,-25 -24,-54 -46,-54c-16,0 -54,35 -54,50c0,6 -16,10 -35,10c-40,0 -45,-15 -18,-60c20,-35 52,-50 104,-50c78,0 119,41 119,119c0,50 -25,81 -95,117c-57,30 -71,49 -60,85c10,30 69,23 73,-8c3,-19 10,-23 38,-23c29,0 34,3 34,24c0,14 -10,37 -23,52c-28,33 -106,43 -148,20z"/>
   <path fill="#000000" id="svg_28" d="m7931,9897c-32,-19 -50,-54 -51,-97c0,-46 21,-75 73,-101c57,-29 87,-58 87,-85c0,-25 -24,-54 -46,-54c-16,0 -54,35 -54,50c0,6 -16,10 -35,10c-39,0 -43,-11 -23,-55c33,-74 183,-74 216,0c18,40 15,99 -8,127c-10,14 -44,38 -75,54c-57,30 -71,49 -60,85c10,30 69,23 73,-8c3,-19 10,-23 38,-23c29,0 34,3 34,24c0,14 -10,37 -23,52c-28,32 -107,43 -146,21z"/>
   <path fill="#000000" id="svg_29" d="m8219,9895c-47,-26 -64,-77 -64,-195c0,-148 28,-190 126,-190c33,0 48,7 75,34c21,21 34,44 34,60c0,22 -4,26 -29,26c-23,0 -33,-7 -43,-27c-9,-19 -22,-29 -40,-31c-41,-5 -53,27 -53,140c0,80 4,100 19,117c31,34 76,21 76,-21c0,-14 8,-18 35,-18c28,0 35,4 35,20c0,78 -96,126 -171,85z"/>
   <path fill="#000000" id="svg_30" d="m9755,9901c-39,-17 -60,-51 -60,-97c0,-51 25,-82 102,-123c42,-23 48,-30 51,-63c2,-29 -1,-39 -18,-48c-28,-15 -54,-5 -68,25c-9,20 -19,25 -47,25c-40,0 -40,1 -21,-44c19,-46 52,-66 106,-66c59,0 91,17 113,60c35,68 4,130 -85,176c-56,28 -74,55 -58,84c16,29 58,26 72,-5c9,-20 19,-25 46,-25c32,0 34,2 27,28c-10,44 -47,74 -96,78c-24,2 -53,0 -64,-5z"/>
   <path fill="#000000" id="svg_31" d="m7292,9730c3,-158 4,-171 25,-191c27,-27 109,-37 153,-19c52,22 60,51 60,225l0,155l-35,0l-35,0l0,-153c0,-106 -4,-157 -12,-165c-19,-19 -66,-15 -78,7c-5,11 -10,84 -10,165l0,146l-36,0l-35,0l3,-170z"/>
   <path fill="#000000" id="svg_32" d="m7592,9708l3,-193l35,-3c73,-7 142,8 172,38c23,24 28,37 28,80c0,41 -5,55 -24,73c-22,21 -23,22 -5,41c30,31 26,101 -7,131c-24,23 -35,25 -116,25l-88,0l2,-192zm139,132c13,-7 19,-21 19,-44c0,-37 -12,-46 -61,-46c-28,0 -29,2 -29,43c0,24 3,47 7,50c10,10 42,8 64,-3zm17,-162c17,-17 15,-83 -2,-97c-8,-7 -30,-11 -48,-9c-33,3 -33,3 -36,61l-3,57l39,0c21,0 43,-5 50,-12z"/>
   <path fill="#000000" id="svg_33" d="m8440,9704l0,-195l33,3l32,3l3,83l3,82l28,0c41,0 55,-24 61,-99l5,-66l34,-3l34,-3l-5,80c-3,58 -10,86 -22,100c-17,19 -17,21 3,42c33,36 29,103 -8,140c-28,28 -34,29 -115,29l-86,0l0,-196zm144,130c19,-18 21,-65 4,-82c-7,-7 -27,-12 -45,-12l-33,0l0,55c0,54 0,55 29,55c16,0 37,-7 45,-16z"/>
   <path fill="#000000" id="svg_34" d="m8730,9704l0,-195l33,3l32,3l3,193l2,192l-35,0l-35,0l0,-196z"/>
   <path fill="#000000" id="svg_35" d="m8870,9705l0,-195l53,0c123,1 179,36 181,113c1,32 -5,54 -20,74c-19,25 -20,31 -8,48c24,32 18,102 -11,130c-22,23 -32,25 -110,25l-85,0l0,-195zm140,125c23,-23 24,-33 10,-61c-8,-13 -21,-19 -45,-19l-35,0l0,50c0,47 2,50 25,50c14,0 34,-9 45,-20zm8,-152c7,-7 12,-28 12,-48c0,-45 -15,-60 -57,-60l-33,0l0,60l0,60l33,0c18,0 38,-5 45,-12z"/>
   <path fill="#000000" id="svg_36" d="m9157,9708l2,-193l97,0l98,0l7,27l7,27l-70,3l-71,3l0,55l0,55l62,3c60,3 61,3 61,32c0,30 0,30 -60,30l-60,0l0,45l0,45l65,0l65,0l0,30l0,30l-102,0l-103,0l2,-192z"/>
   <path fill="#000000" id="svg_37" d="m9412,9708l3,-193l33,-3l32,-3l0,85l0,86l28,0c48,0 57,-14 62,-92l5,-73l33,-3l32,-3l0,74c0,61 -4,79 -22,102c-19,25 -20,28 -5,36c24,14 37,72 26,114c-14,49 -50,65 -149,65l-80,0l2,-192zm139,132c13,-7 19,-21 19,-43c0,-42 -15,-57 -57,-57l-33,0l0,55c0,52 1,55 26,55c14,0 34,-5 45,-10z"/>
   <path fill="#000000" id="svg_38" d="m3990,9670l0,-110l230,0l230,0l0,35l0,35l-100,0l-99,0l-3,72l-3,72l-30,0l-30,0l-3,-72l-3,-72l-64,0l-65,0l0,75l0,75l-30,0l-30,0l0,-110z"/>
   <path fill="#000000" id="svg_39" d="m5650,9646l0,-64l148,-27c195,-37 199,-39 105,-53c-43,-7 -117,-19 -165,-28l-88,-16l0,-69l0,-69l250,0l250,0l0,47l0,46l-207,-6c-115,-3 -203,-4 -198,-2c10,4 384,65 399,65c4,0 6,19 4,42l-3,42l-145,26c-80,15 -170,32 -200,37c-46,9 -22,11 148,12l202,1l0,40l0,40l-250,0l-250,0l0,-64z"/>
   <path fill="#000000" id="svg_40" d="m6419,9632c-33,-30 -33,-31 -34,-118l0,-89l203,-3l202,-2l0,35l0,35l-85,0l-85,0l0,33c0,46 15,57 81,57c78,0 89,6 89,45l0,33l-77,-5c-51,-3 -87,-11 -103,-22c-24,-17 -26,-17 -40,2c-11,13 -32,21 -66,24c-46,5 -54,2 -85,-25zm122,-63c13,-13 19,-30 17,-47c-3,-26 -6,-27 -58,-27c-52,0 -55,1 -58,27c-4,31 28,68 58,68c11,0 29,-9 41,-21z"/>
   <path fill="#000000" id="svg_41" d="m400,9499c-34,-14 -60,-39 -72,-69c-20,-50 -27,-145 -17,-214c17,-120 61,-163 159,-154c91,9 122,58 127,203c6,162 -32,233 -128,241c-24,2 -55,-1 -69,-7zm81,-85c19,-23 19,-235 0,-258c-24,-29 -49,-20 -62,22c-15,51 -8,214 10,235c17,21 35,21 52,1z"/>
   <path fill="#000000" id="svg_42" d="m1073,9503c-34,-6 -77,-55 -91,-100c-15,-51 -16,-190 -1,-249c15,-60 56,-94 113,-94c23,0 52,7 64,16c12,8 22,10 22,5c0,-6 18,-11 40,-11l41,0l-3,123l-3,122l-70,0l-70,0l-3,-37c-3,-33 0,-38 18,-38c19,0 21,-5 18,-47c-3,-44 -5,-48 -30,-51c-23,-3 -28,2 -37,35c-21,75 -9,231 19,248c18,11 50,-6 50,-26c0,-16 7,-19 50,-19c44,0 50,3 50,20c0,77 -78,122 -177,103z"/>
   <path fill="#000000" id="svg_43" d="m3242,9493c-58,-28 -77,-80 -77,-208c0,-88 4,-118 19,-149c25,-49 69,-76 124,-76c104,0 146,64 147,225c0,84 -4,107 -23,147c-36,73 -115,98 -190,61zm98,-82c5,-11 10,-68 10,-126c0,-113 -9,-145 -40,-145c-31,0 -40,32 -40,145c0,113 9,145 40,145c11,0 24,-9 30,-19z"/>
   <path fill="#000000" id="svg_44" d="m650,9285l0,-215l50,0l50,0l0,86l0,85l33,-3c31,-3 32,-5 35,-53c1,-27 4,-65 7,-82c6,-32 8,-33 53,-33l47,0l-6,91c-4,74 -9,94 -24,105c-18,13 -18,15 3,37c47,50 36,143 -22,178c-25,15 -50,19 -128,19l-98,0l0,-215zm172,122c23,-36 -2,-87 -42,-87c-29,0 -30,1 -30,48c0,27 3,52 7,56c10,10 56,-3 65,-17z"/>
   <path fill="#000000" id="svg_45" d="m1336,9308c-20,-106 -40,-203 -43,-215c-5,-22 -2,-23 45,-23l51,0l7,45c6,44 7,45 45,45c40,0 42,-2 51,-65c3,-17 12,-21 56,-23l53,-3l-6,33c-4,18 -23,114 -43,213l-37,180l-71,3l-71,3l-37,-193zm127,-60c-2,-5 -13,-8 -25,-8c-19,0 -20,4 -13,58c13,107 18,113 31,32c6,-41 9,-78 7,-82z"/>
   <path fill="#000000" id="svg_46" d="m1630,9285l0,-215l45,0l44,0l3,132l3,131l39,-131l39,-132l54,0l53,0l0,215l0,215l-46,0l-47,0l6,-127c3,-71 3,-121 0,-113c-4,8 -23,65 -43,125l-36,110l-57,3l-57,3l0,-216z"/>
   <path fill="#000000" id="svg_47" d="m1980,9285l0,-215l50,0l50,0l0,215l0,215l-50,0l-50,0l0,-215z"/>
   <path fill="#000000" id="svg_48" d="m2130,9460l0,-40l71,0l71,0l-76,-144c-47,-89 -76,-157 -76,-175l0,-31l130,0l130,0l0,24c0,13 3,31 6,40c5,14 -5,16 -71,16c-42,0 -75,3 -73,8c2,4 34,67 71,139c45,89 67,144 67,168l0,35l-125,0l-125,0l0,-40z"/>
   <path fill="#000000" id="svg_49" d="m2455,9303c-21,-109 -40,-206 -43,-215c-4,-15 3,-18 46,-18c53,0 62,9 62,68c0,21 4,23 43,20c41,-3 42,-4 47,-43l5,-40l54,-3c48,-3 53,-1 49,15c-3,10 -22,107 -43,216l-39,197l-71,0l-71,0l-39,-197zm129,-25c6,-35 5,-38 -19,-38c-29,0 -30,4 -13,103l12,72l7,-50c4,-27 10,-67 13,-87z"/>
   <path fill="#000000" id="svg_50" d="m2700,9460l0,-40l40,0l40,0l0,-175l0,-175l50,0l50,0l0,175l0,175l45,0l45,0l0,40l0,40l-135,0l-135,0l0,-40z"/>
   <path fill="#000000" id="svg_51" d="m3010,9285l0,-215l50,0l50,0l0,215l0,215l-50,0l-50,0l0,-215z"/>
   <path fill="#000000" id="svg_52" d="m3510,9285l0,-215l45,0l45,0l1,133l0,132l15,-50c9,-27 27,-87 40,-132l25,-83l55,0l54,0l0,215l0,215l-46,0l-46,0l3,-124c2,-68 2,-122 -1,-120c-2,3 -20,58 -40,122l-37,117l-56,3l-57,3l0,-216z"/>
   <path fill="#000000" id="svg_53" d="m4090,9478c-85,-24 -125,-90 -101,-167c21,-72 89,-101 236,-101c113,0 160,13 203,56c33,33 34,38 30,89c-6,68 -32,100 -102,120c-56,17 -212,19 -266,3zm272,-78c30,-14 43,-40 33,-68c-3,-11 -18,-25 -33,-32c-34,-16 -165,-25 -228,-15c-105,15 -120,101 -21,126c46,12 217,4 249,-11z"/>
   <path fill="#000000" id="svg_54" d="m6730,9310l0,-70l-60,0l-60,0l0,60l0,60l-30,0l-30,0l0,-60l0,-60l-50,0l-50,0l0,65l0,65l-35,0l-35,0l0,-100l0,-100l205,0l205,0l0,99c0,81 -3,100 -16,105c-39,15 -44,8 -44,-64z"/>
   <path fill="#000000" id="svg_55" d="m7640,9140l0,-190l45,0l45,0l0,70l0,70l288,2l287,3l0,45l0,45l-287,3l-288,2l0,70l0,70l-45,0l-45,0l0,-190z"/>
   <path fill="#000000" id="svg_56" d="m7020,9185c0,-108 1,-115 20,-115c17,0 20,7 20,45l0,45l180,0l180,0l0,25l0,25l-180,0l-180,0l0,45c0,38 -3,45 -20,45c-19,0 -20,-7 -20,-115z"/>
   <path fill="#000000" id="svg_57" d="m5892,9221l-243,-56l3,-60l3,-59l245,-57l245,-56l3,40c2,21 1,41 -2,44c-3,3 -31,11 -63,17l-58,12l-3,57c-3,62 -9,57 83,75c39,8 40,9 43,55c2,26 -1,47 -5,46c-4,-1 -117,-26 -251,-58zm58,-114c0,-19 -2,-36 -5,-39c-3,-3 -51,4 -108,16l-102,20l80,17c44,9 92,17 108,18c24,1 27,-2 27,-32z"/>
   <path fill="#000000" id="svg_58" d="m11645,9154c-51,-26 -81,-63 -131,-156c-56,-105 -88,-128 -149,-108c-36,12 -45,26 -45,69c0,38 20,62 60,70c35,7 35,7 38,69c3,62 3,62 -25,62c-37,-1 -102,-31 -130,-61c-32,-35 -43,-72 -43,-143c0,-123 70,-196 187,-196c100,0 154,42 218,169c44,87 73,111 136,111c39,0 51,-4 68,-26c12,-15 21,-40 21,-56c0,-38 -48,-88 -84,-88c-25,0 -26,-2 -26,-65c0,-64 0,-65 28,-65c41,1 104,33 135,69c82,98 51,288 -56,340c-53,26 -157,29 -202,5z"/>
   <path fill="#000000" id="svg_59" d="m4028,9121c-32,-29 -33,-31 -36,-125l-4,-96l231,0l231,0l0,35l0,35l-100,0l-100,0l0,33c0,59 17,70 114,75l86,5l0,33l0,34l-67,0c-80,0 -139,-14 -151,-36c-8,-14 -13,-12 -35,10c-22,22 -35,26 -81,26c-47,0 -61,-4 -88,-29zm144,-58c11,-10 18,-30 18,-55l0,-38l-70,0l-70,0l0,37c0,20 7,45 17,55c20,23 80,24 105,1z"/>
   <path fill="#000000" id="svg_60" d="m10632,9123c3,-16 19,-18 155,-18c84,0 149,-3 145,-6c-4,-3 -73,-32 -154,-64c-131,-52 -148,-62 -148,-82l0,-23l199,0c184,0 199,1 197,18c-3,15 -18,17 -159,17c-85,0 -154,1 -152,3c2,2 72,32 156,66c131,52 153,64 154,84l2,22l-199,0c-185,0 -199,-1 -196,-17z"/>
   <path fill="#000000" id="svg_61" d="m6387,9093c-4,-3 -7,-27 -7,-53l0,-47l118,-22c164,-31 169,-35 71,-49c-46,-7 -108,-17 -137,-23l-53,-11l3,-51l3,-52l203,-3l202,-2l0,35l0,35l-152,1l-153,1l85,14c247,40 220,32 220,69l0,33l-97,17c-249,44 -247,43 -65,44l162,1l0,35l0,35l-198,0c-109,0 -202,-3 -205,-7z"/>
   <path fill="#000000" id="svg_62" d="m7064,9030c-50,-20 -69,-92 -40,-149c25,-47 85,-66 206,-66c113,0 153,13 184,57c32,46 15,122 -34,151c-42,25 -70,22 -70,-7c0,-18 7,-25 30,-30c71,-14 58,-98 -17,-113c-60,-11 -187,-8 -222,7c-61,25 -61,95 0,107c22,4 29,11 29,29c0,26 -24,31 -66,14z"/>
   <path fill="#000000" id="svg_63" d="m5703,8880c-45,-27 -66,-73 -61,-131c6,-61 27,-93 81,-121c38,-21 56,-23 182,-23c130,0 143,2 182,24c97,56 97,192 1,251c-18,11 -46,20 -61,20c-27,0 -28,-2 -25,-41c3,-38 6,-43 38,-53c29,-9 36,-16 38,-43c3,-25 -2,-35 -24,-50c-23,-15 -49,-18 -154,-18c-145,0 -180,13 -180,64c0,32 13,45 50,54c22,5 25,12 25,47c0,38 -2,40 -30,40c-16,0 -44,-9 -62,-20z"/>
   <path fill="#000000" id="svg_64" d="m2250,8868c-72,-39 -93,-93 -98,-249c-5,-150 10,-218 58,-264c29,-28 36,-30 110,-30c70,0 81,3 105,25c30,27 55,78 55,110c0,19 -5,21 -42,18c-38,-3 -43,-6 -50,-35c-17,-64 -88,-71 -122,-13c-16,27 -22,57 -25,139c-6,174 21,246 91,239c28,-3 36,-9 53,-45c18,-40 22,-43 59,-43l39,0l-6,40c-10,77 -53,117 -133,126c-40,5 -58,1 -94,-18z"/>
   <path fill="#000000" id="svg_65" d="m7640,8845l0,-45l243,0l242,-1l-242,-90l-243,-91l0,-59l0,-59l333,2l332,3l3,43l3,42l-253,1l-253,0l85,32c47,17 159,58 250,92l165,61l0,54l0,55l-332,3l-333,2l0,-45z"/>
   <path fill="#000000" id="svg_66" d="m1452,8603l3,-278l43,-3l42,-3l0,125l0,126l90,0l90,0l0,40l0,40l-90,0l-90,0l0,75l0,75l95,0l95,0l0,40l0,40l-140,0l-140,0l2,-277z"/>
   <path fill="#000000" id="svg_67" d="m1860,8873c0,-5 -27,-120 -60,-258c-33,-137 -62,-260 -65,-273c-5,-22 -3,-23 37,-20l43,3l19,78l19,78l66,-3l66,-3l19,-77l18,-78l44,0c24,0 44,3 44,6c0,3 -29,126 -65,272c-36,147 -65,271 -65,275c0,4 -27,7 -60,7c-33,0 -60,-3 -60,-7zm86,-205c13,-62 24,-114 24,-115c0,-2 -23,-3 -51,-3c-48,0 -51,1 -47,23c3,12 13,66 24,119c10,53 20,95 22,93c2,-2 15,-54 28,-117z"/>
   <path fill="#000000" id="svg_68" d="m2520,8840l0,-40l60,0l60,0l0,-241l0,-240l43,3l42,3l3,238l2,237l60,0l60,0l0,40l0,40l-165,0l-165,0l0,-40z"/>
   <path fill="#000000" id="svg_69" d="m3620,8761l0,-121l-101,0l-100,0l3,105l3,105l-52,0l-53,0l0,-105l0,-105l-85,0l-85,0l0,110l0,110l-50,0l-50,0l0,-170l0,-170l340,0l340,0l0,169c0,94 -3,172 -7,174c-5,3 -29,8 -55,11l-48,7l0,-120z"/>
   <path fill="#000000" id="svg_70" d="m10693,8841c-23,-11 -46,-28 -52,-39c-16,-30 -13,-84 5,-110c31,-44 71,-57 184,-57c113,0 153,13 184,57c32,46 15,112 -37,144c-49,28 -226,32 -284,5zm260,-42c28,-13 44,-47 33,-74c-12,-32 -74,-47 -177,-43c-78,2 -101,7 -118,22c-24,21 -28,68 -8,85c38,31 210,38 270,10z"/>
   <path fill="#000000" id="svg_71" d="m4053,8825c-47,-20 -63,-60 -63,-160l0,-85l230,0l230,0l0,35l0,34l-92,3l-93,3l-6,55c-3,31 -11,65 -18,78c-26,48 -120,67 -188,37zm125,-71c17,-12 22,-25 22,-60l0,-45l-72,3l-73,3l-3,37c-6,67 68,103 126,62z"/>
   <path fill="#000000" id="svg_72" d="m7020,8725l0,-25l165,0c152,0 167,-2 185,-20c25,-25 25,-51 1,-81c-19,-23 -25,-24 -185,-27l-166,-3l0,-25l0,-24l161,0c176,0 216,9 238,56c26,59 5,140 -44,162c-17,8 -84,12 -190,12l-165,0l0,-25z"/>
   <path fill="#000000" id="svg_73" d="m6525,8724c-62,-9 -115,-35 -130,-64c-38,-73 -4,-155 73,-178c64,-19 210,-15 259,7c101,46 94,187 -11,220c-38,12 -150,20 -191,15zm196,-101c28,-27 19,-50 -26,-68c-45,-20 -175,-19 -221,0c-30,12 -35,19 -32,42c5,43 38,54 155,51c90,-3 105,-6 124,-25z"/>
   <path fill="#000000" id="svg_74" d="m11685,8671c-68,-17 -116,-64 -166,-164c-45,-90 -73,-117 -124,-117c-52,0 -75,23 -75,73c0,39 20,59 73,71c26,6 27,9 27,66l0,60l-33,0c-51,0 -118,-40 -144,-86c-25,-44 -32,-150 -12,-201c36,-96 162,-141 265,-94c45,21 75,55 124,146c59,109 104,139 174,115c66,-21 73,-114 13,-151c-18,-10 -40,-19 -49,-19c-15,0 -18,-10 -18,-66l0,-66l38,7c139,25 200,136 160,292c-25,103 -137,162 -253,134z"/>
   <path fill="#000000" id="svg_75" d="m10633,8555c-3,-9 -1,-21 4,-26c5,-5 88,-8 199,-7c181,3 189,4 189,23c0,19 -8,20 -193,23c-168,2 -193,0 -199,-13z"/>
   <path fill="#000000" id="svg_76" d="m10630,8375c0,-98 1,-105 20,-105c17,0 20,7 20,40l0,40l178,2c169,3 177,4 177,23c0,19 -8,20 -177,23l-178,2l0,40c0,33 -3,40 -20,40c-19,0 -20,-7 -20,-105z"/>
   <path fill="#000000" id="svg_77" d="m3626,8453c-3,-4 -6,-55 -6,-115l0,-108l-285,0l-285,0l0,-60l0,-60l340,0l340,0l0,165c0,124 -3,167 -12,169c-28,9 -87,14 -92,9z"/>
   <path fill="#000000" id="svg_78" d="m7094,8441c-61,-28 -74,-53 -74,-138l0,-73l200,0l200,0l0,65c0,121 -42,156 -195,162c-73,3 -98,0 -131,-16zm212,-42c51,-13 74,-40 74,-86l0,-33l-160,0l-160,0l0,33c0,66 44,94 148,96c29,1 73,-4 98,-10z"/>
   <path fill="#000000" id="svg_79" d="m6380,8330l0,-120l35,0c34,0 35,1 35,40l0,40l170,0l170,0l0,35l0,35l-170,0l-170,0l0,45c0,45 0,45 -35,45l-35,0l0,-120z"/>
   <path fill="#000000" id="svg_80" d="m4332,8410c-51,-32 -72,-87 -72,-199c0,-112 13,-160 52,-198c26,-25 37,-28 94,-28c61,0 68,2 94,32c16,18 34,52 41,75c16,61 7,224 -15,266c-36,68 -127,92 -194,52zm99,-77c10,-11 14,-48 14,-128c0,-118 -9,-145 -46,-145c-28,0 -42,62 -38,167c4,89 16,123 44,123c7,0 19,-7 26,-17z"/>
   <path fill="#000000" id="svg_81" d="m5024,8420c-76,-30 -114,-177 -83,-321c16,-74 52,-110 116,-116c84,-8 136,27 154,104l7,33l-53,0c-51,0 -54,-1 -57,-27c-4,-34 -36,-43 -55,-17c-16,22 -18,209 -3,249c13,35 52,31 60,-5c5,-22 12,-25 57,-28l51,-3l-7,33c-5,19 -13,44 -20,57c-23,41 -112,64 -167,41z"/>
   <path fill="#000000" id="svg_82" d="m5655,8420c-44,-18 -70,-59 -70,-110c0,-62 22,-92 101,-139c46,-29 60,-42 62,-64c7,-57 -38,-76 -66,-27c-15,27 -22,30 -65,30c-47,0 -47,0 -41,-27c16,-67 62,-103 132,-103c92,0 142,46 142,132c0,64 -25,96 -113,145c-54,30 -72,67 -43,89c23,17 45,8 52,-22c5,-21 12,-24 50,-24c41,0 44,2 44,28c0,74 -104,126 -185,92z"/>
   <path fill="#000000" id="svg_83" d="m3950,8205l0,-215l50,0l50,0l0,85l0,85l43,0c56,0 88,18 109,60c22,42 23,89 4,135c-21,50 -59,65 -166,65l-90,0l0,-215zm154,129c34,-33 10,-104 -35,-104c-17,0 -19,7 -19,60c0,53 2,60 19,60c11,0 27,-7 35,-16z"/>
   <path fill="#000000" id="svg_84" d="m4610,8205l0,-215l88,0c150,0 187,43 187,220c0,88 -3,111 -20,140c-31,52 -75,70 -172,70l-83,0l0,-215zm160,116c5,-11 10,-65 10,-120c0,-88 -3,-104 -20,-121c-11,-11 -27,-20 -35,-20c-13,0 -15,22 -15,140l0,140l25,0c14,0 29,-8 35,-19z"/>
   <path fill="#000000" id="svg_85" d="m5320,8416c0,-2 -18,-96 -40,-208c-22,-111 -40,-206 -40,-210c0,-5 22,-8 49,-8l49,0l6,45c7,44 8,45 45,45c41,0 51,-13 51,-67c0,-21 5,-23 55,-23l55,0l-7,33c-4,17 -23,113 -43,212l-36,180l-72,3c-40,2 -72,1 -72,-2zm93,-248c-3,-5 -13,-8 -25,-8c-19,0 -20,4 -13,73c4,39 10,77 14,82c6,11 30,-135 24,-147z"/>
   <path fill="#000000" id="svg_86" d="m5870,8380l0,-40l45,0l45,0l0,-175l0,-175l50,0l50,0l0,175l0,175l40,0l40,0l0,40l0,40l-135,0l-135,0l0,-40z"/>
   <path fill="#000000" id="svg_87" d="m8220,8305l0,-115l-110,0l-110,0l0,105l0,105l-45,0l-45,0l0,-105l0,-105l-90,0l-90,0l0,110l0,110l-45,0l-45,0l0,-160l0,-160l333,2l332,3l3,154c3,169 2,171 -55,171l-33,0l0,-115z"/>
   <path fill="#000000" id="svg_88" d="m10820,8241l-185,-47l0,-28l0,-29l193,-47c106,-26 194,-44 195,-41c12,25 -3,37 -60,50l-63,15l0,51l0,52l58,13c31,7 60,14 64,16c8,5 -2,44 -11,43c-3,0 -89,-22 -191,-48zm38,-94l-3,-23l-85,20l-85,19l85,22c93,23 96,22 88,-38z"/>
   <path fill="#000000" id="svg_89" d="m6623,8175c-22,-9 -42,-32 -64,-70c-47,-84 -93,-104 -120,-54c-7,14 -5,23 11,39c11,11 25,20 30,20c6,0 10,16 10,35c0,38 -3,40 -48,24c-40,-14 -62,-49 -62,-98c0,-55 17,-87 55,-106c70,-33 120,-10 174,80c31,52 41,60 69,63c18,2 40,-2 48,-9c23,-19 13,-62 -18,-77c-23,-11 -28,-20 -28,-48c0,-38 6,-40 56,-19c23,10 39,26 49,49c50,120 -46,222 -162,171z"/>
   <path fill="#000000" id="svg_90" d="m11830,8060l0,-130l-105,0l-105,0l0,115l0,115l-55,0l-55,0l0,-115l0,-115l-85,0l-85,0l0,120l0,120l-55,0l-55,0l0,-180l0,-180l355,0l355,0l0,180c0,202 9,180 -77,194l-33,6l0,-130z"/>
   <path fill="#000000" id="svg_91" d="m7074,8141c-48,-22 -69,-63 -61,-117c13,-78 57,-99 207,-99c124,0 162,12 194,57c38,54 8,136 -60,164c-52,22 -228,18 -280,-5zm259,-42c84,-23 69,-97 -24,-119c-58,-14 -185,-8 -218,9c-51,28 -50,84 2,106c38,17 186,19 240,4z"/>
   <path fill="#000000" id="svg_92" d="m2641,8113c-31,-16 -57,-49 -103,-132c-23,-41 -60,-58 -94,-43c-20,10 -25,18 -22,44c3,30 13,40 51,52c12,4 17,16 17,46c0,34 -3,40 -21,40c-36,0 -89,-31 -104,-61c-32,-61 -9,-170 42,-197c18,-10 57,-15 105,-13c35,1 84,44 110,95c32,64 67,96 104,96c77,0 89,-99 14,-115c-28,-6 -30,-10 -30,-51c0,-52 11,-55 76,-24c68,34 94,122 60,205c-29,68 -128,96 -205,58z"/>
   <path fill="#000000" id="svg_93" d="m10637,8063c-4,-3 -7,-53 -7,-110c0,-96 1,-103 20,-103c17,0 20,7 20,40l0,40l178,2c169,3 177,4 177,23c0,19 -8,20 -177,23l-178,2l0,45c0,43 -14,58 -33,38z"/>
   <path fill="#000000" id="svg_94" d="m7640,7830l0,-190l45,0l45,0l0,70l0,70l288,2l287,3l3,48l3,47l-290,0l-291,0l0,70l0,70l-45,0l-45,0l0,-190z"/>
   <path fill="#000000" id="svg_95" d="m3050,7930l0,-60l340,0l340,0l0,60l0,60l-340,0l-340,0l0,-60z"/>
   <path fill="#000000" id="svg_96" d="m6380,7865l0,-35l149,0c156,0 194,-7 205,-36c22,-57 -26,-74 -210,-74l-144,0l0,-35l0,-35l153,0c169,0 220,9 243,45c24,37 28,95 10,138c-24,58 -56,67 -246,67l-160,0l0,-35z"/>
   <path fill="#000000" id="svg_97" d="m7074,7860c-41,-16 -54,-49 -54,-132l0,-78l200,0l200,0l0,25c0,25 -1,25 -90,25l-90,0l0,38c0,59 10,66 97,72c74,5 78,6 81,30l3,25l-78,-3c-57,-3 -85,-9 -105,-23c-16,-11 -28,-15 -28,-9c0,14 -62,40 -92,39c-13,0 -33,-4 -44,-9zm109,-72c9,-11 17,-35 17,-54l0,-34l-71,0l-70,0l3,47c2,39 8,50 28,60c31,16 70,9 93,-19z"/>
   <path fill="#000000" id="svg_98" d="m3930,7590l0,-230l30,0l30,0l0,230l0,230l-30,0l-30,0l0,-230z"/>
   <path fill="#000000" id="svg_99" d="m4080,7590l0,-230l26,0l26,0l-4,189c-2,104 -1,187 1,185c2,-2 36,-86 76,-187c70,-180 71,-182 103,-185l32,-3l0,230l0,231l-25,0l-25,0l-2,-177l-3,-177l-70,177l-70,177l-32,0l-33,0l0,-230z"/>
   <path fill="#000000" id="svg_100" d="m4380,7800c0,-18 7,-20 55,-20l55,0l0,-210l0,-210l25,0l25,0l0,210l0,210l50,0c43,0 50,3 50,20c0,19 -7,20 -130,20c-123,0 -130,-1 -130,-20z"/>
   <path fill="#000000" id="svg_101" d="m4690,7590l0,-230l110,0l110,0l0,26c0,25 0,25 -82,23l-83,-2l-3,86l-3,87l81,0c79,0 80,0 80,25c0,25 -1,25 -80,25l-80,0l0,75l0,75l85,0c78,0 85,2 85,20c0,19 -7,20 -110,20l-110,0l0,-230z"/>
   <path fill="#000000" id="svg_102" d="m4970,7590l0,-230l25,0l25,0l0,105l0,105l48,0c26,0 53,-4 60,-8c19,-12 32,-69 32,-139c0,-61 1,-63 26,-63l26,0l-4,95c-3,79 -7,98 -25,117l-22,23l25,28c19,22 24,39 24,83c0,48 -4,60 -29,85c-28,28 -33,29 -120,29l-91,0l0,-230zm170,170c13,-13 20,-33 20,-60c0,-57 -26,-80 -90,-80l-50,0l0,80l0,80l50,0c37,0 55,-5 70,-20z"/>
   <path fill="#000000" id="svg_103" d="m5290,7591l0,-231l27,0l26,0l-6,193c-3,126 -2,185 4,172c5,-11 40,-96 77,-190c67,-168 68,-170 100,-173l32,-3l0,230l0,231l-25,0l-25,0l0,-182l-1,-183l-72,180c-72,178 -73,180 -105,183l-32,3l0,-230z"/>
   <path fill="#000000" id="svg_104" d="m5640,7590l0,-230l110,0l110,0l0,26c0,25 0,25 -82,23l-83,-2l-3,86l-3,86l78,3c70,3 78,5 78,23c0,18 -8,20 -77,23l-78,3l0,74l0,75l80,0c73,0 80,2 80,20c0,19 -7,20 -105,20l-105,0l0,-230z"/>
   <path fill="#000000" id="svg_105" d="m5890,7800c0,-18 7,-20 55,-20l55,0l0,-210l0,-210l25,0l25,0l0,210l0,210l50,0c43,0 50,3 50,20c0,19 -7,20 -130,20c-123,0 -130,-1 -130,-20z"/>
   <path fill="#000000" id="svg_106" d="m10634,7796c-12,-32 6,-36 166,-36c131,0 161,-3 174,-16c17,-17 21,-61 7,-82c-14,-23 -80,-32 -216,-31c-120,1 -130,0 -130,-17c0,-18 11,-19 140,-22c166,-3 199,1 231,33c26,27 33,85 13,128c-21,46 -43,52 -216,55c-140,3 -164,2 -169,-12z"/>
   <path fill="#000000" id="svg_107" d="m2444,7779c-67,-19 -93,-77 -94,-206l0,-73l250,0l250,0l0,40l0,40l-105,0l-105,0l0,38c0,58 22,72 107,72c96,0 103,4 103,52l0,40l-94,-4c-78,-2 -100,-7 -124,-25c-29,-22 -30,-22 -47,-3c-10,11 -34,24 -54,30c-41,11 -45,11 -87,-1zm109,-98c6,-6 11,-30 11,-53l1,-43l-67,-3l-68,-3l0,45c0,35 5,48 23,61c23,17 81,15 100,-4z"/>
   <path fill="#000000" id="svg_108" d="m3431,7763c-18,-9 -41,-29 -50,-44l-17,-28l-28,29c-31,33 -75,45 -147,38c-58,-6 -94,-29 -120,-78c-16,-29 -19,-57 -19,-167l0,-133l340,0l340,0l0,113c0,168 -25,232 -104,268c-52,24 -149,25 -195,2zm174,-128c21,-20 25,-34 25,-80l0,-55l-110,0l-110,0l0,35c0,45 23,100 47,114c10,6 42,11 71,11c43,0 57,-5 77,-25zm-307,-9c8,-8 17,-40 20,-70l4,-56l-92,0l-93,0l6,53c8,70 42,102 100,94c22,-3 47,-12 55,-21z"/>
   <path fill="#000000" id="svg_109" d="m11367,7716c-54,-15 -91,-39 -121,-80c-18,-23 -21,-42 -21,-115c0,-81 2,-90 28,-124c61,-81 177,-112 380,-104c151,6 212,22 261,71c79,80 73,237 -12,308c-30,25 -62,38 -124,52l-28,6l0,-64l0,-64l33,-6c51,-10 79,-41 75,-83c-6,-66 -78,-93 -253,-93c-162,0 -238,25 -259,84c-13,36 18,78 67,90l37,10l0,63c0,35 -3,63 -7,62c-5,0 -30,-6 -56,-13z"/>
   <path fill="#000000" id="svg_110" d="m6453,7599c-48,-14 -73,-52 -73,-111c0,-43 4,-54 30,-78c19,-18 51,-33 84,-41c69,-15 201,-7 243,14c91,48 77,189 -21,216c-40,10 -46,6 -46,-30c0,-24 6,-32 29,-40c34,-12 45,-33 31,-60c-14,-26 -50,-34 -152,-33c-64,1 -94,5 -113,18c-33,22 -30,56 8,74c22,11 27,20 27,48c0,37 0,37 -47,23z"/>
   <path fill="#000000" id="svg_111" d="m7080,7589c-46,-18 -60,-47 -60,-131l0,-78l200,0l200,0l0,25c0,25 -1,25 -85,25l-85,0l0,43c0,56 -18,88 -60,109c-39,20 -72,22 -110,7zm113,-70c9,-12 17,-36 17,-55l0,-34l-75,0l-75,0l0,38c0,20 4,42 8,48c26,38 94,40 125,3z"/>
   <path fill="#000000" id="svg_112" d="m7640,7535l0,-45l237,-2l237,-3l-160,-59c-87,-32 -194,-72 -236,-88l-78,-30l0,-59l0,-59l333,2l332,3l3,42l3,43l-251,2l-252,3l249,90l248,90l0,55l0,55l-332,3l-333,2l0,-45z"/>
   <path fill="#000000" id="svg_113" d="m10695,7531c-44,-18 -57,-46 -59,-123l-1,-73l195,0c188,0 195,1 195,20c0,18 -8,20 -82,23l-83,3l0,32c0,43 -29,99 -60,114c-28,14 -75,16 -105,4zm109,-63c9,-12 16,-37 16,-55l0,-33l-75,0l-75,0l0,33c0,53 24,77 75,77c34,0 47,-5 59,-22z"/>
   <path fill="#000000" id="svg_114" d="m2780,7356l0,-86l-75,0l-75,0l0,81l0,80l-37,-3l-38,-3l-3,-77l-3,-78l-59,0l-60,0l0,80l0,80l-40,0l-41,0l3,-122l3,-123l248,-3l248,-2l-3,127l-3,128l-32,3l-33,3l0,-85z"/>
   <path fill="#000000" id="svg_115" d="m8616,7280c-39,-12 -66,-38 -87,-86c-36,-80 -34,-245 3,-321c7,-15 25,-35 39,-45c33,-25 113,-27 138,-4c22,20 31,20 31,1c0,-11 11,-15 40,-15l40,0l0,135l0,135l-80,0l-80,0l0,-40c0,-36 3,-40 25,-40c22,0 25,-4 25,-38c0,-70 -49,-97 -77,-42c-17,33 -17,217 0,250c16,33 58,34 72,3c8,-20 17,-23 62,-23c29,0 53,4 53,10c0,5 -7,28 -17,51c-25,64 -105,93 -187,69z"/>
   <path fill="#000000" id="svg_116" d="m9263,7279c-73,-22 -109,-115 -101,-262c9,-161 53,-213 176,-205c57,4 68,8 93,36c38,42 49,89 49,207c0,85 -4,108 -22,145c-13,24 -35,52 -49,63c-31,23 -101,30 -146,16zm95,-109c18,-34 13,-240 -7,-263c-19,-24 -48,-21 -62,6c-17,31 -17,235 0,265c16,30 51,26 69,-8z"/>
   <path fill="#000000" id="svg_117" d="m10990,7215l0,-75l-75,0l-75,0l0,65c0,58 -2,65 -20,65c-18,0 -20,-7 -20,-65l0,-65l-65,0l-65,0l0,71c0,62 -2,70 -17,67c-15,-3 -18,-17 -21,-91l-3,-87l198,0l198,0l-3,89c-3,66 -7,91 -18,95c-11,4 -14,-9 -14,-69z"/>
   <path fill="#000000" id="svg_118" d="m3217,7269c-50,-12 -107,-42 -134,-71c-31,-33 -43,-71 -43,-134c0,-146 109,-214 341,-214c184,0 279,30 327,103c23,35 27,51 27,111c-1,86 -19,125 -75,162c-22,15 -66,33 -97,40c-65,15 -286,17 -346,3zm368,-135c76,-39 65,-112 -21,-143c-59,-22 -316,-21 -366,1c-65,29 -76,99 -22,135c40,26 89,32 235,29c113,-2 142,-6 174,-22z"/>
   <path fill="#000000" id="svg_119" d="m8882,7048l3,-233l125,0l125,0l3,42l3,42l-73,3l-73,3l-3,188l-2,187l-55,0l-55,0l2,-232z"/>
   <path fill="#000000" id="svg_120" d="m9542,7049l3,-234l105,0c121,1 159,16 186,73c23,48 14,117 -19,150l-25,25l21,29c33,45 28,112 -12,152c-31,30 -33,31 -146,35l-115,3l2,-233zm176,139c7,-7 12,-24 12,-38c0,-34 -17,-50 -52,-50c-27,0 -28,2 -28,50c0,48 1,50 28,50c15,0 33,-5 40,-12zm3,-184c7,-9 13,-31 13,-49c0,-43 -19,-65 -55,-65c-29,0 -29,0 -29,65c0,65 0,65 29,65c16,0 35,-7 42,-16z"/>
   <path fill="#000000" id="svg_121" d="m9965,7258c-20,-87 -85,-412 -85,-428c0,-17 7,-20 50,-20c54,0 54,0 65,63c6,36 7,37 49,37l43,0l9,-47c9,-48 9,-48 53,-51c24,-2 49,-1 56,2c10,3 1,59 -34,233l-47,228l-77,3c-73,3 -77,2 -82,-20zm104,-240c1,-13 -7,-18 -25,-18l-27,0l7,63c14,123 19,130 33,47c6,-41 12,-83 12,-92z"/>
   <path fill="#000000" id="svg_122" d="m10254,7267c-2,-7 -3,-111 -2,-232l3,-220l125,0l125,0l3,42l3,42l-73,3l-73,3l-3,188l-2,187l-51,0c-31,0 -51,-5 -55,-13z"/>
   <path fill="#000000" id="svg_123" d="m11383,7220c-113,-23 -163,-84 -163,-201c0,-74 17,-115 63,-156c64,-56 120,-68 317,-68c169,0 177,1 232,27c96,45 138,145 108,258c-20,75 -108,140 -189,140c-19,0 -21,-5 -21,-59c0,-58 1,-60 30,-66c49,-11 80,-42 80,-80c0,-72 -88,-100 -294,-93c-150,5 -196,19 -217,70c-18,43 3,78 59,98l42,14l0,63c0,35 -1,63 -2,62c-2,-1 -22,-5 -45,-9z"/>
   <path fill="#000000" id="svg_124" d="m4111,7177c-50,-19 -111,-75 -132,-121c-25,-56 -25,-176 0,-231c25,-55 83,-105 187,-159c136,-71 164,-101 164,-179c0,-67 -21,-104 -69,-118c-75,-22 -145,25 -158,106l-6,35l-84,0l-85,0l6,-37c31,-173 135,-254 311,-240c119,9 190,53 231,142c31,65 33,189 5,250c-24,54 -103,123 -187,165c-110,54 -151,86 -164,124c-26,79 17,146 92,146c49,0 85,-36 94,-92l7,-38l84,0c75,0 84,2 80,18c-3,9 -8,35 -12,57c-10,62 -50,121 -102,152c-40,23 -60,28 -138,30c-55,2 -103,-2 -124,-10z"/>
   <path fill="#000000" id="svg_125" d="m4780,7169c-130,-59 -183,-190 -183,-449c-1,-266 48,-399 168,-463c54,-30 202,-31 255,-3c118,62 165,168 177,401c13,272 -44,447 -168,509c-69,34 -180,36 -249,5zm184,-146c46,-46 61,-118 60,-303c0,-101 -5,-188 -13,-225c-32,-143 -156,-170 -210,-45c-45,104 -48,412 -5,519c32,82 114,108 168,54z"/>
   <path fill="#000000" id="svg_126" d="m5518,7180c-82,-24 -141,-91 -179,-201c-19,-54 -23,-91 -27,-235c-3,-107 0,-198 8,-242c15,-92 58,-182 104,-217c97,-74 265,-72 358,5c43,36 84,116 94,183l6,48l-82,-3l-83,-3l-12,-50c-20,-79 -85,-117 -146,-85c-57,31 -84,162 -76,379c7,221 37,291 124,291c61,0 91,-29 102,-100l6,-35l84,-3l84,-3l-6,46c-15,108 -82,198 -166,223c-43,14 -152,14 -193,2z"/>
   <path fill="#000000" id="svg_127" d="m5990,6715l0,-465l80,0l80,0l0,465l0,465l-80,0l-80,0l0,-465z"/>
   <path fill="#000000" id="svg_128" d="m6455,7158c-47,-195 -205,-885 -205,-895c0,-10 21,-13 80,-13c74,0 80,1 85,23c3,12 13,63 23,112l18,90l109,0l109,0l18,-90c10,-49 20,-100 23,-112c5,-22 10,-23 90,-23c47,0 85,4 85,9c0,5 -45,199 -99,432c-54,233 -102,439 -106,457l-7,32l-109,0c-104,0 -109,-1 -114,-22zm150,-334c19,-99 35,-183 35,-187c0,-4 -34,-7 -76,-7l-76,0l5,28c3,15 20,103 38,195c19,93 35,165 36,160c1,-4 18,-89 38,-189z"/>
   <path fill="#000000" id="svg_129" d="m6980,6715l0,-465l235,0l235,0l0,24c0,13 3,44 6,70l7,46l-162,0l-161,0l0,395l0,395l-80,0l-80,0l0,-465z"/>
   <path fill="#000000" id="svg_130" d="m2357,7093c-4,-3 -7,-30 -7,-60c0,-65 -9,-60 195,-98l150,-29l-157,-27c-87,-14 -164,-29 -173,-32c-11,-5 -15,-22 -15,-67l0,-60l250,0l250,0l0,41l0,42l-200,-5c-111,-3 -199,-4 -198,-2c3,2 380,64 393,64c3,0 5,18 5,39c0,29 -5,41 -17,45c-10,3 -99,19 -198,36c-99,18 -182,34 -184,36c-2,2 86,4 197,4l202,0l0,40l0,40l-243,0c-134,0 -247,-3 -250,-7z"/>
   <path fill="#000000" id="svg_131" d="m7860,7089c-106,-13 -178,-50 -207,-109c-38,-75 -26,-167 28,-217c13,-12 47,-32 74,-45c46,-21 64,-23 210,-23c169,0 217,8 275,48c50,33 73,79 73,146c0,132 -87,192 -298,204c-44,3 -114,1 -155,-4zm262,-110c57,-13 108,-54 108,-87c0,-33 -37,-69 -87,-83c-30,-9 -97,-14 -178,-14c-181,0 -245,26 -245,98c0,38 31,68 85,82c62,17 246,19 317,4z"/>
   <path fill="#000000" id="svg_132" d="m10709,7032c-15,-2 -37,-14 -50,-28c-19,-21 -23,-35 -23,-97l-1,-72l195,0c188,0 195,1 195,20c0,18 -8,20 -94,23l-93,3l5,36c9,54 27,66 108,72c60,5 73,9 75,24c2,17 -4,19 -81,15c-61,-2 -88,-8 -102,-21c-19,-16 -21,-16 -37,2c-18,20 -53,28 -97,23zm81,-62c12,-12 20,-33 20,-55l0,-35l-70,0l-70,0l0,37c0,20 7,45 17,55c22,24 77,24 103,-2z"/>
   <path fill="#000000" id="svg_133" d="m3052,6663l3,-88l230,-44l230,-45l-225,-38c-124,-20 -228,-38 -232,-38c-5,0 -8,-40 -8,-90l0,-90l341,0l340,0l-3,53l-3,52l-285,-1c-157,-1 -274,1 -260,3c14,2 142,23 285,46l260,43l0,54l0,54l-45,9c-25,5 -151,29 -280,52l-235,43l283,1l282,1l0,55l0,55l-340,0l-341,0l3,-87z"/>
   <path fill="#000000" id="svg_134" d="m11560,6661l-325,-77l-3,-85l-3,-84l343,-79c189,-43 348,-79 353,-80c6,0 11,27 13,61l3,61l-50,11c-28,6 -69,14 -91,17l-40,7l0,83l0,83l58,11c126,25 117,19 120,88l3,62l-28,-1c-15,-1 -174,-36 -353,-78zm90,-166c0,-38 -4,-55 -12,-54c-7,0 -76,13 -152,28l-140,28l125,25c68,14 136,26 152,27c26,1 27,0 27,-54z"/>
   <path fill="#000000" id="svg_135" d="m2490,6636c-30,-6 -65,-18 -78,-25c-59,-32 -81,-135 -42,-199c35,-58 95,-77 235,-77c141,1 200,20 235,77c41,67 17,168 -47,202c-67,34 -203,44 -303,22zm220,-87c104,-22 102,-96 -3,-120c-80,-17 -220,-8 -255,18c-34,25 -39,54 -12,78c36,33 173,45 270,24z"/>
   <path fill="#000000" id="svg_136" d="m7724,6596c-41,-19 -55,-33 -73,-68c-55,-115 -3,-228 124,-267c183,-57 443,-25 508,60c45,61 39,179 -11,233c-32,34 -96,65 -134,66c-26,0 -28,-3 -28,-45c0,-41 3,-47 28,-55c79,-28 108,-67 83,-114c-26,-48 -80,-61 -251,-61c-135,0 -160,3 -195,20c-46,23 -64,60 -49,103c7,20 20,31 57,42l47,15l0,48c0,45 -1,47 -27,47c-16,0 -51,-11 -79,-24z"/>
   <path fill="#000000" id="svg_137" d="m8825,6611c-55,-24 -85,-92 -85,-194c0,-136 41,-197 132,-197c41,0 54,5 78,28c68,68 64,280 -7,344c-22,20 -90,31 -118,19zm91,-86c8,-20 14,-67 14,-110c0,-101 -18,-145 -59,-145c-49,0 -64,41 -59,160c3,108 14,130 60,130c24,0 32,-6 44,-35z"/>
   <path fill="#000000" id="svg_138" d="m9613,6613c-30,-6 -70,-55 -83,-101c-13,-48 -13,-147 1,-196c6,-22 24,-52 39,-68c24,-23 37,-28 80,-28c43,0 56,5 80,28c68,69 64,280 -6,344c-21,18 -76,29 -111,21zm78,-69c21,-25 25,-191 6,-237c-14,-31 -21,-37 -46,-37c-49,0 -64,41 -59,160c2,63 8,103 17,113c17,22 65,22 82,1z"/>
   <path fill="#000000" id="svg_139" d="m10864,6606c-57,-25 -80,-87 -52,-139c14,-28 31,-41 90,-72c53,-28 73,-56 64,-91c-14,-53 -86,-53 -106,1c-7,19 -17,25 -40,25c-34,0 -38,-15 -15,-60c20,-40 43,-50 110,-50c49,0 60,4 86,29c23,24 29,38 29,74c0,55 -25,89 -91,122c-27,14 -56,36 -65,50c-15,23 -15,27 0,50c9,14 25,25 35,25c20,0 51,-30 51,-48c0,-7 14,-12 30,-12c24,0 30,4 30,21c0,33 -19,60 -55,75c-42,17 -61,17 -101,0z"/>
   <path fill="#000000" id="svg_140" d="m8500,6415l0,-195l30,0l29,0l3,88l3,87l62,0c62,0 63,0 63,28c0,27 -1,27 -65,27l-65,0l0,55l0,55l70,0c68,0 70,1 70,25l0,25l-100,0l-100,0l0,-195z"/>
   <path fill="#000000" id="svg_141" d="m9060,6415l0,-195l100,0l100,0l0,25c0,24 -2,25 -70,25l-70,0l0,170l0,170l-30,0l-30,0l0,-195z"/>
   <path fill="#000000" id="svg_142" d="m9300,6415l0,-195l99,0c97,0 99,0 103,25c5,24 4,24 -66,27c-48,2 -71,7 -72,16c-1,6 -2,82 -3,167l-1,155l-30,0l-30,0l0,-195z"/>
   <path fill="#000000" id="svg_143" d="m9810,6598c1,-7 18,-94 38,-193l37,-180l32,-3l31,-3l16,73c9,40 23,102 30,138c8,36 15,63 16,60c1,-3 14,-63 29,-135l27,-130l31,-3c37,-4 29,-26 83,220l37,168l-34,0c-18,0 -33,-3 -33,-7c-1,-37 -49,-274 -53,-263c-3,8 -13,56 -22,105c-29,157 -32,165 -64,165l-28,0l-29,-140c-16,-77 -31,-132 -35,-122c-3,9 -14,72 -24,140l-18,122l-34,0c-20,0 -33,-5 -33,-12z"/>
   <path fill="#000000" id="svg_144" d="m10260,6415l0,-195l99,0c81,0 100,3 105,16c12,31 5,34 -69,34l-75,0l0,65l0,65l65,0c63,0 65,1 65,25c0,24 -2,25 -65,25l-65,0l0,55l0,55l70,0c68,0 70,1 70,25l0,25l-100,0l-100,0l0,-195z"/>
   <path fill="#000000" id="svg_145" d="m10520,6415l0,-195l30,0l30,0l0,85l0,85l33,0c53,0 61,-12 67,-92c5,-73 5,-73 35,-76l31,-3l-4,73c-2,51 -9,81 -22,99c-19,26 -19,27 0,44c26,24 35,78 20,116c-18,43 -56,59 -145,59l-75,0l0,-195zm148,133c17,-17 15,-74 -4,-92c-8,-9 -31,-16 -50,-16l-34,0l0,60l0,60l38,0c21,0 43,-5 50,-12z"/>
   <path fill="#000000" id="svg_146" d="m2352,6163l3,-148l38,-3l37,-3l0,55l0,56l210,0l210,0l0,45l0,45l-210,0l-210,0l0,50l0,50l-40,0l-41,0l3,-147z"/>
   <path fill="#000000" id="svg_147" d="m3040,5825l0,-227l89,4c103,4 133,19 166,84c16,32 20,59 20,144c0,87 -3,111 -20,139c-35,60 -63,73 -164,79l-91,5l0,-228zm159,138c45,-37 47,-232 4,-274c-10,-10 -31,-19 -48,-21l-30,-3l-3,158l-3,157l30,0c16,0 38,-8 50,-17z"/>
   <path fill="#000000" id="svg_148" d="m3390,5825l0,-225l40,0l40,0l0,225l0,225l-40,0l-40,0l0,-225z"/>
   <path fill="#000000" id="svg_149" d="m3622,6030c-53,-33 -75,-95 -75,-215c0,-80 4,-110 20,-147c34,-74 104,-99 171,-58c26,16 32,17 32,5c0,-10 10,-15 30,-15l30,0l0,125l0,125l-70,0l-70,0l0,-35c0,-33 2,-35 31,-35c31,0 32,0 27,-45c-6,-53 -22,-75 -53,-75c-45,0 -60,33 -63,144c-4,125 13,169 66,174c29,3 35,0 45,-27c10,-27 16,-31 49,-31c28,0 38,4 38,16c0,31 -33,85 -61,99c-40,21 -108,19 -147,-5z"/>
   <path fill="#000000" id="svg_150" d="m3910,5825l0,-225l40,0l40,0l0,225l0,225l-40,0l-40,0l0,-225z"/>
   <path fill="#000000" id="svg_151" d="m4040,6016c0,-35 1,-35 48,-38l47,-3l3,-187l2,-188l40,0l40,0l0,190l0,190l51,0l50,0l-3,33l-3,32l-137,3l-138,3l0,-35z"/>
   <path fill="#000000" id="svg_152" d="m4400,6047c0,-2 -22,-99 -50,-215c-27,-116 -50,-216 -50,-222c0,-5 17,-10 39,-10c37,0 39,2 45,38c13,72 13,72 70,72l53,0l9,-52l9,-53l43,-3l43,-3l-6,33c-4,18 -27,119 -53,223l-47,190l-52,3c-29,2 -53,1 -53,-1zm90,-259c0,-5 -16,-8 -35,-8c-40,0 -40,2 -25,82c22,108 22,108 41,18c10,-47 18,-88 19,-92z"/>
   <path fill="#000000" id="svg_153" d="m4660,5825l0,-225l114,0l114,0l4,30c3,17 2,32 0,35c-3,3 -38,5 -79,5l-73,0l0,190l0,190l-40,0l-40,0l0,-225z"/>
   <path fill="#000000" id="svg_154" d="m5100,6006c-101,-32 -80,-186 29,-216c48,-13 176,-13 225,1c77,21 110,91 69,149c-12,17 -13,25 -5,28c7,2 12,15 12,28l0,25l-107,-3l-108,-3l-3,-57l-3,-58l31,0c27,0 30,3 30,31c0,31 1,31 38,25c63,-12 72,-16 78,-43c9,-35 -21,-60 -82,-69c-64,-9 -160,1 -190,21c-34,22 -30,65 9,83c18,9 27,21 27,37c0,32 -8,35 -50,21z"/>
   <path fill="#000000" id="svg_155" d="m9295,5961l-180,-48l-3,-41c-3,-40 -2,-41 35,-51c82,-22 322,-81 327,-81c4,0 6,13 6,29c0,31 -4,33 -67,46c-32,6 -33,8 -33,55l0,48l50,12c48,11 50,13 50,46c0,19 -1,34 -2,33c-2,-1 -84,-22 -183,-48zm35,-91c0,-16 -5,-30 -11,-30c-28,0 -139,24 -139,30c0,8 81,27 123,29c24,1 27,-3 27,-29z"/>
   <path fill="#000000" id="svg_156" d="m2640,5972c-22,-12 -47,-39 -67,-73c-48,-81 -72,-109 -97,-109c-36,0 -58,22 -54,54c3,28 14,39 51,50c12,4 17,16 17,46c0,34 -3,40 -21,40c-36,0 -89,-31 -104,-61c-32,-61 -9,-170 42,-197c19,-11 61,-16 105,-14c35,2 84,45 110,96c32,64 67,96 104,96c80,0 87,-96 8,-116c-21,-5 -24,-12 -24,-51l0,-45l33,7c78,17 117,66 117,147c0,117 -115,185 -220,130z"/>
   <path fill="#000000" id="svg_157" d="m5600,5500l0,-490l81,0l82,0l-5,418c-3,229 -4,413 -2,407c2,-5 28,-165 59,-355c30,-190 60,-373 66,-407l11,-63l78,0c66,0 79,3 84,18c8,26 71,361 111,592c19,112 36,205 38,206c2,2 1,-181 -1,-406l-5,-410l87,0l86,0l0,490l0,490l-129,0l-129,0l-61,-312c-34,-172 -61,-321 -61,-330c0,-10 -3,-18 -8,-18c-4,0 -18,66 -30,148c-13,81 -37,228 -55,327l-32,180l-132,3l-133,3l0,-491z"/>
   <path fill="#000000" id="svg_158" d="m6540,5500l0,-490l254,0c288,0 260,-10 272,93l6,57l-176,0l-176,0l0,145l0,145l158,0l157,0l-2,72l-1,73l-156,3l-156,3l0,119l0,120l165,0l165,0l0,75l0,75l-255,0l-255,0l0,-490z"/>
   <path fill="#000000" id="svg_159" d="m7180,5499l0,-491l183,4c206,3 240,13 309,83c77,78 107,176 115,371c9,219 -22,347 -105,436c-71,76 -116,88 -327,88l-175,0l0,-491zm294,342c52,-13 93,-55 112,-116c37,-121 26,-393 -19,-484c-31,-64 -64,-84 -142,-89l-65,-4l0,351l0,351l38,0c20,0 54,-5 76,-9z"/>
   <path fill="#000000" id="svg_160" d="m7930,5500l0,-490l90,0l90,0l0,490l0,490l-90,0l-90,0l0,-490z"/>
   <path fill="#000000" id="svg_161" d="m8401,5858c-17,-73 -69,-294 -114,-490l-83,-358l87,0c100,0 89,-12 114,120c9,47 19,93 21,103c5,15 19,17 119,17l113,0l12,-52c6,-29 16,-83 22,-120l12,-68l93,0c51,0 93,3 93,8c-1,4 -51,223 -113,487l-113,480l-116,3l-116,3l-31,-133zm146,-446c-44,-2 -81,-2 -82,0c-2,2 12,77 30,168c18,91 36,183 40,205c7,36 12,18 49,-165l42,-205l-79,-3z"/>
   <path fill="#000000" id="svg_162" d="m9735,5950c-31,-12 -64,-53 -75,-91c-17,-57 -12,-179 9,-225c30,-67 116,-93 196,-60c34,15 57,42 70,84c6,20 3,22 -38,22c-39,0 -46,-3 -51,-24c-12,-47 -79,-45 -97,2c-17,44 -13,190 6,218c23,35 74,30 93,-8c11,-24 19,-28 53,-28c21,0 39,5 39,10c0,29 -32,80 -59,94c-32,17 -113,20 -146,6z"/>
   <path fill="#000000" id="svg_163" d="m10053,5940c-46,-28 -66,-73 -70,-160c-4,-90 18,-163 59,-193c39,-29 123,-34 167,-9c55,30 76,81 75,182c0,101 -18,151 -66,180c-44,26 -122,27 -165,0zm134,-77c21,-53 14,-194 -12,-223c-23,-26 -57,-26 -81,1c-15,17 -20,40 -22,109c-5,113 11,150 64,150c31,0 37,-4 51,-37z"/>
   <path fill="#000000" id="svg_164" d="m10357,5953c-4,-3 -7,-91 -7,-195l0,-188l40,0l40,0l1,153l1,152l31,-153l31,-153l40,3l40,3l28,125c15,69 28,133 28,142c0,9 3,19 8,21c4,3 5,-62 4,-144l-4,-149l41,0l41,0l0,195l0,195l-59,0l-59,0l-28,-117c-15,-65 -30,-124 -34,-131c-3,-7 -14,29 -24,80c-9,51 -22,110 -27,131l-10,37l-58,0c-32,0 -61,-3 -64,-7z"/>
   <path fill="#000000" id="svg_165" d="m10810,5765l0,-195l35,0l35,0l1,158l1,157l32,-155l32,-155l40,-3l40,-3l28,133c42,200 44,201 45,26l1,-158l40,0l40,0l-2,193l-3,192l-60,3l-61,3l-28,-118c-15,-65 -30,-125 -33,-133c-3,-8 -17,44 -32,115l-26,130l-62,3l-63,3l0,-196z"/>
   <path fill="#000000" id="svg_166" d="m11260,5765l0,-195l119,0c99,0 120,3 125,16c16,40 9,44 -79,44l-85,0l0,55l0,55l75,0l75,0l0,30l0,30l-76,0l-75,0l3,48l3,47l78,3l77,3l0,29l0,30l-120,0l-120,0l0,-195z"/>
   <path fill="#000000" id="svg_167" d="m11560,5765l0,-195l40,0l39,0l3,132l3,131l56,-129l56,-129l46,-3l47,-3l0,195l0,196l-35,0l-34,0l-3,-131l-3,-131l-59,131l-59,131l-48,0l-49,0l0,-195z"/>
   <path fill="#000000" id="svg_168" d="m11900,5931c0,-28 2,-30 48,-33l47,-3l3,-162l2,-163l40,0l40,0l2,163l3,162l48,3c45,3 47,5 47,33l0,29l-140,0l-140,0l0,-29z"/>
   <path fill="#000000" id="svg_169" d="m12275,5948c-54,-29 -73,-104 -37,-148c10,-12 49,-38 87,-58c81,-43 94,-60 77,-96c-9,-20 -19,-26 -45,-26c-33,0 -67,24 -67,48c0,7 -16,12 -40,12c-35,0 -40,-3 -40,-24c0,-34 34,-73 77,-87c44,-14 126,-6 160,16c35,24 55,75 43,115c-14,47 -28,60 -106,96c-72,32 -89,52 -79,85c13,40 81,35 91,-7c5,-20 12,-24 45,-24c33,0 39,3 39,21c0,31 -17,57 -50,74c-34,17 -126,19 -155,3z"/>
   <path fill="#000000" id="svg_170" d="m9110,5645l0,-115l25,0c23,0 25,4 25,40l0,40l160,0l160,0l0,30l0,29l-157,3l-158,3l-3,43c-3,37 -6,42 -28,42l-24,0l0,-115z"/>
   <path fill="#000000" id="svg_171" d="m5131,5719c-52,-16 -79,-38 -91,-74c-19,-58 5,-111 63,-142c41,-21 152,-28 220,-13c77,16 108,43 113,100c10,93 -41,131 -179,136c-51,2 -107,-1 -126,-7zm223,-68c34,-14 43,-48 18,-73c-35,-35 -228,-41 -267,-8c-20,16 -19,54 1,70c34,29 183,35 248,11z"/>
   <path fill="#000000" id="svg_172" d="m2352,5598l3,-43l202,-5c139,-3 206,-9 214,-17c7,-7 12,-26 12,-43c0,-17 -5,-36 -12,-43c-8,-8 -75,-14 -214,-17l-202,-5l-3,-42l-3,-43l203,0c173,0 208,3 238,18c87,43 95,202 14,257c-26,18 -50,20 -242,23l-213,3l3,-43z"/>
   <path fill="#000000" id="svg_173" d="m9283,5502l-173,-45l0,-41l0,-41l185,-46l185,-46l0,32c0,31 -2,33 -47,42l-48,8l0,50l0,49l45,11c41,10 45,14 48,43c2,22 -1,32 -10,31c-7,-1 -91,-22 -185,-47zm47,-88c0,-33 -2,-36 -22,-30c-13,3 -50,11 -83,18l-60,12l70,17c97,24 95,24 95,-17z"/>
   <path fill="#000000" id="svg_174" d="m5380,5401l0,-71l-170,0l-170,0l0,-30l0,-30l195,0l196,0l-3,98c-3,92 -4,97 -25,100c-22,3 -23,0 -23,-67z"/>
   <path fill="#000000" id="svg_175" d="m9719,5435c-44,-24 -63,-78 -67,-189c-6,-161 23,-223 111,-233c54,-6 100,15 122,57c24,47 20,70 -13,70c-22,0 -31,-7 -43,-32c-11,-26 -21,-34 -47,-36c-29,-3 -34,1 -47,32c-10,22 -15,69 -15,126c0,57 5,104 15,126c13,31 18,35 47,32c26,-2 36,-10 47,-35c12,-26 21,-33 43,-33c25,0 28,4 28,31c0,22 -10,41 -34,65c-28,28 -41,34 -77,34c-24,-1 -56,-7 -70,-15z"/>
   <path fill="#000000" id="svg_176" d="m9960,5235l0,-215l105,0c105,0 105,0 105,25c0,23 -3,24 -72,27l-73,3l-3,188l-2,187l-30,0l-30,0l0,-215z"/>
   <path fill="#000000" id="svg_177" d="m10245,5417c-41,-41 -55,-89 -55,-187c0,-98 15,-147 56,-188c32,-32 38,-34 84,-30c95,9 125,59 125,213c0,166 -35,225 -135,225c-34,0 -48,-6 -75,-33zm121,-48c28,-31 33,-209 7,-259c-22,-43 -60,-51 -89,-19c-17,18 -19,36 -19,139c0,102 3,121 19,139c24,27 58,27 82,0z"/>
   <path fill="#000000" id="svg_178" d="m10520,5280c0,-191 9,-228 59,-254c37,-20 91,-20 135,-2c56,23 67,70 64,261l-3,160l-32,3l-33,3l0,-168c0,-187 -7,-213 -58,-213c-55,0 -57,5 -62,197l-5,178l-32,3l-33,3l0,-171z"/>
   <path fill="#000000" id="svg_179" d="m10850,5236l0,-216l75,0c97,0 130,16 158,78c30,65 31,209 2,266c-30,60 -58,75 -153,83l-82,6l0,-217zm155,130c40,-40 46,-187 9,-257c-13,-25 -39,-39 -76,-39c-16,0 -18,14 -18,160l0,160l30,0c19,0 40,-9 55,-24z"/>
   <path fill="#000000" id="svg_180" d="m3103,5418c-13,-6 -33,-31 -45,-57c-18,-37 -22,-63 -22,-141c0,-149 25,-198 107,-207c38,-5 48,-1 76,23c17,17 34,44 37,62c6,31 5,34 -17,30c-15,-2 -25,-12 -29,-28c-7,-28 -49,-56 -73,-47c-39,15 -52,57 -52,167c0,85 4,111 18,133c34,53 88,49 107,-8c13,-40 50,-51 50,-15c0,29 -27,78 -49,90c-25,13 -79,12 -108,-2z"/>
   <path fill="#000000" id="svg_181" d="m3360,5402c-36,-36 -50,-87 -50,-182c0,-95 14,-146 51,-183c27,-26 35,-29 75,-24c25,2 54,13 65,22c43,39 64,206 38,299c-26,92 -119,128 -179,68zm122,-52c13,-26 18,-59 18,-128c0,-108 -16,-158 -53,-167c-64,-17 -91,42 -86,186c5,116 22,152 72,147c25,-2 36,-11 49,-38z"/>
   <path fill="#000000" id="svg_182" d="m3620,5226c0,-199 1,-206 20,-206c19,0 20,7 21,163l0,162l63,-160c62,-157 64,-160 95,-163l31,-3l-2,203c-3,195 -4,203 -23,203c-19,0 -20,-7 -20,-158c0,-86 -2,-157 -5,-157c-3,0 -33,71 -66,158c-56,144 -63,157 -88,160l-26,3l0,-205z"/>
   <path fill="#000000" id="svg_183" d="m3887,5423c-19,-19 -4,-32 41,-35l47,-3l0,-182c0,-183 0,-183 22,-183c22,0 23,1 25,183l3,182l43,3c34,3 42,7 42,23c0,18 -8,19 -108,19c-60,0 -112,-3 -115,-7z"/>
   <path fill="#000000" id="svg_184" d="m4160,5225l0,-205l95,0c88,0 95,1 95,20c0,18 -7,20 -75,20l-75,0l0,75l0,74l67,3c55,2 68,6 71,21c3,15 -5,17 -67,17l-71,0l0,70l0,70l70,0c63,0 70,2 70,20c0,19 -7,20 -90,20l-90,0l0,-205z"/>
   <path fill="#000000" id="svg_185" d="m4407,5423c-4,-3 -7,-96 -7,-205c0,-191 1,-198 20,-198c19,0 20,8 22,167l3,167l65,-165c61,-152 68,-164 93,-167l27,-3l0,205c0,198 -1,206 -20,206c-18,0 -20,-8 -22,-162l-3,-162l-64,162c-56,140 -67,162 -86,162c-12,0 -25,-3 -28,-7z"/>
   <path fill="#000000" id="svg_186" d="m4670,5410c0,-17 7,-20 45,-20l45,0l0,-185l0,-185l25,0l25,0l0,185l0,185l45,0c38,0 45,3 45,20c0,19 -7,20 -115,20c-108,0 -115,-1 -115,-20z"/>
   <path fill="#000000" id="svg_187" d="m2414,5261c-47,-29 -64,-59 -64,-116c0,-89 46,-133 161,-155c120,-23 255,-4 307,44c67,62 52,185 -29,226c-21,11 -48,20 -59,20c-19,0 -21,-5 -18,-42c2,-36 7,-44 26,-46c12,-2 30,-14 38,-28c15,-22 15,-26 0,-49c-20,-31 -65,-40 -186,-39c-108,1 -145,13 -162,49c-9,20 -8,28 6,44c10,11 28,22 42,25c20,5 24,12 24,46c0,37 -2,40 -27,40c-16,0 -42,-9 -59,-19z"/>
   <path fill="#000000" id="svg_188" d="m9196,5246c-69,-26 -81,-45 -85,-141l-3,-85l186,0l186,0l0,70c0,86 -16,121 -67,145c-50,24 -166,30 -217,11zm213,-80c13,-12 21,-31 21,-53l0,-33l-135,0l-135,0l0,33c0,63 29,78 141,75c69,-2 91,-7 108,-22z"/>
   <path fill="#000000" id="svg_189" d="m5265,5208c-11,-6 -25,-17 -32,-25c-11,-14 -14,-14 -28,0c-37,38 -111,33 -145,-10c-16,-21 -20,-40 -20,-104l0,-79l195,0l195,0l0,83c0,87 -11,112 -57,136c-27,14 -82,14 -108,-1zm99,-61c12,-9 19,-28 20,-53l1,-39l-67,-3l-68,-3l0,40c0,30 6,44 22,55c27,19 68,21 92,3zm-180,-13c9,-8 16,-31 16,-50l0,-34l-55,0l-55,0l0,34c0,40 22,66 55,66c13,0 31,-7 39,-16z"/>
   <path fill="#000000" id="svg_190" d="m5570,4798c-31,-16 -53,-37 -70,-68c-23,-42 -25,-55 -25,-180c0,-119 3,-140 22,-180c13,-25 36,-53 52,-63c41,-24 121,-23 154,3c30,24 37,25 37,5c0,-10 11,-15 35,-15l35,0l0,140l0,140l-85,0l-85,0l0,-35c0,-34 1,-35 41,-35l41,0l-4,-55c-6,-67 -28,-95 -74,-95c-39,0 -69,28 -78,72c-3,17 -6,73 -6,124c0,138 27,194 94,194c25,0 66,-41 66,-66c0,-10 14,-14 45,-14c44,0 45,1 39,28c-19,77 -58,111 -137,119c-41,3 -61,0 -97,-19z"/>
   <path fill="#000000" id="svg_191" d="m7665,4806c-62,-28 -95,-85 -95,-162c0,-90 33,-131 163,-205c99,-56 120,-88 114,-168c-5,-72 -36,-101 -106,-101c-59,0 -87,20 -105,75c-13,36 -18,40 -50,43c-33,3 -36,1 -36,-22c0,-63 58,-139 120,-156c77,-22 170,-1 212,46c67,76 61,223 -13,291c-13,12 -60,41 -103,66c-98,53 -119,80 -118,143c0,36 6,52 26,73c54,54 147,22 162,-56c6,-31 9,-33 46,-33l39,0l-7,38c-8,48 -32,90 -67,115c-34,26 -138,34 -182,13z"/>
   <path fill="#000000" id="svg_192" d="m904,4793c3,-10 26,-117 51,-238c25,-121 48,-228 51,-237c4,-14 16,-18 49,-18l43,0l22,93c11,50 29,131 38,179c9,49 19,88 22,88c3,0 18,-67 34,-148c44,-225 39,-212 91,-212c25,0 45,1 45,3c0,2 25,113 55,246c30,134 55,247 55,252c0,6 -19,9 -42,7l-42,-3l-32,-170c-17,-93 -33,-179 -35,-190c-2,-11 -22,63 -43,165c-21,102 -40,188 -42,192c-3,5 -22,8 -43,8l-38,0l-39,-185c-21,-102 -42,-185 -46,-185c-5,0 -8,10 -8,23c0,12 -12,95 -27,185l-27,162l-49,0c-41,0 -48,-3 -43,-17z"/>
   <path fill="#000000" id="svg_193" d="m1520,4555l0,-255l139,0c135,0 139,1 145,23c13,48 12,49 -94,45l-100,-3l0,83l0,82l90,0l90,0l0,35l0,35l-90,0l-90,0l0,70l0,70l95,0l95,0l0,35l0,35l-140,0l-140,0l0,-255z"/>
   <path fill="#000000" id="svg_194" d="m1877,4803c-4,-3 -7,-118 -7,-255l0,-250l123,4c103,2 126,6 149,23c67,49 77,159 20,218l-31,32l25,28c18,21 24,40 24,73c0,102 -47,134 -197,134c-55,0 -103,-3 -106,-7zm205,-83c18,-23 24,-66 10,-86c-13,-20 -50,-34 -91,-34l-41,0l0,68c0,38 3,72 8,76c15,16 96,-1 114,-24zm10,-210c11,-14 18,-38 18,-65c0,-58 -32,-85 -101,-85l-49,0l0,91l0,91l57,-4c43,-4 61,-10 75,-28z"/>
   <path fill="#000000" id="svg_195" d="m2440,4555l0,-255l41,0l41,0l-4,210c-1,116 0,203 4,193c3,-10 23,-105 44,-210l37,-193l41,0l42,0l37,173c20,94 41,190 46,212c6,28 9,-23 10,-172l1,-213l40,0l40,0l0,255l0,255l-63,0l-63,0l-38,-167c-21,-93 -40,-177 -43,-188c-3,-11 -15,27 -29,94c-12,62 -30,147 -39,187l-16,74l-65,0l-64,0l0,-255z"/>
   <path fill="#000000" id="svg_196" d="m3050,4807c0,-5 -119,-468 -126,-489c-5,-15 1,-18 39,-18l45,0l12,53c22,95 14,88 88,85l66,-3l16,-65l16,-65l46,-3l47,-3l-50,188c-27,103 -57,218 -66,256l-17,67l-58,0c-32,0 -58,-1 -58,-3zm85,-196l22,-96l-45,-3c-24,-2 -46,-1 -49,1c-2,3 6,53 19,111c12,59 25,101 27,94c2,-6 14,-55 26,-107z"/>
   <path fill="#000000" id="svg_197" d="m3350,4555l0,-255l45,0l45,0l0,110l0,110l44,0c72,0 85,-19 94,-128c4,-51 10,-92 15,-92c4,0 22,0 40,0l33,0l-3,88c-5,97 -17,138 -44,153c-17,9 -16,12 13,38c42,37 50,118 18,169c-30,49 -72,62 -195,62l-105,0l0,-255zm212,168c25,-23 24,-87 -2,-113c-15,-15 -33,-20 -70,-20l-50,0l0,75l0,75l52,0c34,0 58,-6 70,-17z"/>
   <path fill="#000000" id="svg_198" d="m3750,4555l0,-255l45,0l45,0l0,88c0,77 3,90 24,117c13,17 26,28 29,25c3,-3 29,-57 59,-120l54,-115l47,0c26,0 47,2 47,5c0,3 -34,73 -74,157l-74,151l73,99l72,98l-45,3c-28,2 -50,-2 -58,-10c-7,-7 -45,-60 -83,-117l-71,-105l0,117l0,117l-45,0l-45,0l0,-255z"/>
   <path fill="#000000" id="svg_199" d="m4140,4555l0,-256l143,3l142,3l3,33l3,32l-100,0l-101,0l0,80l0,80l90,0l90,0l0,35l0,35l-90,0l-90,0l0,70l0,70l95,0l95,0l0,35l0,35l-140,0l-140,0l0,-255z"/>
   <path fill="#000000" id="svg_200" d="m4470,4775l0,-35l60,0l60,0l0,-220l0,-220l45,0l45,0l0,220l0,220l60,0l60,0l0,35l0,35l-165,0l-165,0l0,-35z"/>
   <path fill="#000000" id="svg_201" d="m4860,4556l0,-254l40,-4l40,-4l0,258l0,258l-40,0l-40,0l0,-254z"/>
   <path fill="#000000" id="svg_202" d="m5050,4556l0,-256l41,0l40,0l-3,189c-2,104 -1,187 1,185c3,-2 39,-88 80,-190c42,-102 79,-186 84,-185c4,1 25,1 47,1l40,0l0,255l0,255l-41,0l-42,0l5,-187c3,-108 2,-179 -3,-168c-5,11 -40,94 -78,185l-69,165l-51,3l-51,3l0,-255z"/>
   <path fill="#000000" id="svg_203" d="m8030,4460l0,-350l40,0l40,0l0,170l0,171l111,-3l110,-3l2,-165l2,-165l38,-3l37,-3l0,350l0,351l-41,0l-40,0l3,-145l3,-145l-112,0l-113,0l0,145l0,145l-40,0l-40,0l0,-350z"/>
   <path fill="#000000" id="svg_204" d="m8655,4788c-3,-13 -35,-144 -71,-293c-36,-148 -71,-296 -79,-327l-13,-58l38,0l38,0l22,93c11,50 23,100 26,110c5,16 16,17 97,15l91,-3l25,-107l24,-108l39,0c30,0 38,4 38,18c0,9 -38,166 -83,347l-83,330l-52,3c-47,3 -52,1 -57,-20zm93,-221c18,-83 33,-155 32,-159c0,-5 -31,-8 -70,-8c-38,0 -70,3 -70,8c-1,17 65,312 70,312c3,0 20,-69 38,-153z"/>
   <path fill="#000000" id="svg_205" d="m9010,4460l0,-350l40,0l40,0l0,160l0,160l68,0c112,0 132,-30 132,-197c0,-116 3,-123 49,-123l36,0l-6,133c-7,138 -19,185 -58,209c-17,10 -16,13 15,44c38,39 48,79 42,164c-5,69 -26,103 -78,131c-28,16 -57,19 -157,19l-123,0l0,-350zm230,272c62,-31 76,-141 25,-200c-20,-23 -32,-27 -99,-30l-76,-4l0,126l0,126l58,0c34,0 71,-7 92,-18z"/>
   <path fill="#000000" id="svg_206" d="m9490,4460l0,-350l163,2l162,3l3,33l3,32l-131,0l-131,0l3,133l3,132l118,3l118,3l-3,32l-3,32l-117,3l-118,3l0,109l0,110l125,0l125,0l0,35l0,35l-160,0l-160,0l0,-350z"/>
   <path fill="#000000" id="svg_207" d="m10290,4740l0,-60l-55,0l-55,0l0,50c0,43 -3,50 -20,50c-17,0 -20,-7 -20,-50l0,-50l-45,0l-45,0l0,55c0,52 -1,55 -25,55c-25,0 -25,-1 -25,-85l0,-85l166,2l166,3l0,79c0,72 -2,81 -21,88c-20,7 -21,4 -21,-52z"/>
   <path fill="#000000" id="svg_208" d="m6430,4670l0,-91l-72,3l-73,3l-3,83l-3,83l-27,-3c-26,-3 -27,-5 -32,-83l-5,-80l-60,0l-60,0l0,83l0,82l-32,0l-33,0l0,-120l0,-120l233,0l232,0l-2,122l-2,123l-30,3l-31,3l0,-91z"/>
   <path fill="#000000" id="svg_209" d="m6737,4743c-2,-5 -4,-26 -3,-48l1,-40l240,1c180,0 233,-2 211,-10c-16,-6 -124,-47 -240,-92l-211,-81l0,-59l0,-59l328,-2l327,-3l0,51l0,51l-245,-4c-134,-2 -241,0 -237,3c4,3 79,32 167,64c88,31 195,71 238,87l77,30l0,59l0,59l-324,0c-179,0 -327,-3 -329,-7z"/>
   <path fill="#000000" id="svg_210" d="m10000,4489c0,-98 0,-100 23,-97c18,2 23,10 25,41l3,37l143,0c142,0 143,0 141,23c-2,22 -4,22 -143,25l-142,3l0,34c0,31 -3,35 -25,35l-25,0l0,-101z"/>
   <path fill="#000000" id="svg_211" d="m6430,4376l0,-86l-200,0l-200,0l0,-40l0,-40l231,2l230,3l0,120l1,120l-31,3l-31,3l0,-85z"/>
   <path fill="#000000" id="svg_212" d="m10000,4335l0,-25l165,0l165,0l0,25l0,25l-165,0l-165,0l0,-25z"/>
   <path fill="#000000" id="svg_213" d="m6935,4250c-109,-20 -185,-71 -201,-136c-12,-47 1,-139 24,-172c53,-73 217,-112 394,-92c105,12 189,47 222,92c24,34 33,131 17,181c-16,48 -69,93 -133,112c-63,19 -253,28 -323,15zm327,-125c62,-30 74,-81 30,-124c-21,-22 -45,-31 -99,-41c-89,-16 -264,-9 -315,13c-95,40 -85,130 20,164c60,20 317,12 364,-12z"/>
   <path fill="#000000" id="svg_214" d="m10050,4253c-36,-13 -50,-36 -50,-83c0,-61 28,-90 87,-90c44,0 55,10 106,90c19,29 29,35 56,35c60,0 69,-54 13,-80c-25,-11 -31,-55 -7,-55c54,0 92,54 82,118c-8,48 -38,72 -92,72c-52,0 -85,-24 -110,-79c-18,-42 -49,-59 -80,-47c-25,9 -18,55 10,68c16,7 25,19 25,35c0,23 -10,27 -40,16z"/>
   <path fill="#000000" id="svg_215" d="m1573,4135c-58,-25 -81,-110 -45,-169c9,-16 46,-45 81,-65c75,-42 94,-75 67,-116c-10,-15 -26,-25 -40,-25c-26,0 -56,28 -56,53c0,13 -9,17 -40,17c-45,0 -49,-9 -26,-65c41,-97 210,-84 244,20c23,70 -11,136 -92,177c-59,29 -76,47 -76,80c0,40 41,59 70,33c11,-10 20,-24 20,-32c0,-9 13,-13 40,-13c39,0 40,1 34,28c-20,80 -98,114 -181,77z"/>
   <path fill="#000000" id="svg_216" d="m6304,4141c-12,-5 -30,-21 -41,-35c-21,-26 -21,-26 -34,-5c-30,44 -125,41 -170,-7c-22,-23 -24,-35 -27,-130l-4,-104l229,0c127,0 232,2 234,4c2,2 2,52 -1,110c-5,102 -6,107 -37,137c-25,25 -41,32 -80,35c-26,2 -58,0 -69,-5zm115,-97c13,-17 21,-41 21,-65l0,-39l-80,0l-80,0l0,45c0,58 25,85 79,85c31,0 44,-6 60,-26zm-215,-6c9,-12 16,-39 16,-60l0,-38l-65,0l-65,0l0,42c0,52 22,78 66,78c23,0 38,-7 48,-22z"/>
   <path fill="#000000" id="svg_217" d="m467,3968c18,-95 36,-192 40,-215c6,-43 6,-43 47,-43l42,0l23,123c13,67 26,133 29,147c4,17 13,-16 28,-100c34,-183 28,-170 74,-170c22,0 40,2 40,5c0,3 18,94 40,201c22,108 40,202 40,210c0,18 -66,19 -73,1c-2,-7 -13,-72 -23,-145c-10,-73 -21,-132 -24,-132c-3,0 -16,59 -28,132c-13,72 -26,137 -29,145c-3,7 -20,13 -38,13c-38,0 -31,19 -73,-205c-20,-104 -25,-104 -36,0c-3,28 -11,85 -17,128l-11,77l-43,0l-42,0l34,-172z"/>
   <path fill="#000000" id="svg_218" d="m920,3925l0,-215l109,0c90,0 110,3 115,16c15,39 8,43 -71,46l-78,3l-3,63l-3,62l71,0l70,0l0,35l0,35l-70,0l-70,0l0,50l0,50l75,0l75,0l0,35l0,35l-110,0l-110,0l0,-215z"/>
   <path fill="#000000" id="svg_219" d="m1200,3925l0,-215l85,0c57,0 96,5 115,15c62,32 80,129 35,183l-24,29l21,41c26,55 19,101 -23,136c-28,24 -39,26 -120,26l-89,0l0,-215zm151,145c22,-12 27,-68 7,-88c-7,-7 -29,-12 -50,-12l-38,0l0,55c0,55 0,55 31,55c17,0 39,-5 50,-10zm9,-180c24,-24 27,-82 4,-104c-9,-9 -32,-16 -55,-16l-39,0l0,63c0,35 3,67 7,70c14,14 64,6 83,-13z"/>
   <path fill="#000000" id="svg_220" d="m1820,3925l0,-215l40,0l40,0l0,215l0,215l-40,0l-40,0l0,-215z"/>
   <path fill="#000000" id="svg_221" d="m1940,4105c0,-35 0,-35 45,-35l45,0l0,-180l0,-180l40,0l40,0l0,180l0,180l43,0c53,0 55,2 49,40l-4,30l-129,0l-129,0l0,-35z"/>
   <path fill="#000000" id="svg_222" d="m2250,3925l0,-215l109,0c90,0 110,3 115,16c15,39 8,43 -71,46l-78,3l-3,63l-3,62l71,0l70,0l0,35l0,35l-70,0l-70,0l0,50l0,50l75,0l75,0l0,35l0,35l-110,0l-110,0l0,-215z"/>
   <path fill="#000000" id="svg_223" d="m3098,4033l-3,-88l-60,0l-60,0l-3,78l-3,77l-49,0l-50,0l0,-81l0,-80l-47,3l-48,3l-3,83l-3,82l-49,0l-50,0l0,-140l0,-140l260,0l260,0l0,139l0,139l-31,6c-59,11 -58,12 -61,-81z"/>
   <path fill="#000000" id="svg_224" d="m4935,4106c-70,-32 -99,-97 -99,-226c0,-186 59,-263 182,-238c82,16 117,99 110,262c-4,108 -25,168 -67,193c-33,20 -93,24 -126,9zm97,-63c26,-23 41,-107 36,-198c-6,-96 -22,-134 -62,-154c-25,-12 -31,-11 -55,6c-36,27 -50,74 -50,173c-1,104 12,153 46,180c28,22 54,19 85,-7z"/>
   <path fill="#000000" id="svg_225" d="m3340,3875l0,-235l30,0l30,0l0,188l1,187l77,-188l77,-188l35,3l35,3l0,230l0,230l-27,3l-28,3l0,-183l-1,-183l-76,183l-76,182l-38,0l-39,0l0,-235z"/>
   <path fill="#000000" id="svg_226" d="m3720,3875l0,-235l120,0l120,0l0,25c0,25 -1,25 -90,25l-90,0l0,85l0,84l83,3c76,3 82,5 85,25c3,21 -1,22 -80,25l-83,3l-3,73l-3,72l86,0c84,0 85,0 85,25l0,25l-115,0l-115,0l0,-235z"/>
   <path fill="#000000" id="svg_227" d="m4000,4086c0,-23 4,-25 53,-28l52,-3l3,-207l2,-208l30,0l30,0l0,210l0,210l55,0c52,0 55,1 55,25l0,25l-140,0l-140,0l0,-24z"/>
   <path fill="#000000" id="svg_228" d="m4314,4093c3,-10 23,-108 46,-218c52,-252 46,-235 80,-235c33,0 30,-10 70,175c16,77 33,151 36,165c5,17 16,-22 38,-130c47,-228 41,-212 78,-208l32,3l51,233l52,233l-31,-3c-33,-3 -32,0 -85,-278c-13,-68 -20,-88 -24,-70c-3,14 -21,97 -40,185l-33,160l-30,3l-30,3l-39,-188l-39,-188l-17,90c-9,50 -24,134 -34,188l-17,97l-35,0c-28,0 -33,-3 -29,-17z"/>
   <path fill="#000000" id="svg_229" d="m5210,3875l0,-235l30,0l30,0l0,105l0,105l48,0c26,0 53,-4 60,-8c19,-12 32,-69 32,-139l0,-63l31,0l32,0l-5,95c-5,83 -8,99 -29,122c-17,18 -20,27 -11,30c21,8 42,60 42,105c0,86 -48,118 -175,118l-85,0l0,-235zm180,165c29,-29 27,-84 -5,-115c-18,-19 -35,-25 -70,-25l-45,0l0,80l0,80l50,0c37,0 55,-5 70,-20z"/>
   <path fill="#000000" id="svg_230" d="m5550,3875l0,-235l30,0l30,0l0,86c0,77 3,89 25,116l25,29l57,-115c56,-113 59,-116 90,-116c18,0 33,3 33,8c-1,4 -32,67 -70,141l-68,134l61,81c33,45 65,87 70,94c7,9 1,12 -27,12c-34,0 -39,-5 -113,-111l-78,-111l-3,111l-3,111l-29,0l-30,0l0,-235z"/>
   <path fill="#000000" id="svg_231" d="m9293,3900c-42,-25 -61,-63 -74,-152c-13,-87 0,-200 28,-255c27,-51 75,-75 141,-70c60,4 97,27 127,78c17,29 20,52 20,169c0,121 -2,139 -23,177c-12,24 -35,49 -52,58c-42,22 -128,19 -167,-5zm118,-87c19,-22 20,-248 1,-280c-15,-27 -44,-30 -63,-7c-18,22 -25,205 -10,262c10,34 16,42 35,42c13,0 30,-7 37,-17z"/>
   <path fill="#000000" id="svg_232" d="m11310,3882c-50,-50 -63,-100 -58,-232c4,-121 23,-171 77,-207c65,-44 171,-23 210,41c45,73 51,262 11,352c-26,59 -68,84 -144,84c-54,0 -61,-3 -96,-38zm141,-82c12,-45 10,-233 -4,-260c-17,-34 -52,-38 -68,-8c-18,32 -18,245 -1,276c18,32 63,27 73,-8z"/>
   <path fill="#000000" id="svg_233" d="m8340,3670l0,-240l55,0l55,0l0,240l0,240l-55,0l-55,0l0,-240z"/>
   <path fill="#000000" id="svg_234" d="m8530,3669l0,-240l48,3l47,3l-2,150c-2,83 0,144 3,137c3,-7 25,-74 48,-150l42,-137l62,-3l62,-3l0,241l0,240l-50,0l-50,0l-1,-137l0,-138l-45,138l-45,137l-59,0l-60,0l0,-241z"/>
   <path fill="#000000" id="svg_235" d="m8910,3670l0,-240l55,0l55,0l0,100l0,100l70,0l70,0l0,45l0,45l-70,0l-70,0l0,50l0,50l75,0l75,0l0,45l0,45l-130,0l-130,0l0,-240z"/>
   <path fill="#000000" id="svg_236" d="m9600,3670l0,-240l55,0l55,0l0,95c0,105 8,118 56,97c22,-11 24,-17 24,-79c0,-108 3,-113 65,-113l52,0l-4,93c-4,71 -9,99 -25,120l-20,29l22,23c47,50 34,161 -24,196c-26,16 -50,19 -143,19l-113,0l0,-240zm190,141c26,-49 -4,-106 -52,-99c-21,3 -23,9 -26,61l-3,57l35,0c25,0 38,-6 46,-19z"/>
   <path fill="#000000" id="svg_237" d="m9970,3670l0,-240l52,0l51,0l-7,187c-4,103 -5,185 -2,183c2,-3 14,-87 27,-187l23,-183l47,0l46,0l25,173l26,172l1,-172l1,-173l55,0l55,0l0,240l0,240l-79,0c-92,0 -80,16 -107,-158c-9,-62 -18,-111 -20,-109c-2,1 -11,62 -20,135l-18,132l-78,0l-78,0l0,-240z"/>
   <path fill="#000000" id="svg_238" d="m10497,3888c-11,-44 -87,-437 -87,-447c0,-7 22,-11 55,-11l54,0l7,50l7,50l44,0c46,0 47,-1 58,-62l6,-38l54,0c39,0 55,4 55,13c0,7 -20,114 -45,237c-25,123 -45,225 -45,227c0,2 -36,3 -79,3c-73,0 -79,-2 -84,-22zm97,-166c4,-35 10,-70 13,-78c4,-10 -3,-14 -27,-14c-31,0 -32,1 -26,33c4,17 9,58 13,91c7,69 18,56 27,-32z"/>
   <path fill="#000000" id="svg_239" d="m10730,3865l0,-45l50,0l50,0l0,-195l0,-195l55,0l55,0l0,195l0,195l45,0l45,0l0,45l0,45l-150,0l-150,0l0,-45z"/>
   <path fill="#000000" id="svg_240" d="m11070,3670l0,-240l60,0l60,0l0,240l0,240l-60,0l-60,0l0,-240z"/>
   <path fill="#000000" id="svg_241" d="m11640,3670l0,-240l51,0l52,0l-5,150c-3,83 -3,149 -1,147c1,-2 23,-69 47,-148l44,-144l61,-3l61,-3l0,241l0,240l-51,0l-51,0l4,-139c1,-77 1,-137 -1,-135c-3,2 -23,64 -45,137l-41,132l-63,3l-62,3l0,-241z"/>
   <path fill="#000000" id="svg_242" d="m7670,3878c-63,-32 -93,-92 -86,-167c5,-60 26,-94 76,-128c48,-33 93,-44 205,-50c163,-8 267,20 313,87c32,47 32,153 -1,201c-24,36 -96,79 -134,79c-21,0 -23,-5 -23,-50c0,-40 4,-52 18,-56c54,-16 67,-29 67,-69c0,-37 -3,-42 -40,-60c-34,-17 -60,-20 -165,-20c-138,0 -191,12 -217,51c-21,33 -2,82 36,90c50,11 51,12 51,64c0,48 -1,50 -28,50c-15,0 -48,-10 -72,-22z"/>
   <path fill="#000000" id="svg_243" d="m6030,3735l0,-35l233,0l232,0l0,35l0,35l-232,0l-233,0l0,-35z"/>
   <path fill="#000000" id="svg_244" d="m2672,3698l3,-53l155,2l155,1l-157,-51l-158,-50l0,-64l0,-63l260,0l260,0l0,50l0,50l-162,1l-163,0l65,20c36,11 109,34 163,50l97,30l0,64l0,65l-261,0l-260,0l3,-52z"/>
   <path fill="#000000" id="svg_245" d="m6737,3743c-3,-5 -4,-28 -3,-53l1,-45l328,-3l327,-2l0,55l0,55l-324,0c-179,0 -327,-3 -329,-7z"/>
   <path fill="#000000" id="svg_246" d="m6314,3620c-27,-11 -73,-66 -91,-110c-21,-50 -52,-80 -83,-80c-31,0 -60,27 -60,57c0,23 30,53 53,53c13,0 17,9 17,41c0,41 0,41 -32,35c-103,-19 -128,-183 -38,-244c28,-19 44,-23 78,-19c52,6 85,33 119,102c36,71 60,95 99,95c41,0 64,-23 64,-64c0,-35 -25,-66 -53,-66c-13,0 -17,-9 -17,-40c0,-46 11,-50 65,-24c89,42 86,215 -5,261c-28,14 -85,16 -116,3z"/>
   <path fill="#000000" id="svg_247" d="m6737,3573c-3,-5 -5,-92 -4,-193l2,-185l45,0l45,0l3,68l3,67l279,0l280,0l0,55l0,55l-280,0l-279,0l-3,68l-3,67l-42,3c-22,2 -44,-1 -46,-5z"/>
   <path fill="#000000" id="svg_248" d="m5384,3475c-51,-26 -68,-68 -72,-175c-5,-116 8,-170 49,-204c54,-45 143,-32 179,26c30,49 26,68 -12,68c-26,0 -37,-6 -50,-30c-21,-37 -52,-39 -75,-4c-13,20 -17,48 -17,123c0,102 11,135 45,146c24,8 59,-19 59,-47c0,-14 8,-18 35,-18c32,0 35,2 35,30c0,18 -11,42 -28,61c-34,38 -99,49 -148,24z"/>
   <path fill="#000000" id="svg_249" d="m4210,3280l0,-200l40,0l40,0l0,200l0,200l-40,0l-40,0l0,-200z"/>
   <path fill="#000000" id="svg_250" d="m4360,3280l0,-200l35,0l34,0l3,153l3,152l25,-152l24,-153l36,0l37,0l29,163l29,162l3,-162l2,-163l35,0l35,0l0,200l0,200l-55,0c-48,0 -55,-3 -60,-22c-3,-13 -16,-75 -28,-138l-23,-115l-24,138l-23,137l-59,0l-58,0l0,-200z"/>
   <path fill="#000000" id="svg_251" d="m4760,3280l0,-200l38,0l37,0l-3,80l-4,80l41,0c102,0 156,66 131,161c-17,63 -48,79 -151,79l-89,0l0,-200zm160,121c28,-52 0,-104 -54,-99c-30,3 -31,4 -34,61l-3,57l40,0c30,0 43,-5 51,-19z"/>
   <path fill="#000000" id="svg_252" d="m5086,3463c-10,-32 -86,-363 -86,-373c0,-6 15,-10 34,-10c31,0 35,3 41,33c14,69 13,68 63,65l47,-3l9,-47c9,-47 10,-48 48,-48c21,0 38,3 38,8c0,4 -21,94 -46,200l-46,192l-48,0c-38,0 -50,-4 -54,-17zm70,-135c19,-88 19,-88 -19,-88l-34,0l16,80c8,44 17,78 19,75c2,-2 10,-32 18,-67z"/>
   <path fill="#000000" id="svg_253" d="m5590,3451c0,-28 3,-30 43,-33l42,-3l0,-168l0,-167l38,0l37,0l0,170l0,170l45,0c43,0 45,1 45,30l0,30l-125,0l-125,0l0,-29z"/>
   <path fill="#000000" id="svg_254" d="m7590,3390l0,-50l300,0l300,0l0,50l0,50l-300,0l-300,0l0,-50z"/>
   <path fill="#000000" id="svg_255" d="m2677,3333c-4,-3 -7,-30 -7,-60l0,-53l260,0l260,0l0,60l0,60l-253,0c-140,0 -257,-3 -260,-7z"/>
   <path fill="#000000" id="svg_256" d="m6300,3273c-33,-23 -46,-39 -76,-98c-15,-27 -33,-58 -42,-67c-32,-37 -102,-10 -102,39c0,21 23,46 53,56c12,4 17,17 17,42c0,30 -3,35 -24,35c-35,0 -84,-45 -96,-89c-20,-75 13,-151 76,-171c73,-24 128,7 174,100c34,69 58,90 101,90c46,0 61,-18 57,-67c-2,-32 -8,-40 -35,-53c-28,-13 -33,-20 -33,-54c0,-38 0,-38 33,-32c17,4 46,20 62,36c28,28 30,35 30,106c0,74 -1,76 -37,110c-32,29 -45,34 -86,34c-28,0 -57,-7 -72,-17z"/>
   <path fill="#000000" id="svg_257" d="m7590,3116l0,-156l300,0l300,0l0,55l0,55l-130,0l-130,0l0,95l0,95l-45,0l-45,0l0,-95l0,-95l-75,0l-74,0l-3,98l-3,97l-47,3l-48,3l0,-155z"/>
   <path fill="#000000" id="svg_258" d="m8340,3115c0,-211 15,-245 110,-245c55,0 95,23 109,61c6,18 11,99 11,185l0,154l-25,0l-25,0l0,-164c0,-183 -4,-196 -64,-196c-60,0 -66,17 -66,198l0,162l-25,0l-25,0l0,-155z"/>
   <path fill="#000000" id="svg_259" d="m8659,3241c-60,-60 -31,-126 83,-192c54,-32 70,-74 44,-114c-13,-20 -25,-25 -57,-25c-36,0 -41,3 -55,35c-10,24 -21,35 -35,35c-19,0 -21,-4 -15,-32c10,-50 37,-71 100,-76c51,-4 57,-2 86,26c25,26 30,38 30,79c0,60 -17,82 -95,125c-54,30 -60,37 -63,70c-3,39 17,68 49,68c23,0 59,-34 59,-55c0,-14 31,-21 43,-9c10,10 -14,64 -36,79c-12,8 -41,15 -65,15c-35,0 -49,-6 -73,-29z"/>
   <path fill="#000000" id="svg_260" d="m8902,3073l3,-198l95,0c82,0 95,2 98,18c3,15 -6,17 -72,17l-76,0l0,75l0,74l67,3c55,2 68,6 71,21c3,15 -5,17 -67,17l-71,0l0,65l0,65l70,0c63,0 70,2 70,20c0,19 -7,20 -95,20l-95,0l2,-197z"/>
   <path fill="#000000" id="svg_261" d="m9150,3069l0,-200l23,3c21,3 22,8 25,97l3,94l40,-6c58,-8 69,-21 69,-86c0,-76 8,-101 32,-101c19,0 20,6 17,84c-3,61 -9,89 -21,102c-15,18 -15,20 3,43c13,16 19,39 19,71c0,42 -4,52 -31,74c-27,23 -39,26 -105,26l-74,0l0,-201zm154,139c37,-52 -2,-118 -69,-118l-35,0l0,70l0,70l44,0c35,0 48,-5 60,-22z"/>
   <path fill="#000000" id="svg_262" d="m9463,3255c-12,-8 -27,-31 -33,-50c-17,-51 10,-102 72,-135c68,-37 88,-58 88,-95c0,-49 -19,-67 -65,-63c-34,2 -42,8 -55,35c-11,23 -22,33 -39,33c-20,0 -22,-3 -17,-27c11,-45 60,-83 107,-83c74,0 119,43 119,114c0,37 -38,85 -87,110c-26,13 -56,33 -66,44c-26,29 -19,73 15,92c33,18 56,8 76,-33c14,-29 52,-37 52,-11c0,20 -19,56 -39,71c-22,17 -102,16 -128,-2z"/>
   <path fill="#000000" id="svg_263" d="m10669,3208l-107,-50l-61,41c-84,58 -91,59 -91,23c0,-26 9,-35 88,-83l87,-54l-87,-3c-86,-3 -88,-3 -88,-27l0,-25l190,0l190,0l0,25c0,24 -2,25 -64,25c-48,0 -70,5 -87,19l-24,19l79,36c43,20 82,36 87,36c5,0 9,16 9,35c0,19 -3,35 -7,34c-5,0 -56,-23 -114,-51z"/>
   <path fill="#000000" id="svg_264" d="m9772,3188l3,-63l155,-32c85,-17 157,-32 160,-33c3,-1 -56,-12 -130,-26c-214,-37 -191,-26 -188,-97l3,-62l238,-3l237,-2l0,40l0,40l-182,1l-183,1l183,31l183,31l-3,40l-3,40l-110,22c-60,12 -146,28 -190,37l-80,14l193,2l192,1l0,40l0,40l-240,0l-241,0l3,-62z"/>
   <path fill="#000000" id="svg_265" d="m3095,3170c-2,-3 -3,-39 -3,-80l0,-75l-211,-3l-212,-2l3,-58l3,-57l258,-3l257,-2l0,139l0,139l-46,4c-25,2 -47,1 -49,-2z"/>
   <path fill="#000000" id="svg_266" d="m6820,3128c-66,-34 -90,-76 -90,-157c0,-78 20,-117 78,-156c101,-67 395,-74 506,-12c58,32 79,67 84,137c2,32 2,70 -2,84c-15,59 -103,125 -169,126c-27,0 -28,-1 -25,-46c3,-45 4,-47 48,-63c83,-31 91,-107 14,-146c-31,-16 -64,-21 -169,-23c-190,-6 -264,16 -281,84c-9,36 23,77 69,88c36,9 37,11 37,58c0,46 -1,48 -28,48c-15,0 -48,-10 -72,-22z"/>
   <path fill="#000000" id="svg_267" d="m6430,2870l0,-90l-75,0l-75,0l0,80l0,80l-30,0l-30,0l0,-80l0,-81l-62,3l-63,3l-1,80l-1,80l-32,3l-31,3l0,-126l0,-125l231,2l230,3l0,120c0,106 -2,120 -18,126c-41,17 -43,12 -43,-81z"/>
   <path fill="#000000" id="svg_268" d="m10414,2945c-4,-8 -3,-22 0,-31c6,-15 23,-16 136,-12c72,3 129,3 127,2c-2,-2 -61,-25 -133,-52l-129,-49l0,-34l0,-34l188,-3l187,-2l0,31l0,31l-135,-4c-74,-2 -131,0 -127,3c4,4 64,28 135,54l127,48l0,33l0,34l-185,0c-156,0 -187,-2 -191,-15z"/>
   <path fill="#000000" id="svg_269" d="m7590,2735l0,-155l300,0l300,0l0,55l0,55l-130,0l-130,0l0,95l0,95l-45,0l-45,0l0,-95l0,-95l-75,0l-75,0l0,100l0,100l-50,0l-50,0l0,-155z"/>
   <path fill="#000000" id="svg_270" d="m2670,2760l0,-50l153,-1l152,0l-150,-48l-150,-47l-3,-67l-3,-67l261,0l260,0l0,57l0,56l-167,-5l-168,-6l85,27c47,15 123,38 168,51l82,24l0,63l0,63l-260,0l-260,0l0,-50z"/>
   <path fill="#000000" id="svg_271" d="m9774,2776c-3,-8 -4,-27 -2,-43l3,-28l193,-5c177,-5 195,-7 208,-24c19,-26 18,-49 -3,-75c-17,-20 -29,-21 -208,-23l-190,-3l-3,-42l-3,-43l198,0c181,0 201,2 231,20c57,35 79,130 47,206c-10,25 -26,40 -57,54c-38,17 -66,20 -226,20c-148,0 -184,-3 -188,-14z"/>
   <path fill="#000000" id="svg_272" d="m7055,2641l-320,-77l-3,-62c-3,-57 -1,-63 20,-72c21,-9 613,-150 631,-150c4,0 7,22 7,49l0,49l-77,17c-43,9 -84,18 -91,20c-9,4 -12,26 -10,82c3,87 -8,77 121,103l57,11l0,55c0,30 -3,54 -7,53c-5,-1 -152,-36 -328,-78zm65,-146c0,-33 -4,-55 -11,-55c-26,0 -272,55 -259,58c8,2 62,13 120,26c157,35 150,36 150,-29z"/>
   <path fill="#000000" id="svg_273" d="m10592,2653l-183,-45l3,-37l3,-36l150,-37c83,-20 167,-40 188,-43c38,-7 38,-6 35,21c-3,26 -8,30 -50,38l-48,9l0,48l0,47l48,8c44,8 47,11 50,42c2,17 0,31 -5,31c-4,-1 -90,-22 -191,-46zm48,-83c0,-16 -5,-30 -11,-30c-27,0 -139,24 -139,30c0,6 86,26 128,28c18,2 22,-3 22,-28z"/>
   <path fill="#000000" id="svg_274" d="m6079,2617c-68,-46 -75,-150 -14,-211c41,-41 97,-56 207,-56c101,0 149,13 190,49c27,24 32,36 35,87c2,36 -1,69 -9,84c-17,32 -74,70 -105,70c-22,0 -24,-4 -21,-37c2,-29 8,-39 23,-41c28,-6 55,-32 55,-54c0,-58 -47,-78 -185,-78c-118,0 -159,18 -163,73c-3,35 -1,39 32,52c32,13 36,20 36,50c0,30 -3,35 -24,35c-12,0 -38,-10 -57,-23z"/>
   <path fill="#000000" id="svg_275" d="m8005,2485c-99,-23 -233,-55 -298,-70l-118,-27l3,-71l3,-71l290,-67c160,-38 293,-68 298,-69c4,0 7,24 7,54l0,54l-72,14l-73,13l0,70l0,70l73,14l72,15l0,58c0,32 -1,58 -2,57c-2,0 -84,-20 -183,-44zm-55,-170c0,-54 7,-53 -145,-21l-110,22l100,21c55,11 112,21 128,22c26,1 27,-1 27,-44z"/>
   <path fill="#000000" id="svg_276" d="m9870,2423c-74,-24 -92,-57 -98,-185l-5,-98l242,0l241,0l0,46l0,45l-97,-2l-98,-2l-3,35c-5,52 17,68 91,68c97,0 107,5 107,52l0,40l-95,-4c-81,-3 -98,-7 -118,-26c-22,-21 -25,-21 -38,-6c-27,32 -90,50 -129,37zm91,-104c14,-14 19,-30 17,-56l-3,-35l-65,0l-65,0l1,43c1,28 7,46 19,56c27,19 72,16 96,-8z"/>
   <path fill="#000000" id="svg_277" d="m2834,2411c-112,-18 -168,-75 -169,-171c0,-105 54,-154 191,-173c88,-13 218,2 268,31c48,28 76,77 76,134c0,123 -63,172 -232,182c-46,2 -106,1 -134,-3zm233,-132c15,-5 31,-16 35,-22c29,-46 -27,-67 -174,-67c-127,0 -163,11 -163,50c0,16 9,29 25,37c31,16 237,17 277,2z"/>
   <path fill="#000000" id="svg_278" d="m10440,2385c-21,-22 -24,-36 -25,-103l0,-77l188,-3l187,-2l0,30l0,30l-85,0c-93,0 -100,6 -72,60c11,22 20,26 82,30c67,5 70,6 73,33l3,27l-65,0c-64,0 -116,-14 -116,-32c0,-5 -12,0 -26,11c-40,31 -113,29 -144,-4zm128,-53c6,-9 12,-28 12,-44c0,-28 -1,-28 -60,-28c-59,0 -60,0 -60,28c0,63 70,92 108,44z"/>
   <path fill="#000000" id="svg_279" d="m6110,2289c-92,-37 -115,-162 -43,-232c41,-39 138,-61 236,-54c141,11 197,54 197,152c0,64 -23,103 -73,126c-60,27 -67,25 -67,-19c0,-34 3,-39 32,-47c38,-12 59,-55 42,-83c-22,-36 -65,-47 -176,-47c-93,0 -110,3 -135,21c-21,16 -28,30 -28,55c0,29 5,36 32,49c28,13 33,20 33,53c0,39 -7,43 -50,26z"/>
   <path fill="#000000" id="svg_280" d="m6820,2202c-70,-35 -97,-122 -88,-287l3,-60l328,-3l327,-2l0,50l0,50l-140,0l-140,0l0,59c0,52 3,62 26,80c22,17 41,21 109,21c45,0 97,3 114,6c30,6 31,9 31,55l0,48l-122,-6c-127,-6 -165,-17 -191,-53c-14,-20 -14,-20 -31,6c-35,53 -155,72 -226,36zm153,-93c32,-15 47,-49 47,-109l0,-50l-100,0l-100,0l1,53c0,28 4,60 8,71c16,40 92,59 144,35z"/>
   <path fill="#000000" id="svg_281" d="m7718,2060c-45,-8 -82,-32 -105,-67c-14,-21 -19,-54 -22,-155l-3,-128l301,0l301,0l0,55l0,55l-125,0l-125,0l0,44c0,37 11,62 33,77c1,1 49,4 107,8l105,6l3,54l3,54l-110,-6c-113,-7 -161,-21 -179,-54c-9,-14 -11,-14 -21,5c-21,40 -94,63 -163,52zm110,-124c8,-8 17,-37 20,-65l5,-51l-87,0l-86,0l0,41c0,48 14,77 43,89c29,12 87,5 105,-14z"/>
   <path fill="#000000" id="svg_282" d="m9880,2055c-80,-27 -110,-65 -110,-140c0,-94 51,-138 179,-156c80,-11 186,1 239,29c101,51 94,204 -13,256c-53,26 -230,33 -295,11zm252,-85c64,-18 75,-76 20,-104c-65,-33 -253,-27 -293,10c-38,34 -20,76 38,94c40,12 191,12 235,0z"/>
   <path fill="#000000" id="svg_283" d="m6255,1912l-220,-57l-3,-50l-3,-50l228,-58c125,-31 230,-57 233,-57c3,0 5,17 4,37l-1,38l-62,14l-62,15l3,60l3,61l51,11c28,6 56,14 61,17c10,6 5,78 -6,76c-3,0 -105,-26 -226,-57zm42,-148c-3,-4 -82,12 -167,33c-19,4 -2,11 70,27l95,21l3,-38c2,-22 1,-41 -1,-43z"/>
   <path fill="#000000" id="svg_284" d="m7300,1656l0,-116l-105,0l-105,0l0,105l0,105l-45,0l-45,0l0,-105l0,-105l-85,0l-85,0l0,110l0,110l-50,0l-50,0l0,-160l0,-160l330,0l330,0l-2,163l-3,162l-42,3l-43,3l0,-115z"/>
   <path fill="#000000" id="svg_285" d="m9774,1697c-2,-7 -3,-62 -2,-123l3,-109l238,-3l237,-2l0,45l0,45l-100,0l-100,0l0,75l0,75l-40,0l-40,0l0,-75l0,-75l-60,0l-60,0l0,80l0,80l-35,0c-20,0 -38,-6 -41,-13z"/>
   <path fill="#000000" id="svg_286" d="m7590,1465l0,-186l48,3l47,3l3,63l3,62l249,0l250,0l0,55l0,55l-250,0l-249,0l-3,63l-3,62l-47,3l-48,3l0,-186z"/>
   <path fill="#000000" id="svg_287" d="m6735,1358c-3,-8 -4,-95 -3,-193l3,-180l45,0l45,0l3,68l3,67l279,0l280,0l0,55l0,55l-280,0l-279,0l-3,68l-3,67l-43,3c-28,2 -44,-1 -47,-10z"/>
   <path fill="#000000" id="svg_288" d="m6737,913c-4,-3 -7,-24 -7,-44l0,-39l236,-2l237,-3l-209,-79c-282,-107 -260,-94 -263,-160l-2,-56l330,0l331,0l0,45l0,45l-241,2l-241,3l241,89l241,89l0,59l0,58l-323,0c-178,0 -327,-3 -330,-7z"/>
   <path fill="#000000" id="svg_289" d="m6734,396c-3,-8 -4,-32 -2,-53l4,-38l327,-3l327,-2l0,55l0,55l-325,0c-272,0 -327,-2 -331,-14z"/>
  </g>
 </g>
</svg>