<?xml version="1.0" standalone="no"?>
<!DOCTYPE svg PUBLIC "-//W3C//DTD SVG 20010904//EN"
 "http://www.w3.org/TR/2001/REC-SVG-20010904/DTD/svg10.dtd">
<svg version="1.0" xmlns="http://www.w3.org/2000/svg"
 width="1280.000000pt" height="1163.000000pt" viewBox="0 0 1280.000000 1163.000000"
 preserveAspectRatio="xMidYMid meet">
<g transform="translate(0.000000,1163.000000) scale(0.100000,-0.100000)"
fill="#ffffff" stroke="none">
<path d="M5650 11290 l0 -40 168 -2 167 -3 -165 -61 -165 -61 -3 -51 -3 -52
250 0 251 0 0 40 0 40 -177 0 -178 1 175 62 175 63 3 52 3 52 -250 0 -251 0 0
-40z"/>
<path d="M5713 10925 c-70 -30 -96 -137 -50 -206 12 -19 44 -45 72 -59 45 -23
62 -25 175 -25 110 0 131 3 172 23 74 37 99 113 58 180 -16 26 -17 32 -5 32
10 0 15 11 15 35 l0 35 -140 0 -140 0 0 -75 0 -75 35 0 c32 0 35 2 35 30 0 30
1 30 53 30 63 0 90 -21 85 -67 -4 -38 -40 -54 -137 -60 -85 -6 -176 9 -203 34
-10 9 -18 29 -18 45 0 24 6 32 35 44 32 13 35 18 35 54 0 35 -3 40 -22 40 -13
-1 -38 -7 -55 -15z"/>
<path d="M5650 10515 l0 -45 250 0 250 0 0 45 0 45 -250 0 -250 0 0 -45z"/>
<path d="M6370 10306 l0 -196 40 0 39 0 3 73 3 72 47 5 c84 10 124 76 99 161
-17 55 -46 70 -146 77 l-85 5 0 -197z m138 112 c13 -13 16 -47 6 -72 -4 -10
-18 -16 -35 -16 -28 0 -29 2 -29 43 0 24 3 47 7 50 10 11 38 8 51 -5z"/>
<path d="M6650 10306 l0 -196 45 0 45 0 0 80 c0 63 3 80 14 80 32 0 46 -30 46
-96 l0 -64 46 0 46 0 -4 74 c-2 54 -8 80 -22 94 -17 20 -17 21 3 43 37 40 24
130 -22 158 -12 8 -61 16 -109 19 l-88 5 0 -197z m138 112 c19 -19 15 -66 -7
-78 -34 -18 -41 -12 -41 40 0 41 3 50 18 50 10 0 23 -5 30 -12z"/>
<path d="M6981 10474 c-38 -31 -51 -77 -51 -174 0 -135 30 -188 113 -197 94
-11 138 42 145 175 8 152 -32 222 -128 222 -37 0 -55 -6 -79 -26z m112 -84
c12 -47 4 -185 -13 -204 -35 -43 -60 7 -60 120 0 91 12 127 42 122 15 -2 24
-13 31 -38z"/>
<path d="M7247 10494 c-4 -4 -7 -92 -7 -196 l0 -188 40 0 40 0 1 128 2 127 16
-125 16 -125 37 -3 c42 -4 37 -18 63 162 7 54 16 100 18 102 2 2 1 -57 -1
-131 l-5 -135 47 0 46 0 -2 193 -3 192 -60 0 -59 0 -7 -35 c-4 -19 -13 -69
-20 -110 l-13 -75 -15 110 -16 110 -55 3 c-31 2 -59 0 -63 -4z"/>
<path d="M7665 10478 c-41 -32 -55 -76 -55 -170 0 -143 29 -196 113 -205 93
-11 138 42 145 172 5 97 -10 158 -48 197 -37 37 -112 40 -155 6z m106 -90 c14
-52 7 -181 -11 -203 -36 -44 -60 1 -60 115 0 93 11 130 39 130 15 0 23 -11 32
-42z"/>
<path d="M7890 10460 c0 -39 1 -40 35 -40 l35 0 0 -155 0 -155 45 0 45 0 0
155 0 155 41 0 40 0 -3 38 -3 37 -117 3 -118 3 0 -41z"/>
<path d="M8167 10494 c-4 -4 -7 -92 -7 -196 l0 -188 45 0 45 0 -2 193 -3 192
-35 3 c-20 2 -39 0 -43 -4z"/>
<path d="M8350 10472 c-16 -16 -34 -49 -40 -73 -16 -57 -8 -195 14 -237 22
-43 68 -65 123 -59 84 9 113 61 113 199 0 147 -35 198 -136 198 -37 0 -51 -6
-74 -28z m110 -61 c13 -25 13 -181 0 -215 -11 -29 -31 -34 -50 -12 -17 22 -24
154 -11 204 13 47 42 58 61 23z"/>
<path d="M8617 10493 c-4 -3 -7 -91 -7 -195 l0 -188 40 0 39 0 3 118 3 117 34
-117 35 -118 48 0 48 0 0 196 0 195 -37 -3 -38 -3 0 -112 c1 -62 0 -111 -1
-110 -1 1 -19 53 -39 115 l-36 112 -43 0 c-23 0 -46 -3 -49 -7z"/>
<path d="M8974 10488 c-4 -7 -24 -95 -44 -196 l-36 -183 45 3 c44 3 46 4 51
38 5 32 8 35 41 38 35 3 36 2 43 -37 6 -41 6 -41 51 -41 30 0 45 4 45 13 -1 6
-18 93 -38 192 l-37 180 -57 3 c-38 2 -59 -1 -64 -10z m75 -195 c1 -17 -5 -23
-20 -23 -18 0 -20 4 -14 48 11 81 18 92 26 42 4 -25 8 -55 8 -67z"/>
<path d="M9207 10493 c-4 -3 -7 -91 -7 -195 l0 -188 105 0 105 0 0 35 0 35
-60 0 -60 0 0 160 0 160 -38 0 c-21 0 -42 -3 -45 -7z"/>
<path d="M3990 10375 l0 -115 230 0 230 0 0 115 0 115 -30 0 -30 0 0 -80 0
-80 -75 0 -75 0 0 75 0 75 -30 0 -30 0 0 -75 0 -75 -65 0 -65 0 0 80 0 80 -30
0 -30 0 0 -115z"/>
<path d="M5925 10376 c-121 -29 -232 -56 -247 -59 -27 -7 -28 -10 -28 -65 l0
-58 228 -52 c125 -29 237 -55 250 -58 20 -6 22 -3 22 39 l0 45 -62 14 -63 13
-3 56 -3 57 66 12 65 12 0 49 c0 27 -1 48 -2 48 -2 -1 -102 -25 -223 -53z m25
-126 c0 -22 -2 -40 -4 -40 -12 0 -174 32 -186 37 -8 3 23 13 70 23 125 26 120
26 120 -20z"/>
<path d="M4390 10140 l0 -80 -200 0 -200 0 0 -35 0 -35 230 0 230 0 0 109 c0
90 -3 110 -16 115 -40 15 -44 9 -44 -74z"/>
<path d="M3125 10083 c-37 -10 -63 -35 -80 -75 -38 -96 -27 -250 22 -308 21
-26 32 -30 73 -30 30 0 52 5 60 15 11 14 14 13 24 -1 7 -9 21 -14 32 -12 17 3
19 12 19 113 l0 110 -63 3 -63 3 3 -28 c2 -22 9 -29 31 -31 24 -3 27 -7 27
-40 0 -72 -54 -107 -95 -62 -15 16 -20 41 -23 108 -4 93 10 157 39 175 25 16
68 0 75 -28 5 -19 13 -25 35 -25 24 0 29 4 29 25 0 55 -82 105 -145 88z"/>
<path d="M3662 10075 c-40 -18 -66 -73 -57 -121 6 -34 24 -52 110 -107 41 -26
51 -38 53 -65 4 -43 -12 -62 -55 -62 -29 0 -36 5 -46 30 -10 25 -17 30 -45 30
-32 0 -34 -2 -28 -27 4 -16 20 -40 37 -55 24 -24 38 -28 84 -28 70 0 114 34
121 95 8 62 -19 101 -96 145 -60 33 -65 39 -68 73 -3 31 1 39 20 46 33 12 56
2 67 -30 7 -22 16 -29 36 -29 31 0 39 17 26 53 -20 53 -99 79 -159 52z"/>
<path d="M5709 10067 c-50 -33 -59 -60 -59 -169 l0 -98 250 0 250 0 0 45 0 45
-99 0 -98 0 -7 55 c-8 72 -23 101 -61 125 -46 29 -131 27 -176 -3z m145 -83
c9 -9 16 -32 16 -55 l0 -39 -75 0 -75 0 0 33 c0 53 24 77 75 77 26 0 50 -6 59
-16z"/>
<path d="M2490 9875 l0 -205 30 0 30 0 0 85 0 85 41 0 c86 0 132 45 131 129
-1 83 -41 111 -157 111 l-75 0 0 -205z m150 135 c11 -11 20 -33 20 -48 0 -43
-21 -64 -66 -66 l-39 -1 -3 54 c-2 29 -1 60 2 67 8 21 63 17 86 -6z"/>
<path d="M2810 10073 c0 -3 -20 -91 -45 -194 -25 -103 -45 -192 -45 -198 0 -6
13 -11 29 -11 31 0 35 5 47 73 l6 37 54 0 c45 0 54 -3 54 -17 0 -10 5 -35 11
-55 9 -33 14 -38 39 -38 17 0 30 5 30 13 0 6 -21 99 -46 205 l-46 192 -44 0
c-24 0 -44 -3 -44 -7z m74 -197 c7 -36 7 -36 -29 -36 -19 0 -35 4 -35 10 0 5
8 44 17 87 l17 78 12 -51 c6 -29 14 -68 18 -88z"/>
<path d="M3340 9875 l0 -205 104 0 c99 0 104 1 110 23 3 12 6 25 6 30 0 4 -34
7 -75 7 l-75 0 0 65 0 65 65 0 c63 0 65 1 65 25 0 24 -2 25 -65 25 l-65 0 0
55 0 54 68 3 c65 3 67 4 70 31 l3 27 -105 0 -106 0 0 -205z"/>
<path d="M6453 9929 c-47 -14 -73 -52 -73 -110 0 -68 29 -100 98 -107 50 -4
53 -3 89 35 21 22 47 55 58 73 27 46 47 56 82 44 42 -14 44 -59 4 -82 -25 -13
-31 -24 -31 -49 0 -22 5 -33 14 -33 79 0 131 102 91 180 -22 42 -53 60 -106
60 -58 0 -99 -30 -134 -101 -25 -49 -50 -65 -86 -54 -30 10 -23 69 9 73 18 3
22 10 22 43 0 21 -1 39 -2 38 -2 0 -17 -5 -35 -10z"/>
<path d="M3990 9875 l0 -35 230 0 230 0 0 35 0 35 -230 0 -230 0 0 -35z"/>
<path d="M7059 9896 c-34 -19 -53 -67 -46 -112 8 -45 20 -60 71 -86 56 -28 86
-57 86 -84 0 -25 -24 -54 -46 -54 -16 0 -54 35 -54 50 0 6 -16 10 -35 10 -40
0 -45 -15 -18 -60 20 -35 52 -50 104 -50 78 0 119 41 119 119 0 50 -25 81 -95
117 -57 30 -71 49 -60 85 10 30 69 23 73 -8 3 -19 10 -23 38 -23 29 0 34 3 34
24 0 14 -10 37 -23 52 -28 33 -106 43 -148 20z"/>
<path d="M7931 9897 c-32 -19 -50 -54 -51 -97 0 -46 21 -75 73 -101 57 -29 87
-58 87 -85 0 -25 -24 -54 -46 -54 -16 0 -54 35 -54 50 0 6 -16 10 -35 10 -39
0 -43 -11 -23 -55 33 -74 183 -74 216 0 18 40 15 99 -8 127 -10 14 -44 38 -75
54 -57 30 -71 49 -60 85 10 30 69 23 73 -8 3 -19 10 -23 38 -23 29 0 34 3 34
24 0 14 -10 37 -23 52 -28 32 -107 43 -146 21z"/>
<path d="M8219 9895 c-47 -26 -64 -77 -64 -195 0 -148 28 -190 126 -190 33 0
48 7 75 34 21 21 34 44 34 60 0 22 -4 26 -29 26 -23 0 -33 -7 -43 -27 -9 -19
-22 -29 -40 -31 -41 -5 -53 27 -53 140 0 80 4 100 19 117 31 34 76 21 76 -21
0 -14 8 -18 35 -18 28 0 35 4 35 20 0 78 -96 126 -171 85z"/>
<path d="M9755 9901 c-39 -17 -60 -51 -60 -97 0 -51 25 -82 102 -123 42 -23
48 -30 51 -63 2 -29 -1 -39 -18 -48 -28 -15 -54 -5 -68 25 -9 20 -19 25 -47
25 -40 0 -40 1 -21 -44 19 -46 52 -66 106 -66 59 0 91 17 113 60 35 68 4 130
-85 176 -56 28 -74 55 -58 84 16 29 58 26 72 -5 9 -20 19 -25 46 -25 32 0 34
2 27 28 -10 44 -47 74 -96 78 -24 2 -53 0 -64 -5z"/>
<path d="M7292 9730 c3 -158 4 -171 25 -191 27 -27 109 -37 153 -19 52 22 60
51 60 225 l0 155 -35 0 -35 0 0 -153 c0 -106 -4 -157 -12 -165 -19 -19 -66
-15 -78 7 -5 11 -10 84 -10 165 l0 146 -36 0 -35 0 3 -170z"/>
<path d="M7592 9708 l3 -193 35 -3 c73 -7 142 8 172 38 23 24 28 37 28 80 0
41 -5 55 -24 73 -22 21 -23 22 -5 41 30 31 26 101 -7 131 -24 23 -35 25 -116
25 l-88 0 2 -192z m139 132 c13 -7 19 -21 19 -44 0 -37 -12 -46 -61 -46 -28 0
-29 2 -29 43 0 24 3 47 7 50 10 10 42 8 64 -3z m17 -162 c17 -17 15 -83 -2
-97 -8 -7 -30 -11 -48 -9 -33 3 -33 3 -36 61 l-3 57 39 0 c21 0 43 -5 50 -12z"/>
<path d="M8440 9704 l0 -195 33 3 32 3 3 83 3 82 28 0 c41 0 55 -24 61 -99 l5
-66 34 -3 34 -3 -5 80 c-3 58 -10 86 -22 100 -17 19 -17 21 3 42 33 36 29 103
-8 140 -28 28 -34 29 -115 29 l-86 0 0 -196z m144 130 c19 -18 21 -65 4 -82
-7 -7 -27 -12 -45 -12 l-33 0 0 55 c0 54 0 55 29 55 16 0 37 -7 45 -16z"/>
<path d="M8730 9704 l0 -195 33 3 32 3 3 193 2 192 -35 0 -35 0 0 -196z"/>
<path d="M8870 9705 l0 -195 53 0 c123 1 179 36 181 113 1 32 -5 54 -20 74
-19 25 -20 31 -8 48 24 32 18 102 -11 130 -22 23 -32 25 -110 25 l-85 0 0
-195z m140 125 c23 -23 24 -33 10 -61 -8 -13 -21 -19 -45 -19 l-35 0 0 50 c0
47 2 50 25 50 14 0 34 -9 45 -20z m8 -152 c7 -7 12 -28 12 -48 0 -45 -15 -60
-57 -60 l-33 0 0 60 0 60 33 0 c18 0 38 -5 45 -12z"/>
<path d="M9157 9708 l2 -193 97 0 98 0 7 27 7 27 -70 3 -71 3 0 55 0 55 62 3
c60 3 61 3 61 32 0 30 0 30 -60 30 l-60 0 0 45 0 45 65 0 65 0 0 30 0 30 -102
0 -103 0 2 -192z"/>
<path d="M9412 9708 l3 -193 33 -3 32 -3 0 85 0 86 28 0 c48 0 57 -14 62 -92
l5 -73 33 -3 32 -3 0 74 c0 61 -4 79 -22 102 -19 25 -20 28 -5 36 24 14 37 72
26 114 -14 49 -50 65 -149 65 l-80 0 2 -192z m139 132 c13 -7 19 -21 19 -43 0
-42 -15 -57 -57 -57 l-33 0 0 55 c0 52 1 55 26 55 14 0 34 -5 45 -10z"/>
<path d="M3990 9670 l0 -110 230 0 230 0 0 35 0 35 -100 0 -99 0 -3 72 -3 72
-30 0 -30 0 -3 -72 -3 -72 -64 0 -65 0 0 75 0 75 -30 0 -30 0 0 -110z"/>
<path d="M5650 9646 l0 -64 148 -27 c195 -37 199 -39 105 -53 -43 -7 -117 -19
-165 -28 l-88 -16 0 -69 0 -69 250 0 250 0 0 47 0 46 -207 -6 c-115 -3 -203
-4 -198 -2 10 4 384 65 399 65 4 0 6 19 4 42 l-3 42 -145 26 c-80 15 -170 32
-200 37 -46 9 -22 11 148 12 l202 1 0 40 0 40 -250 0 -250 0 0 -64z"/>
<path d="M6419 9632 c-33 -30 -33 -31 -34 -118 l0 -89 203 -3 202 -2 0 35 0
35 -85 0 -85 0 0 33 c0 46 15 57 81 57 78 0 89 6 89 45 l0 33 -77 -5 c-51 -3
-87 -11 -103 -22 -24 -17 -26 -17 -40 2 -11 13 -32 21 -66 24 -46 5 -54 2 -85
-25z m122 -63 c13 -13 19 -30 17 -47 -3 -26 -6 -27 -58 -27 -52 0 -55 1 -58
27 -4 31 28 68 58 68 11 0 29 -9 41 -21z"/>
<path d="M400 9499 c-34 -14 -60 -39 -72 -69 -20 -50 -27 -145 -17 -214 17
-120 61 -163 159 -154 91 9 122 58 127 203 6 162 -32 233 -128 241 -24 2 -55
-1 -69 -7z m81 -85 c19 -23 19 -235 0 -258 -24 -29 -49 -20 -62 22 -15 51 -8
214 10 235 17 21 35 21 52 1z"/>
<path d="M1073 9503 c-34 -6 -77 -55 -91 -100 -15 -51 -16 -190 -1 -249 15
-60 56 -94 113 -94 23 0 52 7 64 16 12 8 22 10 22 5 0 -6 18 -11 40 -11 l41 0
-3 123 -3 122 -70 0 -70 0 -3 -37 c-3 -33 0 -38 18 -38 19 0 21 -5 18 -47 -3
-44 -5 -48 -30 -51 -23 -3 -28 2 -37 35 -21 75 -9 231 19 248 18 11 50 -6 50
-26 0 -16 7 -19 50 -19 44 0 50 3 50 20 0 77 -78 122 -177 103z"/>
<path d="M3242 9493 c-58 -28 -77 -80 -77 -208 0 -88 4 -118 19 -149 25 -49
69 -76 124 -76 104 0 146 64 147 225 0 84 -4 107 -23 147 -36 73 -115 98 -190
61z m98 -82 c5 -11 10 -68 10 -126 0 -113 -9 -145 -40 -145 -31 0 -40 32 -40
145 0 113 9 145 40 145 11 0 24 -9 30 -19z"/>
<path d="M650 9285 l0 -215 50 0 50 0 0 86 0 85 33 -3 c31 -3 32 -5 35 -53 1
-27 4 -65 7 -82 6 -32 8 -33 53 -33 l47 0 -6 91 c-4 74 -9 94 -24 105 -18 13
-18 15 3 37 47 50 36 143 -22 178 -25 15 -50 19 -128 19 l-98 0 0 -215z m172
122 c23 -36 -2 -87 -42 -87 -29 0 -30 1 -30 48 0 27 3 52 7 56 10 10 56 -3 65
-17z"/>
<path d="M1336 9308 c-20 -106 -40 -203 -43 -215 -5 -22 -2 -23 45 -23 l51 0
7 45 c6 44 7 45 45 45 40 0 42 -2 51 -65 3 -17 12 -21 56 -23 l53 -3 -6 33
c-4 18 -23 114 -43 213 l-37 180 -71 3 -71 3 -37 -193z m127 -60 c-2 -5 -13
-8 -25 -8 -19 0 -20 4 -13 58 13 107 18 113 31 32 6 -41 9 -78 7 -82z"/>
<path d="M1630 9285 l0 -215 45 0 44 0 3 132 3 131 39 -131 39 -132 54 0 53 0
0 215 0 215 -46 0 -47 0 6 -127 c3 -71 3 -121 0 -113 -4 8 -23 65 -43 125
l-36 110 -57 3 -57 3 0 -216z"/>
<path d="M1980 9285 l0 -215 50 0 50 0 0 215 0 215 -50 0 -50 0 0 -215z"/>
<path d="M2130 9460 l0 -40 71 0 71 0 -76 -144 c-47 -89 -76 -157 -76 -175 l0
-31 130 0 130 0 0 24 c0 13 3 31 6 40 5 14 -5 16 -71 16 -42 0 -75 3 -73 8 2
4 34 67 71 139 45 89 67 144 67 168 l0 35 -125 0 -125 0 0 -40z"/>
<path d="M2455 9303 c-21 -109 -40 -206 -43 -215 -4 -15 3 -18 46 -18 53 0 62
9 62 68 0 21 4 23 43 20 41 -3 42 -4 47 -43 l5 -40 54 -3 c48 -3 53 -1 49 15
-3 10 -22 107 -43 216 l-39 197 -71 0 -71 0 -39 -197z m129 -25 c6 -35 5 -38
-19 -38 -29 0 -30 4 -13 103 l12 72 7 -50 c4 -27 10 -67 13 -87z"/>
<path d="M2700 9460 l0 -40 40 0 40 0 0 -175 0 -175 50 0 50 0 0 175 0 175 45
0 45 0 0 40 0 40 -135 0 -135 0 0 -40z"/>
<path d="M3010 9285 l0 -215 50 0 50 0 0 215 0 215 -50 0 -50 0 0 -215z"/>
<path d="M3510 9285 l0 -215 45 0 45 0 1 133 0 132 15 -50 c9 -27 27 -87 40
-132 l25 -83 55 0 54 0 0 215 0 215 -46 0 -46 0 3 -124 c2 -68 2 -122 -1 -120
-2 3 -20 58 -40 122 l-37 117 -56 3 -57 3 0 -216z"/>
<path d="M4090 9478 c-85 -24 -125 -90 -101 -167 21 -72 89 -101 236 -101 113
0 160 13 203 56 33 33 34 38 30 89 -6 68 -32 100 -102 120 -56 17 -212 19
-266 3z m272 -78 c30 -14 43 -40 33 -68 -3 -11 -18 -25 -33 -32 -34 -16 -165
-25 -228 -15 -105 15 -120 101 -21 126 46 12 217 4 249 -11z"/>
<path d="M6730 9310 l0 -70 -60 0 -60 0 0 60 0 60 -30 0 -30 0 0 -60 0 -60
-50 0 -50 0 0 65 0 65 -35 0 -35 0 0 -100 0 -100 205 0 205 0 0 99 c0 81 -3
100 -16 105 -39 15 -44 8 -44 -64z"/>
<path d="M7640 9140 l0 -190 45 0 45 0 0 70 0 70 288 2 287 3 0 45 0 45 -287
3 -288 2 0 70 0 70 -45 0 -45 0 0 -190z"/>
<path d="M7020 9185 c0 -108 1 -115 20 -115 17 0 20 7 20 45 l0 45 180 0 180
0 0 25 0 25 -180 0 -180 0 0 45 c0 38 -3 45 -20 45 -19 0 -20 -7 -20 -115z"/>
<path d="M5892 9221 l-243 -56 3 -60 3 -59 245 -57 245 -56 3 40 c2 21 1 41
-2 44 -3 3 -31 11 -63 17 l-58 12 -3 57 c-3 62 -9 57 83 75 39 8 40 9 43 55 2
26 -1 47 -5 46 -4 -1 -117 -26 -251 -58z m58 -114 c0 -19 -2 -36 -5 -39 -3 -3
-51 4 -108 16 l-102 20 80 17 c44 9 92 17 108 18 24 1 27 -2 27 -32z"/>
<path d="M11645 9154 c-51 -26 -81 -63 -131 -156 -56 -105 -88 -128 -149 -108
-36 12 -45 26 -45 69 0 38 20 62 60 70 35 7 35 7 38 69 3 62 3 62 -25 62 -37
-1 -102 -31 -130 -61 -32 -35 -43 -72 -43 -143 0 -123 70 -196 187 -196 100 0
154 42 218 169 44 87 73 111 136 111 39 0 51 -4 68 -26 12 -15 21 -40 21 -56
0 -38 -48 -88 -84 -88 -25 0 -26 -2 -26 -65 0 -64 0 -65 28 -65 41 1 104 33
135 69 82 98 51 288 -56 340 -53 26 -157 29 -202 5z"/>
<path d="M4028 9121 c-32 -29 -33 -31 -36 -125 l-4 -96 231 0 231 0 0 35 0 35
-100 0 -100 0 0 33 c0 59 17 70 114 75 l86 5 0 33 0 34 -67 0 c-80 0 -139 -14
-151 -36 -8 -14 -13 -12 -35 10 -22 22 -35 26 -81 26 -47 0 -61 -4 -88 -29z
m144 -58 c11 -10 18 -30 18 -55 l0 -38 -70 0 -70 0 0 37 c0 20 7 45 17 55 20
23 80 24 105 1z"/>
<path d="M10632 9123 c3 -16 19 -18 155 -18 84 0 149 -3 145 -6 -4 -3 -73 -32
-154 -64 -131 -52 -148 -62 -148 -82 l0 -23 199 0 c184 0 199 1 197 18 -3 15
-18 17 -159 17 -85 0 -154 1 -152 3 2 2 72 32 156 66 131 52 153 64 154 84 l2
22 -199 0 c-185 0 -199 -1 -196 -17z"/>
<path d="M6387 9093 c-4 -3 -7 -27 -7 -53 l0 -47 118 -22 c164 -31 169 -35 71
-49 -46 -7 -108 -17 -137 -23 l-53 -11 3 -51 3 -52 203 -3 202 -2 0 35 0 35
-152 1 -153 1 85 14 c247 40 220 32 220 69 l0 33 -97 17 c-249 44 -247 43 -65
44 l162 1 0 35 0 35 -198 0 c-109 0 -202 -3 -205 -7z"/>
<path d="M7064 9030 c-50 -20 -69 -92 -40 -149 25 -47 85 -66 206 -66 113 0
153 13 184 57 32 46 15 122 -34 151 -42 25 -70 22 -70 -7 0 -18 7 -25 30 -30
71 -14 58 -98 -17 -113 -60 -11 -187 -8 -222 7 -61 25 -61 95 0 107 22 4 29
11 29 29 0 26 -24 31 -66 14z"/>
<path d="M5703 8880 c-45 -27 -66 -73 -61 -131 6 -61 27 -93 81 -121 38 -21
56 -23 182 -23 130 0 143 2 182 24 97 56 97 192 1 251 -18 11 -46 20 -61 20
-27 0 -28 -2 -25 -41 3 -38 6 -43 38 -53 29 -9 36 -16 38 -43 3 -25 -2 -35
-24 -50 -23 -15 -49 -18 -154 -18 -145 0 -180 13 -180 64 0 32 13 45 50 54 22
5 25 12 25 47 0 38 -2 40 -30 40 -16 0 -44 -9 -62 -20z"/>
<path d="M2250 8868 c-72 -39 -93 -93 -98 -249 -5 -150 10 -218 58 -264 29
-28 36 -30 110 -30 70 0 81 3 105 25 30 27 55 78 55 110 0 19 -5 21 -42 18
-38 -3 -43 -6 -50 -35 -17 -64 -88 -71 -122 -13 -16 27 -22 57 -25 139 -6 174
21 246 91 239 28 -3 36 -9 53 -45 18 -40 22 -43 59 -43 l39 0 -6 40 c-10 77
-53 117 -133 126 -40 5 -58 1 -94 -18z"/>
<path d="M7640 8845 l0 -45 243 0 242 -1 -242 -90 -243 -91 0 -59 0 -59 333 2
332 3 3 43 3 42 -253 1 -253 0 85 32 c47 17 159 58 250 92 l165 61 0 54 0 55
-332 3 -333 2 0 -45z"/>
<path d="M1452 8603 l3 -278 43 -3 42 -3 0 125 0 126 90 0 90 0 0 40 0 40 -90
0 -90 0 0 75 0 75 95 0 95 0 0 40 0 40 -140 0 -140 0 2 -277z"/>
<path d="M1860 8873 c0 -5 -27 -120 -60 -258 -33 -137 -62 -260 -65 -273 -5
-22 -3 -23 37 -20 l43 3 19 78 19 78 66 -3 66 -3 19 -77 18 -78 44 0 c24 0 44
3 44 6 0 3 -29 126 -65 272 -36 147 -65 271 -65 275 0 4 -27 7 -60 7 -33 0
-60 -3 -60 -7z m86 -205 c13 -62 24 -114 24 -115 0 -2 -23 -3 -51 -3 -48 0
-51 1 -47 23 3 12 13 66 24 119 10 53 20 95 22 93 2 -2 15 -54 28 -117z"/>
<path d="M2520 8840 l0 -40 60 0 60 0 0 -241 0 -240 43 3 42 3 3 238 2 237 60
0 60 0 0 40 0 40 -165 0 -165 0 0 -40z"/>
<path d="M3620 8761 l0 -121 -101 0 -100 0 3 105 3 105 -52 0 -53 0 0 -105 0
-105 -85 0 -85 0 0 110 0 110 -50 0 -50 0 0 -170 0 -170 340 0 340 0 0 169 c0
94 -3 172 -7 174 -5 3 -29 8 -55 11 l-48 7 0 -120z"/>
<path d="M10693 8841 c-23 -11 -46 -28 -52 -39 -16 -30 -13 -84 5 -110 31 -44
71 -57 184 -57 113 0 153 13 184 57 32 46 15 112 -37 144 -49 28 -226 32 -284
5z m260 -42 c28 -13 44 -47 33 -74 -12 -32 -74 -47 -177 -43 -78 2 -101 7
-118 22 -24 21 -28 68 -8 85 38 31 210 38 270 10z"/>
<path d="M4053 8825 c-47 -20 -63 -60 -63 -160 l0 -85 230 0 230 0 0 35 0 34
-92 3 -93 3 -6 55 c-3 31 -11 65 -18 78 -26 48 -120 67 -188 37z m125 -71 c17
-12 22 -25 22 -60 l0 -45 -72 3 -73 3 -3 37 c-6 67 68 103 126 62z"/>
<path d="M7020 8725 l0 -25 165 0 c152 0 167 -2 185 -20 25 -25 25 -51 1 -81
-19 -23 -25 -24 -185 -27 l-166 -3 0 -25 0 -24 161 0 c176 0 216 9 238 56 26
59 5 140 -44 162 -17 8 -84 12 -190 12 l-165 0 0 -25z"/>
<path d="M6525 8724 c-62 -9 -115 -35 -130 -64 -38 -73 -4 -155 73 -178 64
-19 210 -15 259 7 101 46 94 187 -11 220 -38 12 -150 20 -191 15z m196 -101
c28 -27 19 -50 -26 -68 -45 -20 -175 -19 -221 0 -30 12 -35 19 -32 42 5 43 38
54 155 51 90 -3 105 -6 124 -25z"/>
<path d="M11685 8671 c-68 -17 -116 -64 -166 -164 -45 -90 -73 -117 -124 -117
-52 0 -75 23 -75 73 0 39 20 59 73 71 26 6 27 9 27 66 l0 60 -33 0 c-51 0
-118 -40 -144 -86 -25 -44 -32 -150 -12 -201 36 -96 162 -141 265 -94 45 21
75 55 124 146 59 109 104 139 174 115 66 -21 73 -114 13 -151 -18 -10 -40 -19
-49 -19 -15 0 -18 -10 -18 -66 l0 -66 38 7 c139 25 200 136 160 292 -25 103
-137 162 -253 134z"/>
<path d="M10633 8555 c-3 -9 -1 -21 4 -26 5 -5 88 -8 199 -7 181 3 189 4 189
23 0 19 -8 20 -193 23 -168 2 -193 0 -199 -13z"/>
<path d="M10630 8375 c0 -98 1 -105 20 -105 17 0 20 7 20 40 l0 40 178 2 c169
3 177 4 177 23 0 19 -8 20 -177 23 l-178 2 0 40 c0 33 -3 40 -20 40 -19 0 -20
-7 -20 -105z"/>
<path d="M3626 8453 c-3 -4 -6 -55 -6 -115 l0 -108 -285 0 -285 0 0 -60 0 -60
340 0 340 0 0 165 c0 124 -3 167 -12 169 -28 9 -87 14 -92 9z"/>
<path d="M7094 8441 c-61 -28 -74 -53 -74 -138 l0 -73 200 0 200 0 0 65 c0
121 -42 156 -195 162 -73 3 -98 0 -131 -16z m212 -42 c51 -13 74 -40 74 -86
l0 -33 -160 0 -160 0 0 33 c0 66 44 94 148 96 29 1 73 -4 98 -10z"/>
<path d="M6380 8330 l0 -120 35 0 c34 0 35 1 35 40 l0 40 170 0 170 0 0 35 0
35 -170 0 -170 0 0 45 c0 45 0 45 -35 45 l-35 0 0 -120z"/>
<path d="M4332 8410 c-51 -32 -72 -87 -72 -199 0 -112 13 -160 52 -198 26 -25
37 -28 94 -28 61 0 68 2 94 32 16 18 34 52 41 75 16 61 7 224 -15 266 -36 68
-127 92 -194 52z m99 -77 c10 -11 14 -48 14 -128 0 -118 -9 -145 -46 -145 -28
0 -42 62 -38 167 4 89 16 123 44 123 7 0 19 -7 26 -17z"/>
<path d="M5024 8420 c-76 -30 -114 -177 -83 -321 16 -74 52 -110 116 -116 84
-8 136 27 154 104 l7 33 -53 0 c-51 0 -54 -1 -57 -27 -4 -34 -36 -43 -55 -17
-16 22 -18 209 -3 249 13 35 52 31 60 -5 5 -22 12 -25 57 -28 l51 -3 -7 33
c-5 19 -13 44 -20 57 -23 41 -112 64 -167 41z"/>
<path d="M5655 8420 c-44 -18 -70 -59 -70 -110 0 -62 22 -92 101 -139 46 -29
60 -42 62 -64 7 -57 -38 -76 -66 -27 -15 27 -22 30 -65 30 -47 0 -47 0 -41
-27 16 -67 62 -103 132 -103 92 0 142 46 142 132 0 64 -25 96 -113 145 -54 30
-72 67 -43 89 23 17 45 8 52 -22 5 -21 12 -24 50 -24 41 0 44 2 44 28 0 74
-104 126 -185 92z"/>
<path d="M3950 8205 l0 -215 50 0 50 0 0 85 0 85 43 0 c56 0 88 18 109 60 22
42 23 89 4 135 -21 50 -59 65 -166 65 l-90 0 0 -215z m154 129 c34 -33 10
-104 -35 -104 -17 0 -19 7 -19 60 0 53 2 60 19 60 11 0 27 -7 35 -16z"/>
<path d="M4610 8205 l0 -215 88 0 c150 0 187 43 187 220 0 88 -3 111 -20 140
-31 52 -75 70 -172 70 l-83 0 0 -215z m160 116 c5 -11 10 -65 10 -120 0 -88
-3 -104 -20 -121 -11 -11 -27 -20 -35 -20 -13 0 -15 22 -15 140 l0 140 25 0
c14 0 29 -8 35 -19z"/>
<path d="M5320 8416 c0 -2 -18 -96 -40 -208 -22 -111 -40 -206 -40 -210 0 -5
22 -8 49 -8 l49 0 6 45 c7 44 8 45 45 45 41 0 51 -13 51 -67 0 -21 5 -23 55
-23 l55 0 -7 33 c-4 17 -23 113 -43 212 l-36 180 -72 3 c-40 2 -72 1 -72 -2z
m93 -248 c-3 -5 -13 -8 -25 -8 -19 0 -20 4 -13 73 4 39 10 77 14 82 6 11 30
-135 24 -147z"/>
<path d="M5870 8380 l0 -40 45 0 45 0 0 -175 0 -175 50 0 50 0 0 175 0 175 40
0 40 0 0 40 0 40 -135 0 -135 0 0 -40z"/>
<path d="M8220 8305 l0 -115 -110 0 -110 0 0 105 0 105 -45 0 -45 0 0 -105 0
-105 -90 0 -90 0 0 110 0 110 -45 0 -45 0 0 -160 0 -160 333 2 332 3 3 154 c3
169 2 171 -55 171 l-33 0 0 -115z"/>
<path d="M10820 8241 l-185 -47 0 -28 0 -29 193 -47 c106 -26 194 -44 195 -41
12 25 -3 37 -60 50 l-63 15 0 51 0 52 58 13 c31 7 60 14 64 16 8 5 -2 44 -11
43 -3 0 -89 -22 -191 -48z m38 -94 l-3 -23 -85 20 -85 19 85 22 c93 23 96 22
88 -38z"/>
<path d="M6623 8175 c-22 -9 -42 -32 -64 -70 -47 -84 -93 -104 -120 -54 -7 14
-5 23 11 39 11 11 25 20 30 20 6 0 10 16 10 35 0 38 -3 40 -48 24 -40 -14 -62
-49 -62 -98 0 -55 17 -87 55 -106 70 -33 120 -10 174 80 31 52 41 60 69 63 18
2 40 -2 48 -9 23 -19 13 -62 -18 -77 -23 -11 -28 -20 -28 -48 0 -38 6 -40 56
-19 23 10 39 26 49 49 50 120 -46 222 -162 171z"/>
<path d="M11830 8060 l0 -130 -105 0 -105 0 0 115 0 115 -55 0 -55 0 0 -115 0
-115 -85 0 -85 0 0 120 0 120 -55 0 -55 0 0 -180 0 -180 355 0 355 0 0 180 c0
202 9 180 -77 194 l-33 6 0 -130z"/>
<path d="M7074 8141 c-48 -22 -69 -63 -61 -117 13 -78 57 -99 207 -99 124 0
162 12 194 57 38 54 8 136 -60 164 -52 22 -228 18 -280 -5z m259 -42 c84 -23
69 -97 -24 -119 -58 -14 -185 -8 -218 9 -51 28 -50 84 2 106 38 17 186 19 240
4z"/>
<path d="M2641 8113 c-31 -16 -57 -49 -103 -132 -23 -41 -60 -58 -94 -43 -20
10 -25 18 -22 44 3 30 13 40 51 52 12 4 17 16 17 46 0 34 -3 40 -21 40 -36 0
-89 -31 -104 -61 -32 -61 -9 -170 42 -197 18 -10 57 -15 105 -13 35 1 84 44
110 95 32 64 67 96 104 96 77 0 89 -99 14 -115 -28 -6 -30 -10 -30 -51 0 -52
11 -55 76 -24 68 34 94 122 60 205 -29 68 -128 96 -205 58z"/>
<path d="M10637 8063 c-4 -3 -7 -53 -7 -110 0 -96 1 -103 20 -103 17 0 20 7
20 40 l0 40 178 2 c169 3 177 4 177 23 0 19 -8 20 -177 23 l-178 2 0 45 c0 43
-14 58 -33 38z"/>
<path d="M7640 7830 l0 -190 45 0 45 0 0 70 0 70 288 2 287 3 3 48 3 47 -290
0 -291 0 0 70 0 70 -45 0 -45 0 0 -190z"/>
<path d="M3050 7930 l0 -60 340 0 340 0 0 60 0 60 -340 0 -340 0 0 -60z"/>
<path d="M6380 7865 l0 -35 149 0 c156 0 194 -7 205 -36 22 -57 -26 -74 -210
-74 l-144 0 0 -35 0 -35 153 0 c169 0 220 9 243 45 24 37 28 95 10 138 -24 58
-56 67 -246 67 l-160 0 0 -35z"/>
<path d="M7074 7860 c-41 -16 -54 -49 -54 -132 l0 -78 200 0 200 0 0 25 c0 25
-1 25 -90 25 l-90 0 0 38 c0 59 10 66 97 72 74 5 78 6 81 30 l3 25 -78 -3
c-57 -3 -85 -9 -105 -23 -16 -11 -28 -15 -28 -9 0 14 -62 40 -92 39 -13 0 -33
-4 -44 -9z m109 -72 c9 -11 17 -35 17 -54 l0 -34 -71 0 -70 0 3 47 c2 39 8 50
28 60 31 16 70 9 93 -19z"/>
<path d="M3930 7590 l0 -230 30 0 30 0 0 230 0 230 -30 0 -30 0 0 -230z"/>
<path d="M4080 7590 l0 -230 26 0 26 0 -4 189 c-2 104 -1 187 1 185 2 -2 36
-86 76 -187 70 -180 71 -182 103 -185 l32 -3 0 230 0 231 -25 0 -25 0 -2 -177
-3 -177 -70 177 -70 177 -32 0 -33 0 0 -230z"/>
<path d="M4380 7800 c0 -18 7 -20 55 -20 l55 0 0 -210 0 -210 25 0 25 0 0 210
0 210 50 0 c43 0 50 3 50 20 0 19 -7 20 -130 20 -123 0 -130 -1 -130 -20z"/>
<path d="M4690 7590 l0 -230 110 0 110 0 0 26 c0 25 0 25 -82 23 l-83 -2 -3
86 -3 87 81 0 c79 0 80 0 80 25 0 25 -1 25 -80 25 l-80 0 0 75 0 75 85 0 c78
0 85 2 85 20 0 19 -7 20 -110 20 l-110 0 0 -230z"/>
<path d="M4970 7590 l0 -230 25 0 25 0 0 105 0 105 48 0 c26 0 53 -4 60 -8 19
-12 32 -69 32 -139 0 -61 1 -63 26 -63 l26 0 -4 95 c-3 79 -7 98 -25 117 l-22
23 25 28 c19 22 24 39 24 83 0 48 -4 60 -29 85 -28 28 -33 29 -120 29 l-91 0
0 -230z m170 170 c13 -13 20 -33 20 -60 0 -57 -26 -80 -90 -80 l-50 0 0 80 0
80 50 0 c37 0 55 -5 70 -20z"/>
<path d="M5290 7591 l0 -231 27 0 26 0 -6 193 c-3 126 -2 185 4 172 5 -11 40
-96 77 -190 67 -168 68 -170 100 -173 l32 -3 0 230 0 231 -25 0 -25 0 0 -182
-1 -183 -72 180 c-72 178 -73 180 -105 183 l-32 3 0 -230z"/>
<path d="M5640 7590 l0 -230 110 0 110 0 0 26 c0 25 0 25 -82 23 l-83 -2 -3
86 -3 86 78 3 c70 3 78 5 78 23 0 18 -8 20 -77 23 l-78 3 0 74 0 75 80 0 c73
0 80 2 80 20 0 19 -7 20 -105 20 l-105 0 0 -230z"/>
<path d="M5890 7800 c0 -18 7 -20 55 -20 l55 0 0 -210 0 -210 25 0 25 0 0 210
0 210 50 0 c43 0 50 3 50 20 0 19 -7 20 -130 20 -123 0 -130 -1 -130 -20z"/>
<path d="M10634 7796 c-12 -32 6 -36 166 -36 131 0 161 -3 174 -16 17 -17 21
-61 7 -82 -14 -23 -80 -32 -216 -31 -120 1 -130 0 -130 -17 0 -18 11 -19 140
-22 166 -3 199 1 231 33 26 27 33 85 13 128 -21 46 -43 52 -216 55 -140 3
-164 2 -169 -12z"/>
<path d="M2444 7779 c-67 -19 -93 -77 -94 -206 l0 -73 250 0 250 0 0 40 0 40
-105 0 -105 0 0 38 c0 58 22 72 107 72 96 0 103 4 103 52 l0 40 -94 -4 c-78
-2 -100 -7 -124 -25 -29 -22 -30 -22 -47 -3 -10 11 -34 24 -54 30 -41 11 -45
11 -87 -1z m109 -98 c6 -6 11 -30 11 -53 l1 -43 -67 -3 -68 -3 0 45 c0 35 5
48 23 61 23 17 81 15 100 -4z"/>
<path d="M3431 7763 c-18 -9 -41 -29 -50 -44 l-17 -28 -28 29 c-31 33 -75 45
-147 38 -58 -6 -94 -29 -120 -78 -16 -29 -19 -57 -19 -167 l0 -133 340 0 340
0 0 113 c0 168 -25 232 -104 268 -52 24 -149 25 -195 2z m174 -128 c21 -20 25
-34 25 -80 l0 -55 -110 0 -110 0 0 35 c0 45 23 100 47 114 10 6 42 11 71 11
43 0 57 -5 77 -25z m-307 -9 c8 -8 17 -40 20 -70 l4 -56 -92 0 -93 0 6 53 c8
70 42 102 100 94 22 -3 47 -12 55 -21z"/>
<path d="M11367 7716 c-54 -15 -91 -39 -121 -80 -18 -23 -21 -42 -21 -115 0
-81 2 -90 28 -124 61 -81 177 -112 380 -104 151 6 212 22 261 71 79 80 73 237
-12 308 -30 25 -62 38 -124 52 l-28 6 0 -64 0 -64 33 -6 c51 -10 79 -41 75
-83 -6 -66 -78 -93 -253 -93 -162 0 -238 25 -259 84 -13 36 18 78 67 90 l37
10 0 63 c0 35 -3 63 -7 62 -5 0 -30 -6 -56 -13z"/>
<path d="M6453 7599 c-48 -14 -73 -52 -73 -111 0 -43 4 -54 30 -78 19 -18 51
-33 84 -41 69 -15 201 -7 243 14 91 48 77 189 -21 216 -40 10 -46 6 -46 -30 0
-24 6 -32 29 -40 34 -12 45 -33 31 -60 -14 -26 -50 -34 -152 -33 -64 1 -94 5
-113 18 -33 22 -30 56 8 74 22 11 27 20 27 48 0 37 0 37 -47 23z"/>
<path d="M7080 7589 c-46 -18 -60 -47 -60 -131 l0 -78 200 0 200 0 0 25 c0 25
-1 25 -85 25 l-85 0 0 43 c0 56 -18 88 -60 109 -39 20 -72 22 -110 7z m113
-70 c9 -12 17 -36 17 -55 l0 -34 -75 0 -75 0 0 38 c0 20 4 42 8 48 26 38 94
40 125 3z"/>
<path d="M7640 7535 l0 -45 237 -2 237 -3 -160 -59 c-87 -32 -194 -72 -236
-88 l-78 -30 0 -59 0 -59 333 2 332 3 3 42 3 43 -251 2 -252 3 249 90 248 90
0 55 0 55 -332 3 -333 2 0 -45z"/>
<path d="M10695 7531 c-44 -18 -57 -46 -59 -123 l-1 -73 195 0 c188 0 195 1
195 20 0 18 -8 20 -82 23 l-83 3 0 32 c0 43 -29 99 -60 114 -28 14 -75 16
-105 4z m109 -63 c9 -12 16 -37 16 -55 l0 -33 -75 0 -75 0 0 33 c0 53 24 77
75 77 34 0 47 -5 59 -22z"/>
<path d="M2780 7356 l0 -86 -75 0 -75 0 0 81 0 80 -37 -3 -38 -3 -3 -77 -3
-78 -59 0 -60 0 0 80 0 80 -40 0 -41 0 3 -122 3 -123 248 -3 248 -2 -3 127 -3
128 -32 3 -33 3 0 -85z"/>
<path d="M8616 7280 c-39 -12 -66 -38 -87 -86 -36 -80 -34 -245 3 -321 7 -15
25 -35 39 -45 33 -25 113 -27 138 -4 22 20 31 20 31 1 0 -11 11 -15 40 -15
l40 0 0 135 0 135 -80 0 -80 0 0 -40 c0 -36 3 -40 25 -40 22 0 25 -4 25 -38 0
-70 -49 -97 -77 -42 -17 33 -17 217 0 250 16 33 58 34 72 3 8 -20 17 -23 62
-23 29 0 53 4 53 10 0 5 -7 28 -17 51 -25 64 -105 93 -187 69z"/>
<path d="M9263 7279 c-73 -22 -109 -115 -101 -262 9 -161 53 -213 176 -205 57
4 68 8 93 36 38 42 49 89 49 207 0 85 -4 108 -22 145 -13 24 -35 52 -49 63
-31 23 -101 30 -146 16z m95 -109 c18 -34 13 -240 -7 -263 -19 -24 -48 -21
-62 6 -17 31 -17 235 0 265 16 30 51 26 69 -8z"/>
<path d="M10990 7215 l0 -75 -75 0 -75 0 0 65 c0 58 -2 65 -20 65 -18 0 -20
-7 -20 -65 l0 -65 -65 0 -65 0 0 71 c0 62 -2 70 -17 67 -15 -3 -18 -17 -21
-91 l-3 -87 198 0 198 0 -3 89 c-3 66 -7 91 -18 95 -11 4 -14 -9 -14 -69z"/>
<path d="M3217 7269 c-50 -12 -107 -42 -134 -71 -31 -33 -43 -71 -43 -134 0
-146 109 -214 341 -214 184 0 279 30 327 103 23 35 27 51 27 111 -1 86 -19
125 -75 162 -22 15 -66 33 -97 40 -65 15 -286 17 -346 3z m368 -135 c76 -39
65 -112 -21 -143 -59 -22 -316 -21 -366 1 -65 29 -76 99 -22 135 40 26 89 32
235 29 113 -2 142 -6 174 -22z"/>
<path d="M8882 7048 l3 -233 125 0 125 0 3 42 3 42 -73 3 -73 3 -3 188 -2 187
-55 0 -55 0 2 -232z"/>
<path d="M9542 7049 l3 -234 105 0 c121 1 159 16 186 73 23 48 14 117 -19 150
l-25 25 21 29 c33 45 28 112 -12 152 -31 30 -33 31 -146 35 l-115 3 2 -233z
m176 139 c7 -7 12 -24 12 -38 0 -34 -17 -50 -52 -50 -27 0 -28 2 -28 50 0 48
1 50 28 50 15 0 33 -5 40 -12z m3 -184 c7 -9 13 -31 13 -49 0 -43 -19 -65 -55
-65 -29 0 -29 0 -29 65 0 65 0 65 29 65 16 0 35 -7 42 -16z"/>
<path d="M9965 7258 c-20 -87 -85 -412 -85 -428 0 -17 7 -20 50 -20 54 0 54 0
65 63 6 36 7 37 49 37 l43 0 9 -47 c9 -48 9 -48 53 -51 24 -2 49 -1 56 2 10 3
1 59 -34 233 l-47 228 -77 3 c-73 3 -77 2 -82 -20z m104 -240 c1 -13 -7 -18
-25 -18 l-27 0 7 63 c14 123 19 130 33 47 6 -41 12 -83 12 -92z"/>
<path d="M10254 7267 c-2 -7 -3 -111 -2 -232 l3 -220 125 0 125 0 3 42 3 42
-73 3 -73 3 -3 188 -2 187 -51 0 c-31 0 -51 -5 -55 -13z"/>
<path d="M11383 7220 c-113 -23 -163 -84 -163 -201 0 -74 17 -115 63 -156 64
-56 120 -68 317 -68 169 0 177 1 232 27 96 45 138 145 108 258 -20 75 -108
140 -189 140 -19 0 -21 -5 -21 -59 0 -58 1 -60 30 -66 49 -11 80 -42 80 -80 0
-72 -88 -100 -294 -93 -150 5 -196 19 -217 70 -18 43 3 78 59 98 l42 14 0 63
c0 35 -1 63 -2 62 -2 -1 -22 -5 -45 -9z"/>
<path d="M4111 7177 c-50 -19 -111 -75 -132 -121 -25 -56 -25 -176 0 -231 25
-55 83 -105 187 -159 136 -71 164 -101 164 -179 0 -67 -21 -104 -69 -118 -75
-22 -145 25 -158 106 l-6 35 -84 0 -85 0 6 -37 c31 -173 135 -254 311 -240
119 9 190 53 231 142 31 65 33 189 5 250 -24 54 -103 123 -187 165 -110 54
-151 86 -164 124 -26 79 17 146 92 146 49 0 85 -36 94 -92 l7 -38 84 0 c75 0
84 2 80 18 -3 9 -8 35 -12 57 -10 62 -50 121 -102 152 -40 23 -60 28 -138 30
-55 2 -103 -2 -124 -10z"/>
<path d="M4780 7169 c-130 -59 -183 -190 -183 -449 -1 -266 48 -399 168 -463
54 -30 202 -31 255 -3 118 62 165 168 177 401 13 272 -44 447 -168 509 -69 34
-180 36 -249 5z m184 -146 c46 -46 61 -118 60 -303 0 -101 -5 -188 -13 -225
-32 -143 -156 -170 -210 -45 -45 104 -48 412 -5 519 32 82 114 108 168 54z"/>
<path d="M5518 7180 c-82 -24 -141 -91 -179 -201 -19 -54 -23 -91 -27 -235 -3
-107 0 -198 8 -242 15 -92 58 -182 104 -217 97 -74 265 -72 358 5 43 36 84
116 94 183 l6 48 -82 -3 -83 -3 -12 -50 c-20 -79 -85 -117 -146 -85 -57 31
-84 162 -76 379 7 221 37 291 124 291 61 0 91 -29 102 -100 l6 -35 84 -3 84
-3 -6 46 c-15 108 -82 198 -166 223 -43 14 -152 14 -193 2z"/>
<path d="M5990 6715 l0 -465 80 0 80 0 0 465 0 465 -80 0 -80 0 0 -465z"/>
<path d="M6455 7158 c-47 -195 -205 -885 -205 -895 0 -10 21 -13 80 -13 74 0
80 1 85 23 3 12 13 63 23 112 l18 90 109 0 109 0 18 -90 c10 -49 20 -100 23
-112 5 -22 10 -23 90 -23 47 0 85 4 85 9 0 5 -45 199 -99 432 -54 233 -102
439 -106 457 l-7 32 -109 0 c-104 0 -109 -1 -114 -22z m150 -334 c19 -99 35
-183 35 -187 0 -4 -34 -7 -76 -7 l-76 0 5 28 c3 15 20 103 38 195 19 93 35
165 36 160 1 -4 18 -89 38 -189z"/>
<path d="M6980 6715 l0 -465 235 0 235 0 0 24 c0 13 3 44 6 70 l7 46 -162 0
-161 0 0 395 0 395 -80 0 -80 0 0 -465z"/>
<path d="M2357 7093 c-4 -3 -7 -30 -7 -60 0 -65 -9 -60 195 -98 l150 -29 -157
-27 c-87 -14 -164 -29 -173 -32 -11 -5 -15 -22 -15 -67 l0 -60 250 0 250 0 0
41 0 42 -200 -5 c-111 -3 -199 -4 -198 -2 3 2 380 64 393 64 3 0 5 18 5 39 0
29 -5 41 -17 45 -10 3 -99 19 -198 36 -99 18 -182 34 -184 36 -2 2 86 4 197 4
l202 0 0 40 0 40 -243 0 c-134 0 -247 -3 -250 -7z"/>
<path d="M7860 7089 c-106 -13 -178 -50 -207 -109 -38 -75 -26 -167 28 -217
13 -12 47 -32 74 -45 46 -21 64 -23 210 -23 169 0 217 8 275 48 50 33 73 79
73 146 0 132 -87 192 -298 204 -44 3 -114 1 -155 -4z m262 -110 c57 -13 108
-54 108 -87 0 -33 -37 -69 -87 -83 -30 -9 -97 -14 -178 -14 -181 0 -245 26
-245 98 0 38 31 68 85 82 62 17 246 19 317 4z"/>
<path d="M10709 7032 c-15 -2 -37 -14 -50 -28 -19 -21 -23 -35 -23 -97 l-1
-72 195 0 c188 0 195 1 195 20 0 18 -8 20 -94 23 l-93 3 5 36 c9 54 27 66 108
72 60 5 73 9 75 24 2 17 -4 19 -81 15 -61 -2 -88 -8 -102 -21 -19 -16 -21 -16
-37 2 -18 20 -53 28 -97 23z m81 -62 c12 -12 20 -33 20 -55 l0 -35 -70 0 -70
0 0 37 c0 20 7 45 17 55 22 24 77 24 103 -2z"/>
<path d="M3052 6663 l3 -88 230 -44 230 -45 -225 -38 c-124 -20 -228 -38 -232
-38 -5 0 -8 -40 -8 -90 l0 -90 341 0 340 0 -3 53 -3 52 -285 -1 c-157 -1 -274
1 -260 3 14 2 142 23 285 46 l260 43 0 54 0 54 -45 9 c-25 5 -151 29 -280 52
l-235 43 283 1 282 1 0 55 0 55 -340 0 -341 0 3 -87z"/>
<path d="M11560 6661 l-325 -77 -3 -85 -3 -84 343 -79 c189 -43 348 -79 353
-80 6 0 11 27 13 61 l3 61 -50 11 c-28 6 -69 14 -91 17 l-40 7 0 83 0 83 58
11 c126 25 117 19 120 88 l3 62 -28 -1 c-15 -1 -174 -36 -353 -78z m90 -166
c0 -38 -4 -55 -12 -54 -7 0 -76 13 -152 28 l-140 28 125 25 c68 14 136 26 152
27 26 1 27 0 27 -54z"/>
<path d="M2490 6636 c-30 -6 -65 -18 -78 -25 -59 -32 -81 -135 -42 -199 35
-58 95 -77 235 -77 141 1 200 20 235 77 41 67 17 168 -47 202 -67 34 -203 44
-303 22z m220 -87 c104 -22 102 -96 -3 -120 -80 -17 -220 -8 -255 18 -34 25
-39 54 -12 78 36 33 173 45 270 24z"/>
<path d="M7724 6596 c-41 -19 -55 -33 -73 -68 -55 -115 -3 -228 124 -267 183
-57 443 -25 508 60 45 61 39 179 -11 233 -32 34 -96 65 -134 66 -26 0 -28 -3
-28 -45 0 -41 3 -47 28 -55 79 -28 108 -67 83 -114 -26 -48 -80 -61 -251 -61
-135 0 -160 3 -195 20 -46 23 -64 60 -49 103 7 20 20 31 57 42 l47 15 0 48 c0
45 -1 47 -27 47 -16 0 -51 -11 -79 -24z"/>
<path d="M8825 6611 c-55 -24 -85 -92 -85 -194 0 -136 41 -197 132 -197 41 0
54 5 78 28 68 68 64 280 -7 344 -22 20 -90 31 -118 19z m91 -86 c8 -20 14 -67
14 -110 0 -101 -18 -145 -59 -145 -49 0 -64 41 -59 160 3 108 14 130 60 130
24 0 32 -6 44 -35z"/>
<path d="M9613 6613 c-30 -6 -70 -55 -83 -101 -13 -48 -13 -147 1 -196 6 -22
24 -52 39 -68 24 -23 37 -28 80 -28 43 0 56 5 80 28 68 69 64 280 -6 344 -21
18 -76 29 -111 21z m78 -69 c21 -25 25 -191 6 -237 -14 -31 -21 -37 -46 -37
-49 0 -64 41 -59 160 2 63 8 103 17 113 17 22 65 22 82 1z"/>
<path d="M10864 6606 c-57 -25 -80 -87 -52 -139 14 -28 31 -41 90 -72 53 -28
73 -56 64 -91 -14 -53 -86 -53 -106 1 -7 19 -17 25 -40 25 -34 0 -38 -15 -15
-60 20 -40 43 -50 110 -50 49 0 60 4 86 29 23 24 29 38 29 74 0 55 -25 89 -91
122 -27 14 -56 36 -65 50 -15 23 -15 27 0 50 9 14 25 25 35 25 20 0 51 -30 51
-48 0 -7 14 -12 30 -12 24 0 30 4 30 21 0 33 -19 60 -55 75 -42 17 -61 17
-101 0z"/>
<path d="M8500 6415 l0 -195 30 0 29 0 3 88 3 87 62 0 c62 0 63 0 63 28 0 27
-1 27 -65 27 l-65 0 0 55 0 55 70 0 c68 0 70 1 70 25 l0 25 -100 0 -100 0 0
-195z"/>
<path d="M9060 6415 l0 -195 100 0 100 0 0 25 c0 24 -2 25 -70 25 l-70 0 0
170 0 170 -30 0 -30 0 0 -195z"/>
<path d="M9300 6415 l0 -195 99 0 c97 0 99 0 103 25 5 24 4 24 -66 27 -48 2
-71 7 -72 16 -1 6 -2 82 -3 167 l-1 155 -30 0 -30 0 0 -195z"/>
<path d="M9810 6598 c1 -7 18 -94 38 -193 l37 -180 32 -3 31 -3 16 73 c9 40
23 102 30 138 8 36 15 63 16 60 1 -3 14 -63 29 -135 l27 -130 31 -3 c37 -4 29
-26 83 220 l37 168 -34 0 c-18 0 -33 -3 -33 -7 -1 -37 -49 -274 -53 -263 -3 8
-13 56 -22 105 -29 157 -32 165 -64 165 l-28 0 -29 -140 c-16 -77 -31 -132
-35 -122 -3 9 -14 72 -24 140 l-18 122 -34 0 c-20 0 -33 -5 -33 -12z"/>
<path d="M10260 6415 l0 -195 99 0 c81 0 100 3 105 16 12 31 5 34 -69 34 l-75
0 0 65 0 65 65 0 c63 0 65 1 65 25 0 24 -2 25 -65 25 l-65 0 0 55 0 55 70 0
c68 0 70 1 70 25 l0 25 -100 0 -100 0 0 -195z"/>
<path d="M10520 6415 l0 -195 30 0 30 0 0 85 0 85 33 0 c53 0 61 -12 67 -92 5
-73 5 -73 35 -76 l31 -3 -4 73 c-2 51 -9 81 -22 99 -19 26 -19 27 0 44 26 24
35 78 20 116 -18 43 -56 59 -145 59 l-75 0 0 -195z m148 133 c17 -17 15 -74
-4 -92 -8 -9 -31 -16 -50 -16 l-34 0 0 60 0 60 38 0 c21 0 43 -5 50 -12z"/>
<path d="M2352 6163 l3 -148 38 -3 37 -3 0 55 0 56 210 0 210 0 0 45 0 45
-210 0 -210 0 0 50 0 50 -40 0 -41 0 3 -147z"/>
<path d="M3040 5825 l0 -227 89 4 c103 4 133 19 166 84 16 32 20 59 20 144 0
87 -3 111 -20 139 -35 60 -63 73 -164 79 l-91 5 0 -228z m159 138 c45 -37 47
-232 4 -274 -10 -10 -31 -19 -48 -21 l-30 -3 -3 158 -3 157 30 0 c16 0 38 -8
50 -17z"/>
<path d="M3390 5825 l0 -225 40 0 40 0 0 225 0 225 -40 0 -40 0 0 -225z"/>
<path d="M3622 6030 c-53 -33 -75 -95 -75 -215 0 -80 4 -110 20 -147 34 -74
104 -99 171 -58 26 16 32 17 32 5 0 -10 10 -15 30 -15 l30 0 0 125 0 125 -70
0 -70 0 0 -35 c0 -33 2 -35 31 -35 31 0 32 0 27 -45 -6 -53 -22 -75 -53 -75
-45 0 -60 33 -63 144 -4 125 13 169 66 174 29 3 35 0 45 -27 10 -27 16 -31 49
-31 28 0 38 4 38 16 0 31 -33 85 -61 99 -40 21 -108 19 -147 -5z"/>
<path d="M3910 5825 l0 -225 40 0 40 0 0 225 0 225 -40 0 -40 0 0 -225z"/>
<path d="M4040 6016 c0 -35 1 -35 48 -38 l47 -3 3 -187 2 -188 40 0 40 0 0
190 0 190 51 0 50 0 -3 33 -3 32 -137 3 -138 3 0 -35z"/>
<path d="M4400 6047 c0 -2 -22 -99 -50 -215 -27 -116 -50 -216 -50 -222 0 -5
17 -10 39 -10 37 0 39 2 45 38 13 72 13 72 70 72 l53 0 9 -52 9 -53 43 -3 43
-3 -6 33 c-4 18 -27 119 -53 223 l-47 190 -52 3 c-29 2 -53 1 -53 -1z m90
-259 c0 -5 -16 -8 -35 -8 -40 0 -40 2 -25 82 22 108 22 108 41 18 10 -47 18
-88 19 -92z"/>
<path d="M4660 5825 l0 -225 114 0 114 0 4 30 c3 17 2 32 0 35 -3 3 -38 5 -79
5 l-73 0 0 190 0 190 -40 0 -40 0 0 -225z"/>
<path d="M5100 6006 c-101 -32 -80 -186 29 -216 48 -13 176 -13 225 1 77 21
110 91 69 149 -12 17 -13 25 -5 28 7 2 12 15 12 28 l0 25 -107 -3 -108 -3 -3
-57 -3 -58 31 0 c27 0 30 3 30 31 0 31 1 31 38 25 63 -12 72 -16 78 -43 9 -35
-21 -60 -82 -69 -64 -9 -160 1 -190 21 -34 22 -30 65 9 83 18 9 27 21 27 37 0
32 -8 35 -50 21z"/>
<path d="M9295 5961 l-180 -48 -3 -41 c-3 -40 -2 -41 35 -51 82 -22 322 -81
327 -81 4 0 6 13 6 29 0 31 -4 33 -67 46 -32 6 -33 8 -33 55 l0 48 50 12 c48
11 50 13 50 46 0 19 -1 34 -2 33 -2 -1 -84 -22 -183 -48z m35 -91 c0 -16 -5
-30 -11 -30 -28 0 -139 24 -139 30 0 8 81 27 123 29 24 1 27 -3 27 -29z"/>
<path d="M2640 5972 c-22 -12 -47 -39 -67 -73 -48 -81 -72 -109 -97 -109 -36
0 -58 22 -54 54 3 28 14 39 51 50 12 4 17 16 17 46 0 34 -3 40 -21 40 -36 0
-89 -31 -104 -61 -32 -61 -9 -170 42 -197 19 -11 61 -16 105 -14 35 2 84 45
110 96 32 64 67 96 104 96 80 0 87 -96 8 -116 -21 -5 -24 -12 -24 -51 l0 -45
33 7 c78 17 117 66 117 147 0 117 -115 185 -220 130z"/>
<path d="M5600 5500 l0 -490 81 0 82 0 -5 418 c-3 229 -4 413 -2 407 2 -5 28
-165 59 -355 30 -190 60 -373 66 -407 l11 -63 78 0 c66 0 79 3 84 18 8 26 71
361 111 592 19 112 36 205 38 206 2 2 1 -181 -1 -406 l-5 -410 87 0 86 0 0
490 0 490 -129 0 -129 0 -61 -312 c-34 -172 -61 -321 -61 -330 0 -10 -3 -18
-8 -18 -4 0 -18 66 -30 148 -13 81 -37 228 -55 327 l-32 180 -132 3 -133 3 0
-491z"/>
<path d="M6540 5500 l0 -490 254 0 c288 0 260 -10 272 93 l6 57 -176 0 -176 0
0 145 0 145 158 0 157 0 -2 72 -1 73 -156 3 -156 3 0 119 0 120 165 0 165 0 0
75 0 75 -255 0 -255 0 0 -490z"/>
<path d="M7180 5499 l0 -491 183 4 c206 3 240 13 309 83 77 78 107 176 115
371 9 219 -22 347 -105 436 -71 76 -116 88 -327 88 l-175 0 0 -491z m294 342
c52 -13 93 -55 112 -116 37 -121 26 -393 -19 -484 -31 -64 -64 -84 -142 -89
l-65 -4 0 351 0 351 38 0 c20 0 54 -5 76 -9z"/>
<path d="M7930 5500 l0 -490 90 0 90 0 0 490 0 490 -90 0 -90 0 0 -490z"/>
<path d="M8401 5858 c-17 -73 -69 -294 -114 -490 l-83 -358 87 0 c100 0 89
-12 114 120 9 47 19 93 21 103 5 15 19 17 119 17 l113 0 12 -52 c6 -29 16 -83
22 -120 l12 -68 93 0 c51 0 93 3 93 8 -1 4 -51 223 -113 487 l-113 480 -116 3
-116 3 -31 -133z m146 -446 c-44 -2 -81 -2 -82 0 -2 2 12 77 30 168 18 91 36
183 40 205 7 36 12 18 49 -165 l42 -205 -79 -3z"/>
<path d="M9735 5950 c-31 -12 -64 -53 -75 -91 -17 -57 -12 -179 9 -225 30 -67
116 -93 196 -60 34 15 57 42 70 84 6 20 3 22 -38 22 -39 0 -46 -3 -51 -24 -12
-47 -79 -45 -97 2 -17 44 -13 190 6 218 23 35 74 30 93 -8 11 -24 19 -28 53
-28 21 0 39 5 39 10 0 29 -32 80 -59 94 -32 17 -113 20 -146 6z"/>
<path d="M10053 5940 c-46 -28 -66 -73 -70 -160 -4 -90 18 -163 59 -193 39
-29 123 -34 167 -9 55 30 76 81 75 182 0 101 -18 151 -66 180 -44 26 -122 27
-165 0z m134 -77 c21 -53 14 -194 -12 -223 -23 -26 -57 -26 -81 1 -15 17 -20
40 -22 109 -5 113 11 150 64 150 31 0 37 -4 51 -37z"/>
<path d="M10357 5953 c-4 -3 -7 -91 -7 -195 l0 -188 40 0 40 0 1 153 1 152 31
-153 31 -153 40 3 40 3 28 125 c15 69 28 133 28 142 0 9 3 19 8 21 4 3 5 -62
4 -144 l-4 -149 41 0 41 0 0 195 0 195 -59 0 -59 0 -28 -117 c-15 -65 -30
-124 -34 -131 -3 -7 -14 29 -24 80 -9 51 -22 110 -27 131 l-10 37 -58 0 c-32
0 -61 -3 -64 -7z"/>
<path d="M10810 5765 l0 -195 35 0 35 0 1 158 1 157 32 -155 32 -155 40 -3 40
-3 28 133 c42 200 44 201 45 26 l1 -158 40 0 40 0 -2 193 -3 192 -60 3 -61 3
-28 -118 c-15 -65 -30 -125 -33 -133 -3 -8 -17 44 -32 115 l-26 130 -62 3 -63
3 0 -196z"/>
<path d="M11260 5765 l0 -195 119 0 c99 0 120 3 125 16 16 40 9 44 -79 44
l-85 0 0 55 0 55 75 0 75 0 0 30 0 30 -76 0 -75 0 3 48 3 47 78 3 77 3 0 29 0
30 -120 0 -120 0 0 -195z"/>
<path d="M11560 5765 l0 -195 40 0 39 0 3 132 3 131 56 -129 56 -129 46 -3 47
-3 0 195 0 196 -35 0 -34 0 -3 -131 -3 -131 -59 131 -59 131 -48 0 -49 0 0
-195z"/>
<path d="M11900 5931 c0 -28 2 -30 48 -33 l47 -3 3 -162 2 -163 40 0 40 0 2
163 3 162 48 3 c45 3 47 5 47 33 l0 29 -140 0 -140 0 0 -29z"/>
<path d="M12275 5948 c-54 -29 -73 -104 -37 -148 10 -12 49 -38 87 -58 81 -43
94 -60 77 -96 -9 -20 -19 -26 -45 -26 -33 0 -67 24 -67 48 0 7 -16 12 -40 12
-35 0 -40 -3 -40 -24 0 -34 34 -73 77 -87 44 -14 126 -6 160 16 35 24 55 75
43 115 -14 47 -28 60 -106 96 -72 32 -89 52 -79 85 13 40 81 35 91 -7 5 -20
12 -24 45 -24 33 0 39 3 39 21 0 31 -17 57 -50 74 -34 17 -126 19 -155 3z"/>
<path d="M9110 5645 l0 -115 25 0 c23 0 25 4 25 40 l0 40 160 0 160 0 0 30 0
29 -157 3 -158 3 -3 43 c-3 37 -6 42 -28 42 l-24 0 0 -115z"/>
<path d="M5131 5719 c-52 -16 -79 -38 -91 -74 -19 -58 5 -111 63 -142 41 -21
152 -28 220 -13 77 16 108 43 113 100 10 93 -41 131 -179 136 -51 2 -107 -1
-126 -7z m223 -68 c34 -14 43 -48 18 -73 -35 -35 -228 -41 -267 -8 -20 16 -19
54 1 70 34 29 183 35 248 11z"/>
<path d="M2352 5598 l3 -43 202 -5 c139 -3 206 -9 214 -17 7 -7 12 -26 12 -43
0 -17 -5 -36 -12 -43 -8 -8 -75 -14 -214 -17 l-202 -5 -3 -42 -3 -43 203 0
c173 0 208 3 238 18 87 43 95 202 14 257 -26 18 -50 20 -242 23 l-213 3 3 -43z"/>
<path d="M9283 5502 l-173 -45 0 -41 0 -41 185 -46 185 -46 0 32 c0 31 -2 33
-47 42 l-48 8 0 50 0 49 45 11 c41 10 45 14 48 43 2 22 -1 32 -10 31 -7 -1
-91 -22 -185 -47z m47 -88 c0 -33 -2 -36 -22 -30 -13 3 -50 11 -83 18 l-60 12
70 17 c97 24 95 24 95 -17z"/>
<path d="M5380 5401 l0 -71 -170 0 -170 0 0 -30 0 -30 195 0 196 0 -3 98 c-3
92 -4 97 -25 100 -22 3 -23 0 -23 -67z"/>
<path d="M9719 5435 c-44 -24 -63 -78 -67 -189 -6 -161 23 -223 111 -233 54
-6 100 15 122 57 24 47 20 70 -13 70 -22 0 -31 -7 -43 -32 -11 -26 -21 -34
-47 -36 -29 -3 -34 1 -47 32 -10 22 -15 69 -15 126 0 57 5 104 15 126 13 31
18 35 47 32 26 -2 36 -10 47 -35 12 -26 21 -33 43 -33 25 0 28 4 28 31 0 22
-10 41 -34 65 -28 28 -41 34 -77 34 -24 -1 -56 -7 -70 -15z"/>
<path d="M9960 5235 l0 -215 105 0 c105 0 105 0 105 25 0 23 -3 24 -72 27
l-73 3 -3 188 -2 187 -30 0 -30 0 0 -215z"/>
<path d="M10245 5417 c-41 -41 -55 -89 -55 -187 0 -98 15 -147 56 -188 32 -32
38 -34 84 -30 95 9 125 59 125 213 0 166 -35 225 -135 225 -34 0 -48 -6 -75
-33z m121 -48 c28 -31 33 -209 7 -259 -22 -43 -60 -51 -89 -19 -17 18 -19 36
-19 139 0 102 3 121 19 139 24 27 58 27 82 0z"/>
<path d="M10520 5280 c0 -191 9 -228 59 -254 37 -20 91 -20 135 -2 56 23 67
70 64 261 l-3 160 -32 3 -33 3 0 -168 c0 -187 -7 -213 -58 -213 -55 0 -57 5
-62 197 l-5 178 -32 3 -33 3 0 -171z"/>
<path d="M10850 5236 l0 -216 75 0 c97 0 130 16 158 78 30 65 31 209 2 266
-30 60 -58 75 -153 83 l-82 6 0 -217z m155 130 c40 -40 46 -187 9 -257 -13
-25 -39 -39 -76 -39 -16 0 -18 14 -18 160 l0 160 30 0 c19 0 40 -9 55 -24z"/>
<path d="M3103 5418 c-13 -6 -33 -31 -45 -57 -18 -37 -22 -63 -22 -141 0 -149
25 -198 107 -207 38 -5 48 -1 76 23 17 17 34 44 37 62 6 31 5 34 -17 30 -15
-2 -25 -12 -29 -28 -7 -28 -49 -56 -73 -47 -39 15 -52 57 -52 167 0 85 4 111
18 133 34 53 88 49 107 -8 13 -40 50 -51 50 -15 0 29 -27 78 -49 90 -25 13
-79 12 -108 -2z"/>
<path d="M3360 5402 c-36 -36 -50 -87 -50 -182 0 -95 14 -146 51 -183 27 -26
35 -29 75 -24 25 2 54 13 65 22 43 39 64 206 38 299 -26 92 -119 128 -179 68z
m122 -52 c13 -26 18 -59 18 -128 0 -108 -16 -158 -53 -167 -64 -17 -91 42 -86
186 5 116 22 152 72 147 25 -2 36 -11 49 -38z"/>
<path d="M3620 5226 c0 -199 1 -206 20 -206 19 0 20 7 21 163 l0 162 63 -160
c62 -157 64 -160 95 -163 l31 -3 -2 203 c-3 195 -4 203 -23 203 -19 0 -20 -7
-20 -158 0 -86 -2 -157 -5 -157 -3 0 -33 71 -66 158 -56 144 -63 157 -88 160
l-26 3 0 -205z"/>
<path d="M3887 5423 c-19 -19 -4 -32 41 -35 l47 -3 0 -182 c0 -183 0 -183 22
-183 22 0 23 1 25 183 l3 182 43 3 c34 3 42 7 42 23 0 18 -8 19 -108 19 -60 0
-112 -3 -115 -7z"/>
<path d="M4160 5225 l0 -205 95 0 c88 0 95 1 95 20 0 18 -7 20 -75 20 l-75 0
0 75 0 74 67 3 c55 2 68 6 71 21 3 15 -5 17 -67 17 l-71 0 0 70 0 70 70 0 c63
0 70 2 70 20 0 19 -7 20 -90 20 l-90 0 0 -205z"/>
<path d="M4407 5423 c-4 -3 -7 -96 -7 -205 0 -191 1 -198 20 -198 19 0 20 8
22 167 l3 167 65 -165 c61 -152 68 -164 93 -167 l27 -3 0 205 c0 198 -1 206
-20 206 -18 0 -20 -8 -22 -162 l-3 -162 -64 162 c-56 140 -67 162 -86 162 -12
0 -25 -3 -28 -7z"/>
<path d="M4670 5410 c0 -17 7 -20 45 -20 l45 0 0 -185 0 -185 25 0 25 0 0 185
0 185 45 0 c38 0 45 3 45 20 0 19 -7 20 -115 20 -108 0 -115 -1 -115 -20z"/>
<path d="M2414 5261 c-47 -29 -64 -59 -64 -116 0 -89 46 -133 161 -155 120
-23 255 -4 307 44 67 62 52 185 -29 226 -21 11 -48 20 -59 20 -19 0 -21 -5
-18 -42 2 -36 7 -44 26 -46 12 -2 30 -14 38 -28 15 -22 15 -26 0 -49 -20 -31
-65 -40 -186 -39 -108 1 -145 13 -162 49 -9 20 -8 28 6 44 10 11 28 22 42 25
20 5 24 12 24 46 0 37 -2 40 -27 40 -16 0 -42 -9 -59 -19z"/>
<path d="M9196 5246 c-69 -26 -81 -45 -85 -141 l-3 -85 186 0 186 0 0 70 c0
86 -16 121 -67 145 -50 24 -166 30 -217 11z m213 -80 c13 -12 21 -31 21 -53
l0 -33 -135 0 -135 0 0 33 c0 63 29 78 141 75 69 -2 91 -7 108 -22z"/>
<path d="M5265 5208 c-11 -6 -25 -17 -32 -25 -11 -14 -14 -14 -28 0 -37 38
-111 33 -145 -10 -16 -21 -20 -40 -20 -104 l0 -79 195 0 195 0 0 83 c0 87 -11
112 -57 136 -27 14 -82 14 -108 -1z m99 -61 c12 -9 19 -28 20 -53 l1 -39 -67
-3 -68 -3 0 40 c0 30 6 44 22 55 27 19 68 21 92 3z m-180 -13 c9 -8 16 -31 16
-50 l0 -34 -55 0 -55 0 0 34 c0 40 22 66 55 66 13 0 31 -7 39 -16z"/>
<path d="M5570 4798 c-31 -16 -53 -37 -70 -68 -23 -42 -25 -55 -25 -180 0
-119 3 -140 22 -180 13 -25 36 -53 52 -63 41 -24 121 -23 154 3 30 24 37 25
37 5 0 -10 11 -15 35 -15 l35 0 0 140 0 140 -85 0 -85 0 0 -35 c0 -34 1 -35
41 -35 l41 0 -4 -55 c-6 -67 -28 -95 -74 -95 -39 0 -69 28 -78 72 -3 17 -6 73
-6 124 0 138 27 194 94 194 25 0 66 -41 66 -66 0 -10 14 -14 45 -14 44 0 45 1
39 28 -19 77 -58 111 -137 119 -41 3 -61 0 -97 -19z"/>
<path d="M7665 4806 c-62 -28 -95 -85 -95 -162 0 -90 33 -131 163 -205 99 -56
120 -88 114 -168 -5 -72 -36 -101 -106 -101 -59 0 -87 20 -105 75 -13 36 -18
40 -50 43 -33 3 -36 1 -36 -22 0 -63 58 -139 120 -156 77 -22 170 -1 212 46
67 76 61 223 -13 291 -13 12 -60 41 -103 66 -98 53 -119 80 -118 143 0 36 6
52 26 73 54 54 147 22 162 -56 6 -31 9 -33 46 -33 l39 0 -7 38 c-8 48 -32 90
-67 115 -34 26 -138 34 -182 13z"/>
<path d="M904 4793 c3 -10 26 -117 51 -238 25 -121 48 -228 51 -237 4 -14 16
-18 49 -18 l43 0 22 93 c11 50 29 131 38 179 9 49 19 88 22 88 3 0 18 -67 34
-148 44 -225 39 -212 91 -212 25 0 45 1 45 3 0 2 25 113 55 246 30 134 55 247
55 252 0 6 -19 9 -42 7 l-42 -3 -32 -170 c-17 -93 -33 -179 -35 -190 -2 -11
-22 63 -43 165 -21 102 -40 188 -42 192 -3 5 -22 8 -43 8 l-38 0 -39 -185
c-21 -102 -42 -185 -46 -185 -5 0 -8 10 -8 23 0 12 -12 95 -27 185 l-27 162
-49 0 c-41 0 -48 -3 -43 -17z"/>
<path d="M1520 4555 l0 -255 139 0 c135 0 139 1 145 23 13 48 12 49 -94 45
l-100 -3 0 83 0 82 90 0 90 0 0 35 0 35 -90 0 -90 0 0 70 0 70 95 0 95 0 0 35
0 35 -140 0 -140 0 0 -255z"/>
<path d="M1877 4803 c-4 -3 -7 -118 -7 -255 l0 -250 123 4 c103 2 126 6 149
23 67 49 77 159 20 218 l-31 32 25 28 c18 21 24 40 24 73 0 102 -47 134 -197
134 -55 0 -103 -3 -106 -7z m205 -83 c18 -23 24 -66 10 -86 -13 -20 -50 -34
-91 -34 l-41 0 0 68 c0 38 3 72 8 76 15 16 96 -1 114 -24z m10 -210 c11 -14
18 -38 18 -65 0 -58 -32 -85 -101 -85 l-49 0 0 91 0 91 57 -4 c43 -4 61 -10
75 -28z"/>
<path d="M2440 4555 l0 -255 41 0 41 0 -4 210 c-1 116 0 203 4 193 3 -10 23
-105 44 -210 l37 -193 41 0 42 0 37 173 c20 94 41 190 46 212 6 28 9 -23 10
-172 l1 -213 40 0 40 0 0 255 0 255 -63 0 -63 0 -38 -167 c-21 -93 -40 -177
-43 -188 -3 -11 -15 27 -29 94 -12 62 -30 147 -39 187 l-16 74 -65 0 -64 0 0
-255z"/>
<path d="M3050 4807 c0 -5 -119 -468 -126 -489 -5 -15 1 -18 39 -18 l45 0 12
53 c22 95 14 88 88 85 l66 -3 16 -65 16 -65 46 -3 47 -3 -50 188 c-27 103 -57
218 -66 256 l-17 67 -58 0 c-32 0 -58 -1 -58 -3z m85 -196 l22 -96 -45 -3
c-24 -2 -46 -1 -49 1 -2 3 6 53 19 111 12 59 25 101 27 94 2 -6 14 -55 26
-107z"/>
<path d="M3350 4555 l0 -255 45 0 45 0 0 110 0 110 44 0 c72 0 85 -19 94 -128
4 -51 10 -92 15 -92 4 0 22 0 40 0 l33 0 -3 88 c-5 97 -17 138 -44 153 -17 9
-16 12 13 38 42 37 50 118 18 169 -30 49 -72 62 -195 62 l-105 0 0 -255z m212
168 c25 -23 24 -87 -2 -113 -15 -15 -33 -20 -70 -20 l-50 0 0 75 0 75 52 0
c34 0 58 -6 70 -17z"/>
<path d="M3750 4555 l0 -255 45 0 45 0 0 88 c0 77 3 90 24 117 13 17 26 28 29
25 3 -3 29 -57 59 -120 l54 -115 47 0 c26 0 47 2 47 5 0 3 -34 73 -74 157
l-74 151 73 99 72 98 -45 3 c-28 2 -50 -2 -58 -10 -7 -7 -45 -60 -83 -117
l-71 -105 0 117 0 117 -45 0 -45 0 0 -255z"/>
<path d="M4140 4555 l0 -256 143 3 142 3 3 33 3 32 -100 0 -101 0 0 80 0 80
90 0 90 0 0 35 0 35 -90 0 -90 0 0 70 0 70 95 0 95 0 0 35 0 35 -140 0 -140 0
0 -255z"/>
<path d="M4470 4775 l0 -35 60 0 60 0 0 -220 0 -220 45 0 45 0 0 220 0 220 60
0 60 0 0 35 0 35 -165 0 -165 0 0 -35z"/>
<path d="M4860 4556 l0 -254 40 -4 40 -4 0 258 0 258 -40 0 -40 0 0 -254z"/>
<path d="M5050 4556 l0 -256 41 0 40 0 -3 189 c-2 104 -1 187 1 185 3 -2 39
-88 80 -190 42 -102 79 -186 84 -185 4 1 25 1 47 1 l40 0 0 255 0 255 -41 0
-42 0 5 -187 c3 -108 2 -179 -3 -168 -5 11 -40 94 -78 185 l-69 165 -51 3 -51
3 0 -255z"/>
<path d="M8030 4460 l0 -350 40 0 40 0 0 170 0 171 111 -3 110 -3 2 -165 2
-165 38 -3 37 -3 0 350 0 351 -41 0 -40 0 3 -145 3 -145 -112 0 -113 0 0 145
0 145 -40 0 -40 0 0 -350z"/>
<path d="M8655 4788 c-3 -13 -35 -144 -71 -293 -36 -148 -71 -296 -79 -327
l-13 -58 38 0 38 0 22 93 c11 50 23 100 26 110 5 16 16 17 97 15 l91 -3 25
-107 24 -108 39 0 c30 0 38 4 38 18 0 9 -38 166 -83 347 l-83 330 -52 3 c-47
3 -52 1 -57 -20z m93 -221 c18 -83 33 -155 32 -159 0 -5 -31 -8 -70 -8 -38 0
-70 3 -70 8 -1 17 65 312 70 312 3 0 20 -69 38 -153z"/>
<path d="M9010 4460 l0 -350 40 0 40 0 0 160 0 160 68 0 c112 0 132 -30 132
-197 0 -116 3 -123 49 -123 l36 0 -6 133 c-7 138 -19 185 -58 209 -17 10 -16
13 15 44 38 39 48 79 42 164 -5 69 -26 103 -78 131 -28 16 -57 19 -157 19
l-123 0 0 -350z m230 272 c62 -31 76 -141 25 -200 -20 -23 -32 -27 -99 -30
l-76 -4 0 126 0 126 58 0 c34 0 71 -7 92 -18z"/>
<path d="M9490 4460 l0 -350 163 2 162 3 3 33 3 32 -131 0 -131 0 3 133 3 132
118 3 118 3 -3 32 -3 32 -117 3 -118 3 0 109 0 110 125 0 125 0 0 35 0 35
-160 0 -160 0 0 -350z"/>
<path d="M10290 4740 l0 -60 -55 0 -55 0 0 50 c0 43 -3 50 -20 50 -17 0 -20
-7 -20 -50 l0 -50 -45 0 -45 0 0 55 c0 52 -1 55 -25 55 -25 0 -25 -1 -25 -85
l0 -85 166 2 166 3 0 79 c0 72 -2 81 -21 88 -20 7 -21 4 -21 -52z"/>
<path d="M6430 4670 l0 -91 -72 3 -73 3 -3 83 -3 83 -27 -3 c-26 -3 -27 -5
-32 -83 l-5 -80 -60 0 -60 0 0 83 0 82 -32 0 -33 0 0 -120 0 -120 233 0 232 0
-2 122 -2 123 -30 3 -31 3 0 -91z"/>
<path d="M6737 4743 c-2 -5 -4 -26 -3 -48 l1 -40 240 1 c180 0 233 -2 211 -10
-16 -6 -124 -47 -240 -92 l-211 -81 0 -59 0 -59 328 -2 327 -3 0 51 0 51 -245
-4 c-134 -2 -241 0 -237 3 4 3 79 32 167 64 88 31 195 71 238 87 l77 30 0 59
0 59 -324 0 c-179 0 -327 -3 -329 -7z"/>
<path d="M10000 4489 c0 -98 0 -100 23 -97 18 2 23 10 25 41 l3 37 143 0 c142
0 143 0 141 23 -2 22 -4 22 -143 25 l-142 3 0 34 c0 31 -3 35 -25 35 l-25 0 0
-101z"/>
<path d="M6430 4376 l0 -86 -200 0 -200 0 0 -40 0 -40 231 2 230 3 0 120 1
120 -31 3 -31 3 0 -85z"/>
<path d="M10000 4335 l0 -25 165 0 165 0 0 25 0 25 -165 0 -165 0 0 -25z"/>
<path d="M6935 4250 c-109 -20 -185 -71 -201 -136 -12 -47 1 -139 24 -172 53
-73 217 -112 394 -92 105 12 189 47 222 92 24 34 33 131 17 181 -16 48 -69 93
-133 112 -63 19 -253 28 -323 15z m327 -125 c62 -30 74 -81 30 -124 -21 -22
-45 -31 -99 -41 -89 -16 -264 -9 -315 13 -95 40 -85 130 20 164 60 20 317 12
364 -12z"/>
<path d="M10050 4253 c-36 -13 -50 -36 -50 -83 0 -61 28 -90 87 -90 44 0 55
10 106 90 19 29 29 35 56 35 60 0 69 -54 13 -80 -25 -11 -31 -55 -7 -55 54 0
92 54 82 118 -8 48 -38 72 -92 72 -52 0 -85 -24 -110 -79 -18 -42 -49 -59 -80
-47 -25 9 -18 55 10 68 16 7 25 19 25 35 0 23 -10 27 -40 16z"/>
<path d="M1573 4135 c-58 -25 -81 -110 -45 -169 9 -16 46 -45 81 -65 75 -42
94 -75 67 -116 -10 -15 -26 -25 -40 -25 -26 0 -56 28 -56 53 0 13 -9 17 -40
17 -45 0 -49 -9 -26 -65 41 -97 210 -84 244 20 23 70 -11 136 -92 177 -59 29
-76 47 -76 80 0 40 41 59 70 33 11 -10 20 -24 20 -32 0 -9 13 -13 40 -13 39 0
40 1 34 28 -20 80 -98 114 -181 77z"/>
<path d="M6304 4141 c-12 -5 -30 -21 -41 -35 -21 -26 -21 -26 -34 -5 -30 44
-125 41 -170 -7 -22 -23 -24 -35 -27 -130 l-4 -104 229 0 c127 0 232 2 234 4
2 2 2 52 -1 110 -5 102 -6 107 -37 137 -25 25 -41 32 -80 35 -26 2 -58 0 -69
-5z m115 -97 c13 -17 21 -41 21 -65 l0 -39 -80 0 -80 0 0 45 c0 58 25 85 79
85 31 0 44 -6 60 -26z m-215 -6 c9 -12 16 -39 16 -60 l0 -38 -65 0 -65 0 0 42
c0 52 22 78 66 78 23 0 38 -7 48 -22z"/>
<path d="M467 3968 c18 -95 36 -192 40 -215 6 -43 6 -43 47 -43 l42 0 23 123
c13 67 26 133 29 147 4 17 13 -16 28 -100 34 -183 28 -170 74 -170 22 0 40 2
40 5 0 3 18 94 40 201 22 108 40 202 40 210 0 18 -66 19 -73 1 -2 -7 -13 -72
-23 -145 -10 -73 -21 -132 -24 -132 -3 0 -16 59 -28 132 -13 72 -26 137 -29
145 -3 7 -20 13 -38 13 -38 0 -31 19 -73 -205 -20 -104 -25 -104 -36 0 -3 28
-11 85 -17 128 l-11 77 -43 0 -42 0 34 -172z"/>
<path d="M920 3925 l0 -215 109 0 c90 0 110 3 115 16 15 39 8 43 -71 46 l-78
3 -3 63 -3 62 71 0 70 0 0 35 0 35 -70 0 -70 0 0 50 0 50 75 0 75 0 0 35 0 35
-110 0 -110 0 0 -215z"/>
<path d="M1200 3925 l0 -215 85 0 c57 0 96 5 115 15 62 32 80 129 35 183 l-24
29 21 41 c26 55 19 101 -23 136 -28 24 -39 26 -120 26 l-89 0 0 -215z m151
145 c22 -12 27 -68 7 -88 -7 -7 -29 -12 -50 -12 l-38 0 0 55 c0 55 0 55 31 55
17 0 39 -5 50 -10z m9 -180 c24 -24 27 -82 4 -104 -9 -9 -32 -16 -55 -16 l-39
0 0 63 c0 35 3 67 7 70 14 14 64 6 83 -13z"/>
<path d="M1820 3925 l0 -215 40 0 40 0 0 215 0 215 -40 0 -40 0 0 -215z"/>
<path d="M1940 4105 c0 -35 0 -35 45 -35 l45 0 0 -180 0 -180 40 0 40 0 0 180
0 180 43 0 c53 0 55 2 49 40 l-4 30 -129 0 -129 0 0 -35z"/>
<path d="M2250 3925 l0 -215 109 0 c90 0 110 3 115 16 15 39 8 43 -71 46 l-78
3 -3 63 -3 62 71 0 70 0 0 35 0 35 -70 0 -70 0 0 50 0 50 75 0 75 0 0 35 0 35
-110 0 -110 0 0 -215z"/>
<path d="M3098 4033 l-3 -88 -60 0 -60 0 -3 78 -3 77 -49 0 -50 0 0 -81 0 -80
-47 3 -48 3 -3 83 -3 82 -49 0 -50 0 0 -140 0 -140 260 0 260 0 0 139 0 139
-31 6 c-59 11 -58 12 -61 -81z"/>
<path d="M4935 4106 c-70 -32 -99 -97 -99 -226 0 -186 59 -263 182 -238 82 16
117 99 110 262 -4 108 -25 168 -67 193 -33 20 -93 24 -126 9z m97 -63 c26 -23
41 -107 36 -198 -6 -96 -22 -134 -62 -154 -25 -12 -31 -11 -55 6 -36 27 -50
74 -50 173 -1 104 12 153 46 180 28 22 54 19 85 -7z"/>
<path d="M3340 3875 l0 -235 30 0 30 0 0 188 1 187 77 -188 77 -188 35 3 35 3
0 230 0 230 -27 3 -28 3 0 -183 -1 -183 -76 183 -76 182 -38 0 -39 0 0 -235z"/>
<path d="M3720 3875 l0 -235 120 0 120 0 0 25 c0 25 -1 25 -90 25 l-90 0 0 85
0 84 83 3 c76 3 82 5 85 25 3 21 -1 22 -80 25 l-83 3 -3 73 -3 72 86 0 c84 0
85 0 85 25 l0 25 -115 0 -115 0 0 -235z"/>
<path d="M4000 4086 c0 -23 4 -25 53 -28 l52 -3 3 -207 2 -208 30 0 30 0 0
210 0 210 55 0 c52 0 55 1 55 25 l0 25 -140 0 -140 0 0 -24z"/>
<path d="M4314 4093 c3 -10 23 -108 46 -218 52 -252 46 -235 80 -235 33 0 30
-10 70 175 16 77 33 151 36 165 5 17 16 -22 38 -130 47 -228 41 -212 78 -208
l32 3 51 233 52 233 -31 -3 c-33 -3 -32 0 -85 -278 -13 -68 -20 -88 -24 -70
-3 14 -21 97 -40 185 l-33 160 -30 3 -30 3 -39 -188 -39 -188 -17 90 c-9 50
-24 134 -34 188 l-17 97 -35 0 c-28 0 -33 -3 -29 -17z"/>
<path d="M5210 3875 l0 -235 30 0 30 0 0 105 0 105 48 0 c26 0 53 -4 60 -8 19
-12 32 -69 32 -139 l0 -63 31 0 32 0 -5 95 c-5 83 -8 99 -29 122 -17 18 -20
27 -11 30 21 8 42 60 42 105 0 86 -48 118 -175 118 l-85 0 0 -235z m180 165
c29 -29 27 -84 -5 -115 -18 -19 -35 -25 -70 -25 l-45 0 0 80 0 80 50 0 c37 0
55 -5 70 -20z"/>
<path d="M5550 3875 l0 -235 30 0 30 0 0 86 c0 77 3 89 25 116 l25 29 57 -115
c56 -113 59 -116 90 -116 18 0 33 3 33 8 -1 4 -32 67 -70 141 l-68 134 61 81
c33 45 65 87 70 94 7 9 1 12 -27 12 -34 0 -39 -5 -113 -111 l-78 -111 -3 111
-3 111 -29 0 -30 0 0 -235z"/>
<path d="M9293 3900 c-42 -25 -61 -63 -74 -152 -13 -87 0 -200 28 -255 27 -51
75 -75 141 -70 60 4 97 27 127 78 17 29 20 52 20 169 0 121 -2 139 -23 177
-12 24 -35 49 -52 58 -42 22 -128 19 -167 -5z m118 -87 c19 -22 20 -248 1
-280 -15 -27 -44 -30 -63 -7 -18 22 -25 205 -10 262 10 34 16 42 35 42 13 0
30 -7 37 -17z"/>
<path d="M11310 3882 c-50 -50 -63 -100 -58 -232 4 -121 23 -171 77 -207 65
-44 171 -23 210 41 45 73 51 262 11 352 -26 59 -68 84 -144 84 -54 0 -61 -3
-96 -38z m141 -82 c12 -45 10 -233 -4 -260 -17 -34 -52 -38 -68 -8 -18 32 -18
245 -1 276 18 32 63 27 73 -8z"/>
<path d="M8340 3670 l0 -240 55 0 55 0 0 240 0 240 -55 0 -55 0 0 -240z"/>
<path d="M8530 3669 l0 -240 48 3 47 3 -2 150 c-2 83 0 144 3 137 3 -7 25 -74
48 -150 l42 -137 62 -3 62 -3 0 241 0 240 -50 0 -50 0 -1 -137 0 -138 -45 138
-45 137 -59 0 -60 0 0 -241z"/>
<path d="M8910 3670 l0 -240 55 0 55 0 0 100 0 100 70 0 70 0 0 45 0 45 -70 0
-70 0 0 50 0 50 75 0 75 0 0 45 0 45 -130 0 -130 0 0 -240z"/>
<path d="M9600 3670 l0 -240 55 0 55 0 0 95 c0 105 8 118 56 97 22 -11 24 -17
24 -79 0 -108 3 -113 65 -113 l52 0 -4 93 c-4 71 -9 99 -25 120 l-20 29 22 23
c47 50 34 161 -24 196 -26 16 -50 19 -143 19 l-113 0 0 -240z m190 141 c26
-49 -4 -106 -52 -99 -21 3 -23 9 -26 61 l-3 57 35 0 c25 0 38 -6 46 -19z"/>
<path d="M9970 3670 l0 -240 52 0 51 0 -7 187 c-4 103 -5 185 -2 183 2 -3 14
-87 27 -187 l23 -183 47 0 46 0 25 173 26 172 1 -172 1 -173 55 0 55 0 0 240
0 240 -79 0 c-92 0 -80 16 -107 -158 -9 -62 -18 -111 -20 -109 -2 1 -11 62
-20 135 l-18 132 -78 0 -78 0 0 -240z"/>
<path d="M10497 3888 c-11 -44 -87 -437 -87 -447 0 -7 22 -11 55 -11 l54 0 7
50 7 50 44 0 c46 0 47 -1 58 -62 l6 -38 54 0 c39 0 55 4 55 13 0 7 -20 114
-45 237 -25 123 -45 225 -45 227 0 2 -36 3 -79 3 -73 0 -79 -2 -84 -22z m97
-166 c4 -35 10 -70 13 -78 4 -10 -3 -14 -27 -14 -31 0 -32 1 -26 33 4 17 9 58
13 91 7 69 18 56 27 -32z"/>
<path d="M10730 3865 l0 -45 50 0 50 0 0 -195 0 -195 55 0 55 0 0 195 0 195
45 0 45 0 0 45 0 45 -150 0 -150 0 0 -45z"/>
<path d="M11070 3670 l0 -240 60 0 60 0 0 240 0 240 -60 0 -60 0 0 -240z"/>
<path d="M11640 3670 l0 -240 51 0 52 0 -5 150 c-3 83 -3 149 -1 147 1 -2 23
-69 47 -148 l44 -144 61 -3 61 -3 0 241 0 240 -51 0 -51 0 4 -139 c1 -77 1
-137 -1 -135 -3 2 -23 64 -45 137 l-41 132 -63 3 -62 3 0 -241z"/>
<path d="M7670 3878 c-63 -32 -93 -92 -86 -167 5 -60 26 -94 76 -128 48 -33
93 -44 205 -50 163 -8 267 20 313 87 32 47 32 153 -1 201 -24 36 -96 79 -134
79 -21 0 -23 -5 -23 -50 0 -40 4 -52 18 -56 54 -16 67 -29 67 -69 0 -37 -3
-42 -40 -60 -34 -17 -60 -20 -165 -20 -138 0 -191 12 -217 51 -21 33 -2 82 36
90 50 11 51 12 51 64 0 48 -1 50 -28 50 -15 0 -48 -10 -72 -22z"/>
<path d="M6030 3735 l0 -35 233 0 232 0 0 35 0 35 -232 0 -233 0 0 -35z"/>
<path d="M2672 3698 l3 -53 155 2 155 1 -157 -51 -158 -50 0 -64 0 -63 260 0
260 0 0 50 0 50 -162 1 -163 0 65 20 c36 11 109 34 163 50 l97 30 0 64 0 65
-261 0 -260 0 3 -52z"/>
<path d="M6737 3743 c-3 -5 -4 -28 -3 -53 l1 -45 328 -3 327 -2 0 55 0 55
-324 0 c-179 0 -327 -3 -329 -7z"/>
<path d="M6314 3620 c-27 -11 -73 -66 -91 -110 -21 -50 -52 -80 -83 -80 -31 0
-60 27 -60 57 0 23 30 53 53 53 13 0 17 9 17 41 0 41 0 41 -32 35 -103 -19
-128 -183 -38 -244 28 -19 44 -23 78 -19 52 6 85 33 119 102 36 71 60 95 99
95 41 0 64 -23 64 -64 0 -35 -25 -66 -53 -66 -13 0 -17 -9 -17 -40 0 -46 11
-50 65 -24 89 42 86 215 -5 261 -28 14 -85 16 -116 3z"/>
<path d="M6737 3573 c-3 -5 -5 -92 -4 -193 l2 -185 45 0 45 0 3 68 3 67 279 0
280 0 0 55 0 55 -280 0 -279 0 -3 68 -3 67 -42 3 c-22 2 -44 -1 -46 -5z"/>
<path d="M5384 3475 c-51 -26 -68 -68 -72 -175 -5 -116 8 -170 49 -204 54 -45
143 -32 179 26 30 49 26 68 -12 68 -26 0 -37 -6 -50 -30 -21 -37 -52 -39 -75
-4 -13 20 -17 48 -17 123 0 102 11 135 45 146 24 8 59 -19 59 -47 0 -14 8 -18
35 -18 32 0 35 2 35 30 0 18 -11 42 -28 61 -34 38 -99 49 -148 24z"/>
<path d="M4210 3280 l0 -200 40 0 40 0 0 200 0 200 -40 0 -40 0 0 -200z"/>
<path d="M4360 3280 l0 -200 35 0 34 0 3 153 3 152 25 -152 24 -153 36 0 37 0
29 163 29 162 3 -162 2 -163 35 0 35 0 0 200 0 200 -55 0 c-48 0 -55 -3 -60
-22 -3 -13 -16 -75 -28 -138 l-23 -115 -24 138 -23 137 -59 0 -58 0 0 -200z"/>
<path d="M4760 3280 l0 -200 38 0 37 0 -3 80 -4 80 41 0 c102 0 156 66 131
161 -17 63 -48 79 -151 79 l-89 0 0 -200z m160 121 c28 -52 0 -104 -54 -99
-30 3 -31 4 -34 61 l-3 57 40 0 c30 0 43 -5 51 -19z"/>
<path d="M5086 3463 c-10 -32 -86 -363 -86 -373 0 -6 15 -10 34 -10 31 0 35 3
41 33 14 69 13 68 63 65 l47 -3 9 -47 c9 -47 10 -48 48 -48 21 0 38 3 38 8 0
4 -21 94 -46 200 l-46 192 -48 0 c-38 0 -50 -4 -54 -17z m70 -135 c19 -88 19
-88 -19 -88 l-34 0 16 80 c8 44 17 78 19 75 2 -2 10 -32 18 -67z"/>
<path d="M5590 3451 c0 -28 3 -30 43 -33 l42 -3 0 -168 0 -167 38 0 37 0 0
170 0 170 45 0 c43 0 45 1 45 30 l0 30 -125 0 -125 0 0 -29z"/>
<path d="M7590 3390 l0 -50 300 0 300 0 0 50 0 50 -300 0 -300 0 0 -50z"/>
<path d="M2677 3333 c-4 -3 -7 -30 -7 -60 l0 -53 260 0 260 0 0 60 0 60 -253
0 c-140 0 -257 -3 -260 -7z"/>
<path d="M6300 3273 c-33 -23 -46 -39 -76 -98 -15 -27 -33 -58 -42 -67 -32
-37 -102 -10 -102 39 0 21 23 46 53 56 12 4 17 17 17 42 0 30 -3 35 -24 35
-35 0 -84 -45 -96 -89 -20 -75 13 -151 76 -171 73 -24 128 7 174 100 34 69 58
90 101 90 46 0 61 -18 57 -67 -2 -32 -8 -40 -35 -53 -28 -13 -33 -20 -33 -54
0 -38 0 -38 33 -32 17 4 46 20 62 36 28 28 30 35 30 106 0 74 -1 76 -37 110
-32 29 -45 34 -86 34 -28 0 -57 -7 -72 -17z"/>
<path d="M7590 3116 l0 -156 300 0 300 0 0 55 0 55 -130 0 -130 0 0 95 0 95
-45 0 -45 0 0 -95 0 -95 -75 0 -74 0 -3 98 -3 97 -47 3 -48 3 0 -155z"/>
<path d="M8340 3115 c0 -211 15 -245 110 -245 55 0 95 23 109 61 6 18 11 99
11 185 l0 154 -25 0 -25 0 0 -164 c0 -183 -4 -196 -64 -196 -60 0 -66 17 -66
198 l0 162 -25 0 -25 0 0 -155z"/>
<path d="M8659 3241 c-60 -60 -31 -126 83 -192 54 -32 70 -74 44 -114 -13 -20
-25 -25 -57 -25 -36 0 -41 3 -55 35 -10 24 -21 35 -35 35 -19 0 -21 -4 -15
-32 10 -50 37 -71 100 -76 51 -4 57 -2 86 26 25 26 30 38 30 79 0 60 -17 82
-95 125 -54 30 -60 37 -63 70 -3 39 17 68 49 68 23 0 59 -34 59 -55 0 -14 31
-21 43 -9 10 10 -14 64 -36 79 -12 8 -41 15 -65 15 -35 0 -49 -6 -73 -29z"/>
<path d="M8902 3073 l3 -198 95 0 c82 0 95 2 98 18 3 15 -6 17 -72 17 l-76 0
0 75 0 74 67 3 c55 2 68 6 71 21 3 15 -5 17 -67 17 l-71 0 0 65 0 65 70 0 c63
0 70 2 70 20 0 19 -7 20 -95 20 l-95 0 2 -197z"/>
<path d="M9150 3069 l0 -200 23 3 c21 3 22 8 25 97 l3 94 40 -6 c58 -8 69 -21
69 -86 0 -76 8 -101 32 -101 19 0 20 6 17 84 -3 61 -9 89 -21 102 -15 18 -15
20 3 43 13 16 19 39 19 71 0 42 -4 52 -31 74 -27 23 -39 26 -105 26 l-74 0 0
-201z m154 139 c37 -52 -2 -118 -69 -118 l-35 0 0 70 0 70 44 0 c35 0 48 -5
60 -22z"/>
<path d="M9463 3255 c-12 -8 -27 -31 -33 -50 -17 -51 10 -102 72 -135 68 -37
88 -58 88 -95 0 -49 -19 -67 -65 -63 -34 2 -42 8 -55 35 -11 23 -22 33 -39 33
-20 0 -22 -3 -17 -27 11 -45 60 -83 107 -83 74 0 119 43 119 114 0 37 -38 85
-87 110 -26 13 -56 33 -66 44 -26 29 -19 73 15 92 33 18 56 8 76 -33 14 -29
52 -37 52 -11 0 20 -19 56 -39 71 -22 17 -102 16 -128 -2z"/>
<path d="M10669 3208 l-107 -50 -61 41 c-84 58 -91 59 -91 23 0 -26 9 -35 88
-83 l87 -54 -87 -3 c-86 -3 -88 -3 -88 -27 l0 -25 190 0 190 0 0 25 c0 24 -2
25 -64 25 -48 0 -70 5 -87 19 l-24 19 79 36 c43 20 82 36 87 36 5 0 9 16 9 35
0 19 -3 35 -7 34 -5 0 -56 -23 -114 -51z"/>
<path d="M9772 3188 l3 -63 155 -32 c85 -17 157 -32 160 -33 3 -1 -56 -12
-130 -26 -214 -37 -191 -26 -188 -97 l3 -62 238 -3 237 -2 0 40 0 40 -182 1
-183 1 183 31 183 31 -3 40 -3 40 -110 22 c-60 12 -146 28 -190 37 l-80 14
193 2 192 1 0 40 0 40 -240 0 -241 0 3 -62z"/>
<path d="M3095 3170 c-2 -3 -3 -39 -3 -80 l0 -75 -211 -3 -212 -2 3 -58 3 -57
258 -3 257 -2 0 139 0 139 -46 4 c-25 2 -47 1 -49 -2z"/>
<path d="M6820 3128 c-66 -34 -90 -76 -90 -157 0 -78 20 -117 78 -156 101 -67
395 -74 506 -12 58 32 79 67 84 137 2 32 2 70 -2 84 -15 59 -103 125 -169 126
-27 0 -28 -1 -25 -46 3 -45 4 -47 48 -63 83 -31 91 -107 14 -146 -31 -16 -64
-21 -169 -23 -190 -6 -264 16 -281 84 -9 36 23 77 69 88 36 9 37 11 37 58 0
46 -1 48 -28 48 -15 0 -48 -10 -72 -22z"/>
<path d="M6430 2870 l0 -90 -75 0 -75 0 0 80 0 80 -30 0 -30 0 0 -80 0 -81
-62 3 -63 3 -1 80 -1 80 -32 3 -31 3 0 -126 0 -125 231 2 230 3 0 120 c0 106
-2 120 -18 126 -41 17 -43 12 -43 -81z"/>
<path d="M10414 2945 c-4 -8 -3 -22 0 -31 6 -15 23 -16 136 -12 72 3 129 3
127 2 -2 -2 -61 -25 -133 -52 l-129 -49 0 -34 0 -34 188 -3 187 -2 0 31 0 31
-135 -4 c-74 -2 -131 0 -127 3 4 4 64 28 135 54 l127 48 0 33 0 34 -185 0
c-156 0 -187 -2 -191 -15z"/>
<path d="M7590 2735 l0 -155 300 0 300 0 0 55 0 55 -130 0 -130 0 0 95 0 95
-45 0 -45 0 0 -95 0 -95 -75 0 -75 0 0 100 0 100 -50 0 -50 0 0 -155z"/>
<path d="M2670 2760 l0 -50 153 -1 152 0 -150 -48 -150 -47 -3 -67 -3 -67 261
0 260 0 0 57 0 56 -167 -5 -168 -6 85 27 c47 15 123 38 168 51 l82 24 0 63 0
63 -260 0 -260 0 0 -50z"/>
<path d="M9774 2776 c-3 -8 -4 -27 -2 -43 l3 -28 193 -5 c177 -5 195 -7 208
-24 19 -26 18 -49 -3 -75 -17 -20 -29 -21 -208 -23 l-190 -3 -3 -42 -3 -43
198 0 c181 0 201 2 231 20 57 35 79 130 47 206 -10 25 -26 40 -57 54 -38 17
-66 20 -226 20 -148 0 -184 -3 -188 -14z"/>
<path d="M7055 2641 l-320 -77 -3 -62 c-3 -57 -1 -63 20 -72 21 -9 613 -150
631 -150 4 0 7 22 7 49 l0 49 -77 17 c-43 9 -84 18 -91 20 -9 4 -12 26 -10 82
3 87 -8 77 121 103 l57 11 0 55 c0 30 -3 54 -7 53 -5 -1 -152 -36 -328 -78z
m65 -146 c0 -33 -4 -55 -11 -55 -26 0 -272 55 -259 58 8 2 62 13 120 26 157
35 150 36 150 -29z"/>
<path d="M10592 2653 l-183 -45 3 -37 3 -36 150 -37 c83 -20 167 -40 188 -43
38 -7 38 -6 35 21 -3 26 -8 30 -50 38 l-48 9 0 48 0 47 48 8 c44 8 47 11 50
42 2 17 0 31 -5 31 -4 -1 -90 -22 -191 -46z m48 -83 c0 -16 -5 -30 -11 -30
-27 0 -139 24 -139 30 0 6 86 26 128 28 18 2 22 -3 22 -28z"/>
<path d="M6079 2617 c-68 -46 -75 -150 -14 -211 41 -41 97 -56 207 -56 101 0
149 13 190 49 27 24 32 36 35 87 2 36 -1 69 -9 84 -17 32 -74 70 -105 70 -22
0 -24 -4 -21 -37 2 -29 8 -39 23 -41 28 -6 55 -32 55 -54 0 -58 -47 -78 -185
-78 -118 0 -159 18 -163 73 -3 35 -1 39 32 52 32 13 36 20 36 50 0 30 -3 35
-24 35 -12 0 -38 -10 -57 -23z"/>
<path d="M8005 2485 c-99 -23 -233 -55 -298 -70 l-118 -27 3 -71 3 -71 290
-67 c160 -38 293 -68 298 -69 4 0 7 24 7 54 l0 54 -72 14 -73 13 0 70 0 70 73
14 72 15 0 58 c0 32 -1 58 -2 57 -2 0 -84 -20 -183 -44z m-55 -170 c0 -54 7
-53 -145 -21 l-110 22 100 21 c55 11 112 21 128 22 26 1 27 -1 27 -44z"/>
<path d="M9870 2423 c-74 -24 -92 -57 -98 -185 l-5 -98 242 0 241 0 0 46 0 45
-97 -2 -98 -2 -3 35 c-5 52 17 68 91 68 97 0 107 5 107 52 l0 40 -95 -4 c-81
-3 -98 -7 -118 -26 -22 -21 -25 -21 -38 -6 -27 32 -90 50 -129 37z m91 -104
c14 -14 19 -30 17 -56 l-3 -35 -65 0 -65 0 1 43 c1 28 7 46 19 56 27 19 72 16
96 -8z"/>
<path d="M2834 2411 c-112 -18 -168 -75 -169 -171 0 -105 54 -154 191 -173 88
-13 218 2 268 31 48 28 76 77 76 134 0 123 -63 172 -232 182 -46 2 -106 1
-134 -3z m233 -132 c15 -5 31 -16 35 -22 29 -46 -27 -67 -174 -67 -127 0 -163
11 -163 50 0 16 9 29 25 37 31 16 237 17 277 2z"/>
<path d="M10440 2385 c-21 -22 -24 -36 -25 -103 l0 -77 188 -3 187 -2 0 30 0
30 -85 0 c-93 0 -100 6 -72 60 11 22 20 26 82 30 67 5 70 6 73 33 l3 27 -65 0
c-64 0 -116 -14 -116 -32 0 -5 -12 0 -26 11 -40 31 -113 29 -144 -4z m128 -53
c6 -9 12 -28 12 -44 0 -28 -1 -28 -60 -28 -59 0 -60 0 -60 28 0 63 70 92 108
44z"/>
<path d="M6110 2289 c-92 -37 -115 -162 -43 -232 41 -39 138 -61 236 -54 141
11 197 54 197 152 0 64 -23 103 -73 126 -60 27 -67 25 -67 -19 0 -34 3 -39 32
-47 38 -12 59 -55 42 -83 -22 -36 -65 -47 -176 -47 -93 0 -110 3 -135 21 -21
16 -28 30 -28 55 0 29 5 36 32 49 28 13 33 20 33 53 0 39 -7 43 -50 26z"/>
<path d="M6820 2202 c-70 -35 -97 -122 -88 -287 l3 -60 328 -3 327 -2 0 50 0
50 -140 0 -140 0 0 59 c0 52 3 62 26 80 22 17 41 21 109 21 45 0 97 3 114 6
30 6 31 9 31 55 l0 48 -122 -6 c-127 -6 -165 -17 -191 -53 -14 -20 -14 -20
-31 6 -35 53 -155 72 -226 36z m153 -93 c32 -15 47 -49 47 -109 l0 -50 -100 0
-100 0 1 53 c0 28 4 60 8 71 16 40 92 59 144 35z"/>
<path d="M7718 2060 c-45 -8 -82 -32 -105 -67 -14 -21 -19 -54 -22 -155 l-3
-128 301 0 301 0 0 55 0 55 -125 0 -125 0 0 44 c0 37 11 62 33 77 1 1 49 4
107 8 l105 6 3 54 3 54 -110 -6 c-113 -7 -161 -21 -179 -54 -9 -14 -11 -14
-21 5 -21 40 -94 63 -163 52z m110 -124 c8 -8 17 -37 20 -65 l5 -51 -87 0 -86
0 0 41 c0 48 14 77 43 89 29 12 87 5 105 -14z"/>
<path d="M9880 2055 c-80 -27 -110 -65 -110 -140 0 -94 51 -138 179 -156 80
-11 186 1 239 29 101 51 94 204 -13 256 -53 26 -230 33 -295 11z m252 -85 c64
-18 75 -76 20 -104 -65 -33 -253 -27 -293 10 -38 34 -20 76 38 94 40 12 191
12 235 0z"/>
<path d="M6255 1912 l-220 -57 -3 -50 -3 -50 228 -58 c125 -31 230 -57 233
-57 3 0 5 17 4 37 l-1 38 -62 14 -62 15 3 60 3 61 51 11 c28 6 56 14 61 17 10
6 5 78 -6 76 -3 0 -105 -26 -226 -57z m42 -148 c-3 -4 -82 12 -167 33 -19 4
-2 11 70 27 l95 21 3 -38 c2 -22 1 -41 -1 -43z"/>
<path d="M7300 1656 l0 -116 -105 0 -105 0 0 105 0 105 -45 0 -45 0 0 -105 0
-105 -85 0 -85 0 0 110 0 110 -50 0 -50 0 0 -160 0 -160 330 0 330 0 -2 163
-3 162 -42 3 -43 3 0 -115z"/>
<path d="M9774 1697 c-2 -7 -3 -62 -2 -123 l3 -109 238 -3 237 -2 0 45 0 45
-100 0 -100 0 0 75 0 75 -40 0 -40 0 0 -75 0 -75 -60 0 -60 0 0 80 0 80 -35 0
c-20 0 -38 -6 -41 -13z"/>
<path d="M7590 1465 l0 -186 48 3 47 3 3 63 3 62 249 0 250 0 0 55 0 55 -250
0 -249 0 -3 63 -3 62 -47 3 -48 3 0 -186z"/>
<path d="M6735 1358 c-3 -8 -4 -95 -3 -193 l3 -180 45 0 45 0 3 68 3 67 279 0
280 0 0 55 0 55 -280 0 -279 0 -3 68 -3 67 -43 3 c-28 2 -44 -1 -47 -10z"/>
<path d="M6737 913 c-4 -3 -7 -24 -7 -44 l0 -39 236 -2 237 -3 -209 -79 c-282
-107 -260 -94 -263 -160 l-2 -56 330 0 331 0 0 45 0 45 -241 2 -241 3 241 89
241 89 0 59 0 58 -323 0 c-178 0 -327 -3 -330 -7z"/>
<path d="M6734 396 c-3 -8 -4 -32 -2 -53 l4 -38 327 -3 327 -2 0 55 0 55 -325
0 c-272 0 -327 -2 -331 -14z"/>
</g>
</svg>
